<svg width="177" height="215" viewBox="0 0 177 215" fill="none" xmlns="http://www.w3.org/2000/svg">
<rect width="177" height="215" rx="6.49998" fill="#DB7453"/>
<path d="M79.377 18.1036C82.809 20.6288 82.2775 30.1969 82.6168 34.1446C82.8504 36.722 83.3905 39.3033 83.6403 41.8931L84.5997 35.0519C85.9201 29.4166 87.9141 22.6884 92.793 19.0956C97.672 15.5028 100.269 18.7777 99.662 24.0724C99.0187 29.6486 95.1888 35.4796 95.7804 41.4778C106.335 42.8715 113.322 51.2129 112.694 61.9445C112.228 69.887 107.081 71.8685 100.108 73.5923C89.4953 76.2272 72.077 77.5047 66.1368 66.0112C61.811 57.6292 64.0382 49.5594 73.9344 48.023C73.2571 46.2901 72.5892 44.2937 72.1642 42.4843C70.7473 36.3021 69.764 26.6253 73.0551 20.9082C74.3019 18.7354 76.7185 16.1479 79.3446 18.0787L79.377 18.1036ZM75.7431 48.1517C80.0414 48.3787 84.9574 48.8749 88.547 51.3796C89.6583 47.9423 90.1598 44.4096 93.4041 42.1369C92.0607 35.9598 97.1384 29.1942 97.5419 23.6783C98.0036 17.2661 93.9912 20.0177 91.4854 23.0392C88.0003 27.2664 86.5814 36.3965 86.1666 41.8264C86.0761 43.0328 86.8752 45.8134 85.4039 46.4858C83.7127 47.2596 82.7299 46.7611 82.3018 45.0395C80.7447 38.7882 81.2189 32.0248 80.5127 25.7064C79.7399 18.9888 76.3086 16.245 74.0572 24.1286C71.8058 32.0122 74.2512 40.2748 75.7556 48.1355L75.7431 48.1517ZM78.6282 59.6788C79.062 61.1084 79.0496 63.9218 77.2924 64.4128C74.2415 65.2618 73.6492 59.1471 74.0912 57.283C74.8936 56.5083 86.2855 60.0803 88.0575 56.9067C90.4421 52.6188 82.8518 50.606 79.8983 50.1893C70.0426 48.792 63.0532 53.5192 67.4558 63.9455C71.8584 74.3717 88.9838 73.9773 98.5917 72.1289C109.281 70.0814 112.321 66.4657 109.853 55.4526C108.545 49.6641 103.221 44.3551 97.3022 43.6543C92.1078 43.0341 89.9 47.8963 90.2908 52.4637C90.3914 53.5724 90.9294 54.3473 90.9815 55.4187C91.0404 56.7659 90.0959 57.7922 90.0453 58.7457C89.8796 61.7248 91.5477 66.9272 95.4166 65.1996C94.7733 63.5562 92.2977 47.4647 96.5214 48.2869C97.2838 48.4353 96.9087 49.0232 96.8625 49.4518C96.3178 53.6602 95.0829 55.7004 96.1875 60.3789C96.508 61.7212 98.3781 65.7901 100.083 65.233C102.264 64.5265 101.12 52.831 105.247 52.1916L106.006 53.098C103.808 56.1377 104.548 64.8409 102.416 67.0416C99.9743 69.545 97.9712 66.8046 96.8606 66.891C96.4558 66.9146 95.54 67.9371 94.5751 68.1356C89.5952 69.1628 88.1588 63.7263 88.0943 59.8739C84.9493 60.8954 81.8245 60.2824 78.6463 59.7056L78.6282 59.6788Z" fill="#18181B"/>
<path d="M78.6282 59.6788C79.062 61.1084 79.0496 63.9218 77.2924 64.4128C74.2415 65.2618 73.6492 59.1471 74.0912 57.283C74.8936 56.5083 86.2855 60.0803 88.0575 56.9067C90.4421 52.6188 82.8518 50.606 79.8983 50.1893C70.0426 48.792 63.0532 53.5192 67.4558 63.9455C71.8584 74.3717 88.9838 73.9773 98.5917 72.1289C109.281 70.0814 112.321 66.4657 109.853 55.4526C108.545 49.6641 103.221 44.3551 97.3022 43.6543C92.1078 43.0341 89.9 47.8963 90.2908 52.4637C90.3914 53.5724 90.9294 54.3473 90.9815 55.4187C91.0404 56.7659 90.0959 57.7922 90.0453 58.7457C89.8796 61.7248 91.5477 66.9272 95.4166 65.1996C94.7733 63.5562 92.2977 47.4647 96.5214 48.2869C97.2838 48.4353 96.9087 49.0232 96.8625 49.4518C96.3178 53.6602 95.0829 55.7004 96.1875 60.3789C96.508 61.7212 98.3781 65.7901 100.083 65.233C102.264 64.5265 101.12 52.831 105.247 52.1916L106.006 53.098C103.808 56.1377 104.548 64.8409 102.416 67.0416C99.9743 69.545 97.9712 66.8046 96.8606 66.891C96.4558 66.9146 95.54 67.9371 94.5751 68.1356C89.5952 69.1628 88.1588 63.7263 88.0943 59.8739C84.9493 60.8954 81.8245 60.2824 78.6463 59.7056L78.6282 59.6788Z" fill="white"/>
<path d="M75.7431 48.1517C80.0414 48.3787 84.9574 48.8749 88.547 51.3796C89.6583 47.9423 90.1598 44.4096 93.4041 42.1369C92.0607 35.9598 97.1384 29.1942 97.5419 23.6783C98.0036 17.2661 93.9912 20.0177 91.4854 23.0392C88.0003 27.2664 86.5814 36.3965 86.1666 41.8264C86.0761 43.0328 86.8752 45.8134 85.4039 46.4858C83.7127 47.2596 82.7299 46.7611 82.3018 45.0395C80.7447 38.7882 81.2189 32.0248 80.5127 25.7064C79.7399 18.9888 76.3086 16.245 74.0572 24.1286C71.8058 32.0122 74.2512 40.2748 75.7556 48.1355L75.7431 48.1517Z" fill="white"/>
<path d="M41.742 104.675V94.8747H45.669C46.4016 94.8747 47.0503 95.003 47.615 95.2597C48.1796 95.5117 48.623 95.8803 48.945 96.3657C49.2716 96.851 49.435 97.4343 49.435 98.1157C49.435 98.8063 49.2856 99.392 48.987 99.8727C48.6883 100.353 48.2543 100.72 47.685 100.972C47.1156 101.224 46.425 101.35 45.613 101.35H44.066V104.675H41.742ZM44.066 99.4037H45.557C46.047 99.4037 46.4273 99.308 46.698 99.1167C46.9733 98.9207 47.111 98.5987 47.111 98.1507C47.111 97.7027 46.9686 97.3783 46.684 97.1777C46.404 96.9723 46.033 96.8697 45.571 96.8697H44.066V99.4037ZM49.4133 104.675L53.0743 94.8747H55.7693L59.4653 104.675H56.8473L56.1543 102.687H52.6403L51.9613 104.675H49.4133ZM53.1653 100.748H55.6153L54.3833 97.3597L53.1653 100.748ZM64.9264 104.885C63.9137 104.885 63.0201 104.677 62.2454 104.262C61.4707 103.846 60.8664 103.258 60.4324 102.498C59.9984 101.737 59.7814 100.839 59.7814 99.8027C59.7814 99.0467 59.9074 98.356 60.1594 97.7307C60.4161 97.1007 60.7754 96.557 61.2374 96.0997C61.7041 95.6423 62.2524 95.29 62.8824 95.0427C63.5171 94.7907 64.2101 94.6647 64.9614 94.6647C65.7781 94.6647 66.4641 94.7673 67.0194 94.9727C67.5747 95.178 68.0764 95.4697 68.5244 95.8477L67.3624 97.7587C67.0917 97.4787 66.7651 97.271 66.3824 97.1357C65.9997 96.9957 65.5774 96.9257 65.1154 96.9257C64.6581 96.9257 64.2497 96.9933 63.8904 97.1287C63.5357 97.2593 63.2324 97.4483 62.9804 97.6957C62.7331 97.943 62.5441 98.2417 62.4134 98.5917C62.2827 98.9417 62.2174 99.3337 62.2174 99.7677C62.2174 100.365 62.3341 100.876 62.5674 101.301C62.8054 101.725 63.1437 102.052 63.5824 102.281C64.0211 102.505 64.5461 102.617 65.1574 102.617C65.5961 102.617 66.0301 102.551 66.4594 102.421C66.8934 102.285 67.3041 102.068 67.6914 101.77L68.7554 103.723C68.3027 104.073 67.7614 104.355 67.1314 104.57C66.5014 104.78 65.7664 104.885 64.9264 104.885ZM70.1658 104.675V94.8747H72.4898V102.554H75.6958V94.8747H78.0198V102.554H81.2258V94.8747H83.5498V104.675H70.1658ZM85.8611 104.675V94.8747H88.1641V101L92.1331 94.8747H94.4431V104.675H92.1401V98.4727L88.1571 104.675H85.8611ZM96.7576 104.675V94.8747H100.685C101.417 94.8747 102.066 95.003 102.631 95.2597C103.195 95.5117 103.639 95.8803 103.961 96.3657C104.287 96.851 104.451 97.4343 104.451 98.1157C104.451 98.8063 104.301 99.392 104.003 99.8727C103.704 100.353 103.27 100.72 102.701 100.972C102.131 101.224 101.441 101.35 100.629 101.35H99.0816V104.675H96.7576ZM99.0816 99.4037H100.573C101.063 99.4037 101.443 99.308 101.714 99.1167C101.989 98.9207 102.127 98.5987 102.127 98.1507C102.127 97.7027 101.984 97.3783 101.7 97.1777C101.42 96.9723 101.049 96.8697 100.587 96.8697H99.0816V99.4037ZM105.14 104.675L107.772 100.699C107.118 100.479 106.605 100.139 106.232 99.6767C105.863 99.2147 105.679 98.6523 105.679 97.9897C105.679 97.3083 105.833 96.7367 106.141 96.2747C106.449 95.8127 106.885 95.465 107.45 95.2317C108.014 94.9937 108.675 94.8747 109.431 94.8747H113.267V104.675H110.943V101.07H110.054L107.8 104.675H105.14ZM109.529 99.2077H110.943V96.7857H109.564C109.088 96.7857 108.712 96.8813 108.437 97.0727C108.161 97.2593 108.024 97.5627 108.024 97.9827C108.024 98.4027 108.154 98.713 108.416 98.9137C108.677 99.1097 109.048 99.2077 109.529 99.2077ZM115.57 104.675V94.8747H122.458V96.8907H117.894V98.7107H121.723V100.573H117.894V102.638H122.514V104.675H115.57ZM124.457 104.675V94.8747H126.69L130.414 101.056L129.49 101.063L133.032 94.8747H135.258V104.675H133.004L133.046 97.8427L133.459 97.9897L130.631 102.827H129.084L126.144 97.9897L126.543 97.8427L126.585 104.675H124.457ZM31.5496 122.675V112.875H33.8526V119L37.8216 112.875H40.1316V122.675H37.8286V116.473L33.8456 122.675H31.5496ZM45.6726 122.675V112.875H54.1846V122.675H51.8606V114.996H47.9966V122.675H45.6726ZM56.5007 122.675V112.875H60.4277C61.1604 112.875 61.8091 113.003 62.3737 113.26C62.9384 113.512 63.3817 113.88 63.7037 114.366C64.0304 114.851 64.1937 115.434 64.1937 116.116C64.1937 116.806 64.0444 117.392 63.7457 117.873C63.4471 118.353 63.0131 118.72 62.4437 118.972C61.8744 119.224 61.1837 119.35 60.3717 119.35H58.8247V122.675H56.5007ZM58.8247 117.404H60.3157C60.8057 117.404 61.1861 117.308 61.4567 117.117C61.7321 116.921 61.8697 116.599 61.8697 116.151C61.8697 115.703 61.7274 115.378 61.4427 115.178C61.1627 114.972 60.7917 114.87 60.3297 114.87H58.8247V117.404ZM70.3219 122.885C69.5706 122.885 68.8753 122.756 68.2359 122.5C67.6013 122.238 67.0483 121.877 66.5769 121.415C66.1056 120.953 65.7393 120.411 65.4779 119.791C65.2213 119.17 65.0929 118.498 65.0929 117.775C65.0929 117.047 65.2213 116.372 65.4779 115.752C65.7393 115.131 66.1056 114.59 66.5769 114.128C67.0483 113.666 67.6013 113.306 68.2359 113.05C68.8753 112.793 69.5706 112.665 70.3219 112.665C71.0779 112.665 71.7733 112.795 72.4079 113.057C73.0426 113.318 73.5956 113.682 74.0669 114.149C74.5383 114.615 74.9023 115.159 75.1589 115.78C75.4203 116.396 75.5509 117.061 75.5509 117.775C75.5509 118.498 75.4203 119.17 75.1589 119.791C74.9023 120.411 74.5383 120.953 74.0669 121.415C73.5956 121.877 73.0426 122.238 72.4079 122.5C71.7733 122.756 71.0779 122.885 70.3219 122.885ZM70.3219 120.701C70.7279 120.701 71.0989 120.633 71.4349 120.498C71.7756 120.362 72.0719 120.166 72.3239 119.91C72.5759 119.653 72.7696 119.345 72.9049 118.986C73.0449 118.622 73.1149 118.218 73.1149 117.775C73.1149 117.177 72.9936 116.659 72.7509 116.221C72.5129 115.782 72.1816 115.444 71.7569 115.206C71.3369 114.963 70.8586 114.842 70.3219 114.842C69.9206 114.842 69.5496 114.912 69.2089 115.052C68.8683 115.187 68.5719 115.383 68.3199 115.64C68.0726 115.896 67.8789 116.204 67.7389 116.564C67.5989 116.923 67.5289 117.327 67.5289 117.775C67.5289 118.367 67.6503 118.883 67.8929 119.322C68.1356 119.76 68.4669 120.101 68.8869 120.344C69.3116 120.582 69.7899 120.701 70.3219 120.701ZM83.3216 122.675V114.996H80.3326V115.682C80.3326 116.802 80.2719 117.77 80.1506 118.587C80.0292 119.399 79.8356 120.08 79.5696 120.631C79.3082 121.177 78.9606 121.613 78.5266 121.94C78.0926 122.266 77.5582 122.502 76.9236 122.647L76.1326 120.694C76.5386 120.605 76.8699 120.467 77.1266 120.281C77.3879 120.094 77.5909 119.819 77.7356 119.455C77.8849 119.091 77.9876 118.605 78.0436 117.999C78.1042 117.387 78.1346 116.615 78.1346 115.682V112.875H85.6456V122.675H83.3216ZM76.1326 125.139V120.694L77.4416 120.743L78.1696 120.554H87.2276V125.139H85.0226V122.675H78.3376V125.139H76.1326ZM88.7117 122.675V112.875H92.5057C93.5044 112.875 94.3024 113.085 94.8997 113.505C95.497 113.92 95.7957 114.538 95.7957 115.36C95.7957 115.658 95.735 115.934 95.6137 116.186C95.4924 116.438 95.3267 116.662 95.1167 116.858C94.9114 117.049 94.6804 117.203 94.4237 117.32C94.951 117.506 95.3757 117.817 95.6977 118.251C96.0244 118.685 96.1877 119.2 96.1877 119.798C96.1877 120.381 96.0407 120.887 95.7467 121.317C95.4574 121.746 95.0444 122.08 94.5077 122.318C93.971 122.556 93.334 122.675 92.5967 122.675H88.7117ZM91.0357 120.96H92.2607C92.7647 120.96 93.1427 120.857 93.3947 120.652C93.6467 120.446 93.7727 120.138 93.7727 119.728C93.7727 119.336 93.6514 119.032 93.4087 118.818C93.1707 118.598 92.8137 118.489 92.3377 118.489H91.0357V120.96ZM91.0357 116.893H92.1907C92.4707 116.893 92.711 116.846 92.9117 116.753C93.117 116.659 93.2734 116.524 93.3807 116.347C93.4927 116.169 93.5487 115.957 93.5487 115.71C93.5487 115.35 93.4274 115.073 93.1847 114.877C92.9467 114.681 92.6037 114.583 92.1557 114.583H91.0357V116.893ZM97.9265 122.675V112.875H100.23V119L104.199 112.875H106.509V122.675H104.206V116.473L100.223 122.675H97.9265ZM108.823 122.675V112.875H114.822V114.996H111.147V122.675H108.823ZM114.512 122.675L118.173 112.875H120.868L124.564 122.675H121.946L121.253 120.687H117.739L117.06 122.675H114.512ZM118.264 118.748H120.714L119.482 115.36L118.264 118.748ZM125.762 122.675V112.875H132.65V114.891H128.086V116.711H131.915V118.573H128.086V120.638H132.706V122.675H125.762ZM134.649 122.675V112.875H136.882L140.606 119.056L139.682 119.063L143.224 112.875H145.45V122.675H143.196L143.238 115.843L143.651 115.99L140.823 120.827H139.276L136.336 115.99L136.735 115.843L136.777 122.675H134.649Z" fill="#18181B"/>
<path d="M41.2288 145.175V136.775H42.5308L45.9568 142.349L45.4348 142.355L48.7348 136.775H50.0128V145.175H48.6988L48.7168 138.563L48.9748 138.653L46.1188 143.363H45.1348L42.2248 138.653L42.4408 138.563L42.4588 145.175H41.2288ZM52.0235 145.175V139.235H53.3435V144.173H54.4175C54.8495 144.173 55.1755 144.089 55.3955 143.921C55.6155 143.753 55.7255 143.503 55.7255 143.171C55.7255 142.843 55.6235 142.591 55.4195 142.415C55.2155 142.239 54.9155 142.151 54.5195 142.151H53.1635V141.161H54.6215C55.3895 141.161 55.9935 141.333 56.4335 141.677C56.8735 142.021 57.0935 142.519 57.0935 143.171C57.0935 143.591 56.9875 143.951 56.7755 144.251C56.5635 144.547 56.2655 144.775 55.8815 144.935C55.5015 145.095 55.0555 145.175 54.5435 145.175H52.0235ZM58.0475 145.175V139.235H59.3675V145.175H58.0475ZM64.1407 145.175V139.235H69.7507V145.175H68.4307V140.327H65.4607V145.175H64.1407ZM71.5821 147.695V139.235H72.7701V140.069C73.0061 139.769 73.3081 139.525 73.6761 139.337C74.0441 139.149 74.4981 139.055 75.0381 139.055C75.6181 139.055 76.1321 139.193 76.5801 139.469C77.0321 139.741 77.3841 140.115 77.6361 140.591C77.8881 141.063 78.0141 141.601 78.0141 142.205C78.0141 142.641 77.9421 143.051 77.7981 143.435C77.6541 143.815 77.4481 144.149 77.1801 144.437C76.9161 144.725 76.6001 144.951 76.2321 145.115C75.8681 145.275 75.4641 145.355 75.0201 145.355C74.5561 145.355 74.1481 145.271 73.7961 145.103C73.4441 144.935 73.1441 144.709 72.8961 144.425V147.695H71.5821ZM74.7981 144.185C75.1661 144.185 75.4921 144.105 75.7761 143.945C76.0641 143.781 76.2881 143.551 76.4481 143.255C76.6121 142.959 76.6941 142.609 76.6941 142.205C76.6941 141.801 76.6121 141.451 76.4481 141.155C76.2841 140.855 76.0581 140.625 75.7701 140.465C75.4861 140.305 75.1621 140.225 74.7981 140.225C74.4301 140.225 74.1021 140.305 73.8141 140.465C73.5301 140.625 73.3061 140.855 73.1421 141.155C72.9781 141.451 72.8961 141.801 72.8961 142.205C72.8961 142.609 72.9781 142.959 73.1421 143.255C73.3061 143.551 73.5301 143.781 73.8141 143.945C74.1021 144.105 74.4301 144.185 74.7981 144.185ZM79.3399 145.175V139.235H80.6179V143.243L83.8399 139.235H84.9919V145.175H83.7199V141.119L80.4679 145.175H79.3399ZM86.8282 145.175V139.235H89.6602C90.3322 139.235 90.8702 139.363 91.2742 139.619C91.6782 139.875 91.8802 140.259 91.8802 140.771C91.8802 141.011 91.8222 141.225 91.7062 141.413C91.5902 141.597 91.4302 141.751 91.2262 141.875C91.0222 141.999 90.7842 142.089 90.5122 142.145L90.4882 141.851C91.0122 141.923 91.4182 142.097 91.7062 142.373C91.9942 142.649 92.1382 142.999 92.1382 143.423C92.1382 143.783 92.0442 144.095 91.8562 144.359C91.6682 144.619 91.3982 144.821 91.0462 144.965C90.6942 145.105 90.2722 145.175 89.7802 145.175H86.8282ZM88.1062 144.197H89.6002C89.9962 144.197 90.3002 144.131 90.5122 143.999C90.7282 143.867 90.8362 143.669 90.8362 143.405C90.8362 143.145 90.7302 142.951 90.5182 142.823C90.3062 142.691 90.0002 142.625 89.6002 142.625H87.9322V141.683H89.4622C89.8342 141.683 90.1222 141.627 90.3262 141.515C90.5302 141.399 90.6322 141.211 90.6322 140.951C90.6322 140.691 90.5302 140.503 90.3262 140.387C90.1222 140.267 89.8342 140.207 89.4622 140.207H88.1062V144.197ZM93.4091 145.277L92.9471 144.089C93.3551 143.985 93.6531 143.821 93.8411 143.597C94.0331 143.373 94.1531 143.061 94.2011 142.661C94.2531 142.261 94.2791 141.745 94.2791 141.113V139.235H99.1091V145.175H97.7891V140.327H95.5091V141.113C95.5091 141.749 95.4791 142.303 95.4191 142.775C95.3631 143.247 95.2591 143.649 95.1071 143.981C94.9551 144.313 94.7411 144.585 94.4651 144.797C94.1931 145.005 93.8411 145.165 93.4091 145.277ZM103.661 145.355C103.021 145.355 102.459 145.225 101.975 144.965C101.491 144.701 101.113 144.333 100.841 143.861C100.573 143.389 100.439 142.841 100.439 142.217C100.439 141.761 100.517 141.341 100.673 140.957C100.829 140.569 101.049 140.233 101.333 139.949C101.617 139.665 101.949 139.445 102.329 139.289C102.713 139.133 103.131 139.055 103.583 139.055C104.075 139.055 104.513 139.143 104.897 139.319C105.281 139.491 105.599 139.733 105.851 140.045C106.107 140.357 106.287 140.723 106.391 141.143C106.499 141.559 106.517 142.011 106.445 142.499H101.705C101.697 142.855 101.775 143.167 101.939 143.435C102.103 143.699 102.337 143.905 102.641 144.053C102.949 144.201 103.311 144.275 103.727 144.275C104.063 144.275 104.387 144.225 104.699 144.125C105.015 144.021 105.301 143.869 105.557 143.669L106.067 144.617C105.875 144.773 105.643 144.907 105.371 145.019C105.099 145.127 104.815 145.209 104.519 145.265C104.223 145.325 103.937 145.355 103.661 145.355ZM101.783 141.527H105.149C105.137 141.079 104.993 140.727 104.717 140.471C104.445 140.215 104.057 140.087 103.553 140.087C103.065 140.087 102.659 140.215 102.335 140.471C102.015 140.727 101.831 141.079 101.783 141.527ZM111.764 145.175L109.796 142.019L111.626 139.235H113.036L111.218 141.959L113.342 145.175H111.764ZM107.816 145.175V139.235H109.136V141.527H110.924V142.619H109.136V145.175H107.816ZM116.905 145.355C116.313 145.355 115.789 145.219 115.333 144.947C114.881 144.671 114.525 144.297 114.265 143.825C114.009 143.349 113.881 142.809 113.881 142.205C113.881 141.753 113.955 141.335 114.103 140.951C114.251 140.567 114.459 140.233 114.727 139.949C114.995 139.665 115.315 139.445 115.687 139.289C116.059 139.133 116.465 139.055 116.905 139.055C117.489 139.055 117.977 139.179 118.369 139.427C118.765 139.675 119.067 139.995 119.275 140.387L119.089 140.669V139.235H120.265V145.175H119.089V143.741L119.275 144.023C119.067 144.415 118.765 144.735 118.369 144.983C117.977 145.231 117.489 145.355 116.905 145.355ZM117.079 144.185C117.439 144.185 117.761 144.105 118.045 143.945C118.329 143.781 118.551 143.551 118.711 143.255C118.875 142.959 118.957 142.609 118.957 142.205C118.957 141.801 118.875 141.451 118.711 141.155C118.551 140.855 118.329 140.625 118.045 140.465C117.761 140.305 117.439 140.225 117.079 140.225C116.715 140.225 116.391 140.305 116.107 140.465C115.827 140.625 115.605 140.855 115.441 141.155C115.277 141.451 115.195 141.801 115.195 142.205C115.195 142.609 115.277 142.959 115.441 143.255C115.605 143.551 115.827 143.781 116.107 143.945C116.391 144.105 116.715 144.185 117.079 144.185ZM124.814 145.355C124.174 145.355 123.612 145.225 123.128 144.965C122.644 144.701 122.266 144.333 121.994 143.861C121.726 143.389 121.592 142.841 121.592 142.217C121.592 141.761 121.67 141.341 121.826 140.957C121.982 140.569 122.202 140.233 122.486 139.949C122.77 139.665 123.102 139.445 123.482 139.289C123.866 139.133 124.284 139.055 124.736 139.055C125.228 139.055 125.666 139.143 126.05 139.319C126.434 139.491 126.752 139.733 127.004 140.045C127.26 140.357 127.44 140.723 127.544 141.143C127.652 141.559 127.67 142.011 127.598 142.499H122.858C122.85 142.855 122.928 143.167 123.092 143.435C123.256 143.699 123.49 143.905 123.794 144.053C124.102 144.201 124.464 144.275 124.88 144.275C125.216 144.275 125.54 144.225 125.852 144.125C126.168 144.021 126.454 143.869 126.71 143.669L127.22 144.617C127.028 144.773 126.796 144.907 126.524 145.019C126.252 145.127 125.968 145.209 125.672 145.265C125.376 145.325 125.09 145.355 124.814 145.355ZM122.936 141.527H126.302C126.29 141.079 126.146 140.727 125.87 140.471C125.598 140.215 125.21 140.087 124.706 140.087C124.218 140.087 123.812 140.215 123.488 140.471C123.168 140.727 122.984 141.079 122.936 141.527ZM128.969 145.175V139.235H130.115H130.151L132.815 143.087L132.245 143.099L134.777 139.235H135.947V145.175H134.747L134.765 140.783L135.011 140.891L132.887 143.993H132.035L129.815 140.885L130.061 140.777L130.079 145.175H128.969ZM36.0965 160.175L34.1285 157.019L35.9585 154.235H37.3685L35.5505 156.959L37.6745 160.175H36.0965ZM32.1485 160.175V154.235H33.4685V156.527H35.2565V157.619H33.4685V160.175H32.1485ZM38.6239 160.277L38.1619 159.089C38.5699 158.985 38.8679 158.821 39.0559 158.597C39.2479 158.373 39.3679 158.061 39.4159 157.661C39.4679 157.261 39.4939 156.745 39.4939 156.113V154.235H44.3239V160.175H43.0039V155.327H40.7239V156.113C40.7239 156.749 40.6939 157.303 40.6339 157.775C40.5779 158.247 40.4739 158.649 40.3219 158.981C40.1699 159.313 39.9559 159.585 39.6799 159.797C39.4079 160.005 39.0559 160.165 38.6239 160.277ZM46.1641 160.175V154.235H47.4421V158.243L50.6641 154.235H51.8161V160.175H50.5441V156.119L47.2921 160.175H46.1641ZM56.3644 160.355C55.7244 160.355 55.1624 160.225 54.6784 159.965C54.1944 159.701 53.8164 159.333 53.5444 158.861C53.2764 158.389 53.1424 157.841 53.1424 157.217C53.1424 156.761 53.2204 156.341 53.3764 155.957C53.5324 155.569 53.7524 155.233 54.0364 154.949C54.3204 154.665 54.6524 154.445 55.0324 154.289C55.4164 154.133 55.8344 154.055 56.2864 154.055C56.7784 154.055 57.2164 154.143 57.6004 154.319C57.9844 154.491 58.3024 154.733 58.5544 155.045C58.8104 155.357 58.9904 155.723 59.0944 156.143C59.2024 156.559 59.2204 157.011 59.1484 157.499H54.4084C54.4004 157.855 54.4784 158.167 54.6424 158.435C54.8064 158.699 55.0404 158.905 55.3444 159.053C55.6524 159.201 56.0144 159.275 56.4304 159.275C56.7664 159.275 57.0904 159.225 57.4024 159.125C57.7184 159.021 58.0044 158.869 58.2604 158.669L58.7704 159.617C58.5784 159.773 58.3464 159.907 58.0744 160.019C57.8024 160.127 57.5184 160.209 57.2224 160.265C56.9264 160.325 56.6404 160.355 56.3644 160.355ZM54.4864 156.527H57.8524C57.8404 156.079 57.6964 155.727 57.4204 155.471C57.1484 155.215 56.7604 155.087 56.2564 155.087C55.7684 155.087 55.3624 155.215 55.0384 155.471C54.7184 155.727 54.5344 156.079 54.4864 156.527ZM60.5196 160.175V154.235H61.8396V156.527H64.8156V154.235H66.1356V160.175H64.8156V157.619H61.8396V160.175H60.5196ZM69.2987 160.175V155.327H67.3487V154.235H72.5747V155.327H70.6187V160.175H69.2987ZM76.4912 160.355C75.8712 160.355 75.3172 160.213 74.8292 159.929C74.3452 159.641 73.9652 159.259 73.6892 158.783C73.4132 158.303 73.2752 157.777 73.2752 157.205C73.2752 156.781 73.3532 156.381 73.5092 156.005C73.6692 155.625 73.8932 155.289 74.1812 154.997C74.4732 154.705 74.8152 154.475 75.2072 154.307C75.5992 154.139 76.0292 154.055 76.4972 154.055C77.1172 154.055 77.6692 154.199 78.1532 154.487C78.6412 154.771 79.0232 155.153 79.2992 155.633C79.5752 156.109 79.7132 156.633 79.7132 157.205C79.7132 157.625 79.6332 158.025 79.4732 158.405C79.3172 158.785 79.0952 159.121 78.8072 159.413C78.5192 159.705 78.1792 159.935 77.7872 160.103C77.3952 160.271 76.9632 160.355 76.4912 160.355ZM76.4912 159.185C76.8592 159.185 77.1852 159.105 77.4692 158.945C77.7572 158.781 77.9832 158.551 78.1472 158.255C78.3112 157.959 78.3932 157.609 78.3932 157.205C78.3932 156.801 78.3112 156.451 78.1472 156.155C77.9832 155.855 77.7572 155.625 77.4692 155.465C77.1852 155.305 76.8592 155.225 76.4912 155.225C76.1232 155.225 75.7952 155.305 75.5072 155.465C75.2232 155.625 74.9992 155.855 74.8352 156.155C74.6752 156.451 74.5952 156.801 74.5952 157.205C74.5952 157.609 74.6772 157.959 74.8412 158.255C75.0052 158.551 75.2292 158.781 75.5132 158.945C75.8012 159.105 76.1272 159.185 76.4912 159.185ZM81.0391 160.175V154.235H83.8711C84.5431 154.235 85.0811 154.363 85.4851 154.619C85.8891 154.875 86.0911 155.259 86.0911 155.771C86.0911 156.011 86.0331 156.225 85.9171 156.413C85.8011 156.597 85.6411 156.751 85.4371 156.875C85.2331 156.999 84.9951 157.089 84.7231 157.145L84.6991 156.851C85.2231 156.923 85.6291 157.097 85.9171 157.373C86.2051 157.649 86.3491 157.999 86.3491 158.423C86.3491 158.783 86.2551 159.095 86.0671 159.359C85.8791 159.619 85.6091 159.821 85.2571 159.965C84.9051 160.105 84.4831 160.175 83.9911 160.175H81.0391ZM82.3171 159.197H83.8111C84.2071 159.197 84.5111 159.131 84.7231 158.999C84.9391 158.867 85.0471 158.669 85.0471 158.405C85.0471 158.145 84.9411 157.951 84.7291 157.823C84.5171 157.691 84.2111 157.625 83.8111 157.625H82.1431V156.683H83.6731C84.0451 156.683 84.3331 156.627 84.5371 156.515C84.7411 156.399 84.8431 156.211 84.8431 155.951C84.8431 155.691 84.7411 155.503 84.5371 155.387C84.3331 155.267 84.0451 155.207 83.6731 155.207H82.3171V159.197ZM90.7774 160.175V154.235H92.0554V158.243L95.2774 154.235H96.4294V160.175H95.1574V156.119L91.9054 160.175H90.7774ZM105.521 160.175V155.327H103.121V156.113C103.121 156.653 103.089 157.141 103.025 157.577C102.961 158.013 102.847 158.397 102.683 158.729C102.519 159.057 102.289 159.329 101.993 159.545C101.701 159.761 101.327 159.919 100.871 160.019L100.547 159.125C100.927 159.033 101.213 158.861 101.405 158.609C101.597 158.357 101.725 158.025 101.789 157.613C101.857 157.197 101.891 156.697 101.891 156.113V154.235H106.841V160.175H105.521ZM100.547 161.975V159.125L101.363 159.209L101.567 159.083H108.035V161.975H106.829V160.175H101.753V161.975H100.547ZM111.818 160.355C111.178 160.355 110.616 160.225 110.132 159.965C109.648 159.701 109.27 159.333 108.998 158.861C108.73 158.389 108.596 157.841 108.596 157.217C108.596 156.761 108.674 156.341 108.83 155.957C108.986 155.569 109.206 155.233 109.49 154.949C109.774 154.665 110.106 154.445 110.486 154.289C110.87 154.133 111.288 154.055 111.74 154.055C112.232 154.055 112.67 154.143 113.054 154.319C113.438 154.491 113.756 154.733 114.008 155.045C114.264 155.357 114.444 155.723 114.548 156.143C114.656 156.559 114.674 157.011 114.602 157.499H109.862C109.854 157.855 109.932 158.167 110.096 158.435C110.26 158.699 110.494 158.905 110.798 159.053C111.106 159.201 111.468 159.275 111.884 159.275C112.22 159.275 112.544 159.225 112.856 159.125C113.172 159.021 113.458 158.869 113.714 158.669L114.224 159.617C114.032 159.773 113.8 159.907 113.528 160.019C113.256 160.127 112.972 160.209 112.676 160.265C112.38 160.325 112.094 160.355 111.818 160.355ZM109.94 156.527H113.306C113.294 156.079 113.15 155.727 112.874 155.471C112.602 155.215 112.214 155.087 111.71 155.087C111.222 155.087 110.816 155.215 110.492 155.471C110.172 155.727 109.988 156.079 109.94 156.527ZM115.757 160.277L115.295 159.089C115.703 158.985 116.001 158.821 116.189 158.597C116.381 158.373 116.501 158.061 116.549 157.661C116.601 157.261 116.627 156.745 116.627 156.113V154.235H121.457V160.175H120.137V155.327H117.857V156.113C117.857 156.749 117.827 157.303 117.767 157.775C117.711 158.247 117.607 158.649 117.455 158.981C117.303 159.313 117.089 159.585 116.813 159.797C116.541 160.005 116.189 160.165 115.757 160.277ZM125.811 160.355C125.219 160.355 124.695 160.219 124.239 159.947C123.787 159.671 123.431 159.297 123.171 158.825C122.915 158.349 122.787 157.809 122.787 157.205C122.787 156.753 122.861 156.335 123.009 155.951C123.157 155.567 123.365 155.233 123.633 154.949C123.901 154.665 124.221 154.445 124.593 154.289C124.965 154.133 125.371 154.055 125.811 154.055C126.395 154.055 126.883 154.179 127.275 154.427C127.671 154.675 127.973 154.995 128.181 155.387L127.995 155.669V154.235H129.171V160.175H127.995V158.741L128.181 159.023C127.973 159.415 127.671 159.735 127.275 159.983C126.883 160.231 126.395 160.355 125.811 160.355ZM125.985 159.185C126.345 159.185 126.667 159.105 126.951 158.945C127.235 158.781 127.457 158.551 127.617 158.255C127.781 157.959 127.863 157.609 127.863 157.205C127.863 156.801 127.781 156.451 127.617 156.155C127.457 155.855 127.235 155.625 126.951 155.465C126.667 155.305 126.345 155.225 125.985 155.225C125.621 155.225 125.297 155.305 125.013 155.465C124.733 155.625 124.511 155.855 124.347 156.155C124.183 156.451 124.101 156.801 124.101 157.205C124.101 157.609 124.183 157.959 124.347 158.255C124.511 158.551 124.733 158.781 125.013 158.945C125.297 159.105 125.621 159.185 125.985 159.185ZM133.72 160.355C133.08 160.355 132.518 160.225 132.034 159.965C131.55 159.701 131.172 159.333 130.9 158.861C130.632 158.389 130.498 157.841 130.498 157.217C130.498 156.761 130.576 156.341 130.732 155.957C130.888 155.569 131.108 155.233 131.392 154.949C131.676 154.665 132.008 154.445 132.388 154.289C132.772 154.133 133.19 154.055 133.642 154.055C134.134 154.055 134.572 154.143 134.956 154.319C135.34 154.491 135.658 154.733 135.91 155.045C136.166 155.357 136.346 155.723 136.45 156.143C136.558 156.559 136.576 157.011 136.504 157.499H131.764C131.756 157.855 131.834 158.167 131.998 158.435C132.162 158.699 132.396 158.905 132.7 159.053C133.008 159.201 133.37 159.275 133.786 159.275C134.122 159.275 134.446 159.225 134.758 159.125C135.074 159.021 135.36 158.869 135.616 158.669L136.126 159.617C135.934 159.773 135.702 159.907 135.43 160.019C135.158 160.127 134.874 160.209 134.578 160.265C134.282 160.325 133.996 160.355 133.72 160.355ZM131.842 156.527H135.208C135.196 156.079 135.052 155.727 134.776 155.471C134.504 155.215 134.116 155.087 133.612 155.087C133.124 155.087 132.718 155.215 132.394 155.471C132.074 155.727 131.89 156.079 131.842 156.527ZM137.875 160.175V154.235H139.021H139.057L141.721 158.087L141.151 158.099L143.683 154.235H144.853V160.175H143.653L143.671 155.783L143.917 155.891L141.793 158.993H140.941L138.721 155.885L138.967 155.777L138.985 160.175H137.875ZM33.3719 175.175L31.4039 172.019L33.2339 169.235H34.6439L32.8259 171.959L34.9499 175.175H33.3719ZM29.4239 175.175V169.235H30.7439V171.527H32.5319V172.619H30.7439V175.175H29.4239ZM36.1153 177.695V169.235H37.3033V170.069C37.5393 169.769 37.8413 169.525 38.2093 169.337C38.5773 169.149 39.0313 169.055 39.5713 169.055C40.1513 169.055 40.6653 169.193 41.1133 169.469C41.5653 169.741 41.9173 170.115 42.1693 170.591C42.4213 171.063 42.5473 171.601 42.5473 172.205C42.5473 172.641 42.4753 173.051 42.3313 173.435C42.1873 173.815 41.9813 174.149 41.7133 174.437C41.4493 174.725 41.1333 174.951 40.7653 175.115C40.4013 175.275 39.9973 175.355 39.5533 175.355C39.0893 175.355 38.6813 175.271 38.3293 175.103C37.9773 174.935 37.6773 174.709 37.4293 174.425V177.695H36.1153ZM39.3313 174.185C39.6993 174.185 40.0253 174.105 40.3093 173.945C40.5973 173.781 40.8213 173.551 40.9813 173.255C41.1453 172.959 41.2273 172.609 41.2273 172.205C41.2273 171.801 41.1453 171.451 40.9813 171.155C40.8173 170.855 40.5913 170.625 40.3033 170.465C40.0193 170.305 39.6953 170.225 39.3313 170.225C38.9633 170.225 38.6353 170.305 38.3473 170.465C38.0633 170.625 37.8393 170.855 37.6753 171.155C37.5113 171.451 37.4293 171.801 37.4293 172.205C37.4293 172.609 37.5113 172.959 37.6753 173.255C37.8393 173.551 38.0633 173.781 38.3473 173.945C38.6353 174.105 38.9633 174.185 39.3313 174.185ZM46.6377 175.355C46.0177 175.355 45.4637 175.213 44.9757 174.929C44.4917 174.641 44.1117 174.259 43.8357 173.783C43.5597 173.303 43.4217 172.777 43.4217 172.205C43.4217 171.781 43.4997 171.381 43.6557 171.005C43.8157 170.625 44.0397 170.289 44.3277 169.997C44.6197 169.705 44.9617 169.475 45.3537 169.307C45.7457 169.139 46.1757 169.055 46.6437 169.055C47.2637 169.055 47.8157 169.199 48.2997 169.487C48.7877 169.771 49.1697 170.153 49.4457 170.633C49.7217 171.109 49.8597 171.633 49.8597 172.205C49.8597 172.625 49.7797 173.025 49.6197 173.405C49.4637 173.785 49.2417 174.121 48.9537 174.413C48.6657 174.705 48.3257 174.935 47.9337 175.103C47.5417 175.271 47.1097 175.355 46.6377 175.355ZM46.6377 174.185C47.0057 174.185 47.3317 174.105 47.6157 173.945C47.9037 173.781 48.1297 173.551 48.2937 173.255C48.4577 172.959 48.5397 172.609 48.5397 172.205C48.5397 171.801 48.4577 171.451 48.2937 171.155C48.1297 170.855 47.9037 170.625 47.6157 170.465C47.3317 170.305 47.0057 170.225 46.6377 170.225C46.2697 170.225 45.9417 170.305 45.6537 170.465C45.3697 170.625 45.1457 170.855 44.9817 171.155C44.8217 171.451 44.7417 171.801 44.7417 172.205C44.7417 172.609 44.8237 172.959 44.9877 173.255C45.1517 173.551 45.3757 173.781 45.6597 173.945C45.9477 174.105 46.2737 174.185 46.6377 174.185ZM53.9682 175.355C53.3442 175.355 52.7882 175.219 52.3002 174.947C51.8122 174.671 51.4282 174.297 51.1482 173.825C50.8722 173.349 50.7342 172.809 50.7342 172.205C50.7342 171.749 50.8162 171.331 50.9802 170.951C51.1442 170.567 51.3762 170.233 51.6762 169.949C51.9762 169.665 52.3282 169.445 52.7322 169.289C53.1402 169.133 53.5822 169.055 54.0582 169.055C54.4582 169.055 54.8282 169.109 55.1682 169.217C55.5122 169.321 55.8282 169.483 56.1162 169.703L55.4802 170.711C55.2962 170.547 55.0842 170.425 54.8442 170.345C54.6082 170.265 54.3562 170.225 54.0882 170.225C53.6722 170.225 53.3142 170.303 53.0142 170.459C52.7142 170.615 52.4802 170.841 52.3122 171.137C52.1482 171.429 52.0662 171.783 52.0662 172.199C52.0662 172.819 52.2462 173.305 52.6062 173.657C52.9702 174.009 53.4642 174.185 54.0882 174.185C54.3842 174.185 54.6642 174.131 54.9282 174.023C55.1922 173.911 55.4122 173.765 55.5882 173.585L56.2182 174.587C55.9022 174.827 55.5502 175.015 55.1622 175.151C54.7742 175.287 54.3762 175.355 53.9682 175.355ZM60.0385 175.355C59.4145 175.355 58.8585 175.219 58.3705 174.947C57.8825 174.671 57.4985 174.297 57.2185 173.825C56.9425 173.349 56.8045 172.809 56.8045 172.205C56.8045 171.749 56.8865 171.331 57.0505 170.951C57.2145 170.567 57.4465 170.233 57.7465 169.949C58.0465 169.665 58.3985 169.445 58.8025 169.289C59.2105 169.133 59.6525 169.055 60.1285 169.055C60.5285 169.055 60.8985 169.109 61.2385 169.217C61.5825 169.321 61.8985 169.483 62.1865 169.703L61.5505 170.711C61.3665 170.547 61.1545 170.425 60.9145 170.345C60.6785 170.265 60.4265 170.225 60.1585 170.225C59.7425 170.225 59.3845 170.303 59.0845 170.459C58.7845 170.615 58.5505 170.841 58.3825 171.137C58.2185 171.429 58.1365 171.783 58.1365 172.199C58.1365 172.819 58.3165 173.305 58.6765 173.657C59.0405 174.009 59.5345 174.185 60.1585 174.185C60.4545 174.185 60.7345 174.131 60.9985 174.023C61.2625 173.911 61.4825 173.765 61.6585 173.585L62.2885 174.587C61.9725 174.827 61.6205 175.015 61.2325 175.151C60.8445 175.287 60.4465 175.355 60.0385 175.355ZM63.298 172.373V171.227H66.538V172.373H63.298ZM68.1661 175.175V169.235H73.7761V175.175H72.4561V170.327H69.4861V175.175H68.1661ZM75.6075 177.695V169.235H76.7955V170.069C77.0315 169.769 77.3335 169.525 77.7015 169.337C78.0695 169.149 78.5235 169.055 79.0635 169.055C79.6435 169.055 80.1575 169.193 80.6055 169.469C81.0575 169.741 81.4095 170.115 81.6615 170.591C81.9135 171.063 82.0395 171.601 82.0395 172.205C82.0395 172.641 81.9675 173.051 81.8235 173.435C81.6795 173.815 81.4735 174.149 81.2055 174.437C80.9415 174.725 80.6255 174.951 80.2575 175.115C79.8935 175.275 79.4895 175.355 79.0455 175.355C78.5815 175.355 78.1735 175.271 77.8215 175.103C77.4695 174.935 77.1695 174.709 76.9215 174.425V177.695H75.6075ZM78.8235 174.185C79.1915 174.185 79.5175 174.105 79.8015 173.945C80.0895 173.781 80.3135 173.551 80.4735 173.255C80.6375 172.959 80.7195 172.609 80.7195 172.205C80.7195 171.801 80.6375 171.451 80.4735 171.155C80.3095 170.855 80.0835 170.625 79.7955 170.465C79.5115 170.305 79.1875 170.225 78.8235 170.225C78.4555 170.225 78.1275 170.305 77.8395 170.465C77.5555 170.625 77.3315 170.855 77.1675 171.155C77.0035 171.451 76.9215 171.801 76.9215 172.205C76.9215 172.609 77.0035 172.959 77.1675 173.255C77.3315 173.551 77.5555 173.781 77.8395 173.945C78.1275 174.105 78.4555 174.185 78.8235 174.185ZM86.1299 175.355C85.5099 175.355 84.9559 175.213 84.4679 174.929C83.9839 174.641 83.6039 174.259 83.3279 173.783C83.0519 173.303 82.9139 172.777 82.9139 172.205C82.9139 171.781 82.9919 171.381 83.1479 171.005C83.3079 170.625 83.5319 170.289 83.8199 169.997C84.1119 169.705 84.4539 169.475 84.8459 169.307C85.2379 169.139 85.6679 169.055 86.1359 169.055C86.7559 169.055 87.3079 169.199 87.7919 169.487C88.2799 169.771 88.6619 170.153 88.9379 170.633C89.2139 171.109 89.3519 171.633 89.3519 172.205C89.3519 172.625 89.2719 173.025 89.1119 173.405C88.9559 173.785 88.7339 174.121 88.4459 174.413C88.1579 174.705 87.8179 174.935 87.4259 175.103C87.0339 175.271 86.6019 175.355 86.1299 175.355ZM86.1299 174.185C86.4979 174.185 86.8239 174.105 87.1079 173.945C87.3959 173.781 87.6219 173.551 87.7859 173.255C87.9499 172.959 88.0319 172.609 88.0319 172.205C88.0319 171.801 87.9499 171.451 87.7859 171.155C87.6219 170.855 87.3959 170.625 87.1079 170.465C86.8239 170.305 86.4979 170.225 86.1299 170.225C85.7619 170.225 85.4339 170.305 85.1459 170.465C84.8619 170.625 84.6379 170.855 84.4739 171.155C84.3139 171.451 84.2339 171.801 84.2339 172.205C84.2339 172.609 84.3159 172.959 84.4799 173.255C84.6439 173.551 84.8679 173.781 85.1519 173.945C85.4399 174.105 85.7659 174.185 86.1299 174.185ZM90.6778 175.175V169.235H91.8238H91.8598L94.5238 173.087L93.9538 173.099L96.4858 169.235H97.6558V175.175H96.4558L96.4738 170.783L96.7198 170.891L94.5958 173.993H93.7438L91.5238 170.885L91.7698 170.777L91.7878 175.175H90.6778ZM102.196 175.355C101.576 175.355 101.022 175.213 100.534 174.929C100.05 174.641 99.6703 174.259 99.3943 173.783C99.1183 173.303 98.9803 172.777 98.9803 172.205C98.9803 171.781 99.0583 171.381 99.2143 171.005C99.3743 170.625 99.5983 170.289 99.8863 169.997C100.178 169.705 100.52 169.475 100.912 169.307C101.304 169.139 101.734 169.055 102.202 169.055C102.822 169.055 103.374 169.199 103.858 169.487C104.346 169.771 104.728 170.153 105.004 170.633C105.28 171.109 105.418 171.633 105.418 172.205C105.418 172.625 105.338 173.025 105.178 173.405C105.022 173.785 104.8 174.121 104.512 174.413C104.224 174.705 103.884 174.935 103.492 175.103C103.1 175.271 102.668 175.355 102.196 175.355ZM102.196 174.185C102.564 174.185 102.89 174.105 103.174 173.945C103.462 173.781 103.688 173.551 103.852 173.255C104.016 172.959 104.098 172.609 104.098 172.205C104.098 171.801 104.016 171.451 103.852 171.155C103.688 170.855 103.462 170.625 103.174 170.465C102.89 170.305 102.564 170.225 102.196 170.225C101.828 170.225 101.5 170.305 101.212 170.465C100.928 170.625 100.704 170.855 100.54 171.155C100.38 171.451 100.3 171.801 100.3 172.205C100.3 172.609 100.382 172.959 100.546 173.255C100.71 173.551 100.934 173.781 101.218 173.945C101.506 174.105 101.832 174.185 102.196 174.185ZM109.686 175.175V169.235H110.832H110.868L113.532 173.087L112.962 173.099L115.494 169.235H116.664V175.175H115.464L115.482 170.783L115.728 170.891L113.604 173.993H112.752L110.532 170.885L110.778 170.777L110.796 175.175H109.686ZM121.21 175.355C120.57 175.355 120.008 175.225 119.524 174.965C119.04 174.701 118.662 174.333 118.39 173.861C118.122 173.389 117.988 172.841 117.988 172.217C117.988 171.761 118.066 171.341 118.222 170.957C118.378 170.569 118.598 170.233 118.882 169.949C119.166 169.665 119.498 169.445 119.878 169.289C120.262 169.133 120.68 169.055 121.132 169.055C121.624 169.055 122.062 169.143 122.446 169.319C122.83 169.491 123.148 169.733 123.4 170.045C123.656 170.357 123.836 170.723 123.94 171.143C124.048 171.559 124.066 172.011 123.994 172.499H119.254C119.246 172.855 119.324 173.167 119.488 173.435C119.652 173.699 119.886 173.905 120.19 174.053C120.498 174.201 120.86 174.275 121.276 174.275C121.612 174.275 121.936 174.225 122.248 174.125C122.564 174.021 122.85 173.869 123.106 173.669L123.616 174.617C123.424 174.773 123.192 174.907 122.92 175.019C122.648 175.127 122.364 175.209 122.068 175.265C121.772 175.325 121.486 175.355 121.21 175.355ZM119.332 171.527H122.698C122.686 171.079 122.542 170.727 122.266 170.471C121.994 170.215 121.606 170.087 121.102 170.087C120.614 170.087 120.208 170.215 119.884 170.471C119.564 170.727 119.38 171.079 119.332 171.527ZM128.44 175.175V172.619H126.814V171.527H128.44V169.235H129.76V171.527H131.38V172.619H129.76V175.175H128.44ZM124.594 175.175L126.472 172.025L124.81 169.235H126.256L127.894 172.019L126.1 175.175H124.594ZM132.064 175.175L130.3 172.019L131.986 169.235H133.384L131.722 171.959L133.63 175.175H132.064ZM139.113 175.175V170.327H136.713V171.113C136.713 171.653 136.681 172.141 136.617 172.577C136.553 173.013 136.439 173.397 136.275 173.729C136.111 174.057 135.881 174.329 135.585 174.545C135.293 174.761 134.919 174.919 134.463 175.019L134.139 174.125C134.519 174.033 134.805 173.861 134.997 173.609C135.189 173.357 135.317 173.025 135.381 172.613C135.449 172.197 135.483 171.697 135.483 171.113V169.235H140.433V175.175H139.113ZM134.139 176.975V174.125L134.955 174.209L135.159 174.083H141.627V176.975H140.421V175.175H135.345V176.975H134.139ZM143.535 177.863C143.319 177.863 143.107 177.839 142.899 177.791C142.691 177.743 142.487 177.661 142.287 177.545L142.587 176.417C142.711 176.497 142.847 176.557 142.995 176.597C143.143 176.637 143.275 176.657 143.391 176.657C143.671 176.657 143.891 176.591 144.051 176.459C144.211 176.327 144.337 176.123 144.429 175.847L144.627 175.271L142.287 169.235H143.733L145.377 173.843L146.979 169.235H148.377L145.809 176.033C145.625 176.509 145.419 176.879 145.191 177.143C144.963 177.411 144.711 177.597 144.435 177.701C144.159 177.809 143.859 177.863 143.535 177.863ZM31.7208 190.175V184.235H37.3308V190.175H36.0108V185.327H33.0408V190.175H31.7208ZM39.1622 192.695V184.235H40.3502V185.069C40.5862 184.769 40.8882 184.525 41.2562 184.337C41.6242 184.149 42.0782 184.055 42.6182 184.055C43.1982 184.055 43.7122 184.193 44.1602 184.469C44.6122 184.741 44.9642 185.115 45.2162 185.591C45.4682 186.063 45.5942 186.601 45.5942 187.205C45.5942 187.641 45.5222 188.051 45.3782 188.435C45.2342 188.815 45.0282 189.149 44.7602 189.437C44.4962 189.725 44.1802 189.951 43.8122 190.115C43.4482 190.275 43.0442 190.355 42.6002 190.355C42.1362 190.355 41.7282 190.271 41.3762 190.103C41.0242 189.935 40.7242 189.709 40.4762 189.425V192.695H39.1622ZM42.3782 189.185C42.7462 189.185 43.0722 189.105 43.3562 188.945C43.6442 188.781 43.8682 188.551 44.0282 188.255C44.1922 187.959 44.2742 187.609 44.2742 187.205C44.2742 186.801 44.1922 186.451 44.0282 186.155C43.8642 185.855 43.6382 185.625 43.3502 185.465C43.0662 185.305 42.7422 185.225 42.3782 185.225C42.0102 185.225 41.6822 185.305 41.3942 185.465C41.1102 185.625 40.8862 185.855 40.7222 186.155C40.5582 186.451 40.4762 186.801 40.4762 187.205C40.4762 187.609 40.5582 187.959 40.7222 188.255C40.8862 188.551 41.1102 188.781 41.3942 188.945C41.6822 189.105 42.0102 189.185 42.3782 189.185ZM49.6846 190.355C49.0646 190.355 48.5106 190.213 48.0226 189.929C47.5386 189.641 47.1586 189.259 46.8826 188.783C46.6066 188.303 46.4686 187.777 46.4686 187.205C46.4686 186.781 46.5466 186.381 46.7026 186.005C46.8626 185.625 47.0866 185.289 47.3746 184.997C47.6666 184.705 48.0086 184.475 48.4006 184.307C48.7926 184.139 49.2226 184.055 49.6906 184.055C50.3106 184.055 50.8626 184.199 51.3466 184.487C51.8346 184.771 52.2166 185.153 52.4926 185.633C52.7686 186.109 52.9066 186.633 52.9066 187.205C52.9066 187.625 52.8266 188.025 52.6666 188.405C52.5106 188.785 52.2886 189.121 52.0006 189.413C51.7126 189.705 51.3726 189.935 50.9806 190.103C50.5886 190.271 50.1566 190.355 49.6846 190.355ZM49.6846 189.185C50.0526 189.185 50.3786 189.105 50.6626 188.945C50.9506 188.781 51.1766 188.551 51.3406 188.255C51.5046 187.959 51.5866 187.609 51.5866 187.205C51.5866 186.801 51.5046 186.451 51.3406 186.155C51.1766 185.855 50.9506 185.625 50.6626 185.465C50.3786 185.305 50.0526 185.225 49.6846 185.225C49.3166 185.225 48.9886 185.305 48.7006 185.465C48.4166 185.625 48.1926 185.855 48.0286 186.155C47.8686 186.451 47.7886 186.801 47.7886 187.205C47.7886 187.609 47.8706 187.959 48.0346 188.255C48.1986 188.551 48.4226 188.781 48.7066 188.945C48.9946 189.105 49.3206 189.185 49.6846 189.185ZM57.0031 190.355C56.3631 190.355 55.8011 190.225 55.3171 189.965C54.8331 189.701 54.4551 189.333 54.1831 188.861C53.9151 188.389 53.7811 187.841 53.7811 187.217C53.7811 186.761 53.8591 186.341 54.0151 185.957C54.1711 185.569 54.3911 185.233 54.6751 184.949C54.9591 184.665 55.2911 184.445 55.6711 184.289C56.0551 184.133 56.4731 184.055 56.9251 184.055C57.4171 184.055 57.8551 184.143 58.2391 184.319C58.6231 184.491 58.9411 184.733 59.1931 185.045C59.4491 185.357 59.6291 185.723 59.7331 186.143C59.8411 186.559 59.8591 187.011 59.7871 187.499H55.0471C55.0391 187.855 55.1171 188.167 55.2811 188.435C55.4451 188.699 55.6791 188.905 55.9831 189.053C56.2911 189.201 56.6531 189.275 57.0691 189.275C57.4051 189.275 57.7291 189.225 58.0411 189.125C58.3571 189.021 58.6431 188.869 58.8991 188.669L59.4091 189.617C59.2171 189.773 58.9851 189.907 58.7131 190.019C58.4411 190.127 58.1571 190.209 57.8611 190.265C57.5651 190.325 57.2791 190.355 57.0031 190.355ZM55.1251 186.527H58.4911C58.4791 186.079 58.3351 185.727 58.0591 185.471C57.7871 185.215 57.3991 185.087 56.8951 185.087C56.4071 185.087 56.0011 185.215 55.6771 185.471C55.3571 185.727 55.1731 186.079 55.1251 186.527ZM65.1063 190.175L63.1383 187.019L64.9683 184.235H66.3783L64.5603 186.959L66.6843 190.175H65.1063ZM61.1583 190.175V184.235H62.4783V186.527H64.2663V187.619H62.4783V190.175H61.1583ZM69.1757 190.175V185.327H67.2257V184.235H72.4517V185.327H70.4957V190.175H69.1757ZM76.1762 190.355C75.5842 190.355 75.0602 190.219 74.6042 189.947C74.1522 189.671 73.7962 189.297 73.5362 188.825C73.2802 188.349 73.1522 187.809 73.1522 187.205C73.1522 186.753 73.2262 186.335 73.3742 185.951C73.5222 185.567 73.7302 185.233 73.9982 184.949C74.2662 184.665 74.5862 184.445 74.9582 184.289C75.3302 184.133 75.7362 184.055 76.1762 184.055C76.7602 184.055 77.2482 184.179 77.6402 184.427C78.0362 184.675 78.3382 184.995 78.5462 185.387L78.3602 185.669V184.235H79.5362V190.175H78.3602V188.741L78.5462 189.023C78.3382 189.415 78.0362 189.735 77.6402 189.983C77.2482 190.231 76.7602 190.355 76.1762 190.355ZM76.3502 189.185C76.7102 189.185 77.0322 189.105 77.3162 188.945C77.6002 188.781 77.8222 188.551 77.9822 188.255C78.1462 187.959 78.2282 187.609 78.2282 187.205C78.2282 186.801 78.1462 186.451 77.9822 186.155C77.8222 185.855 77.6002 185.625 77.3162 185.465C77.0322 185.305 76.7102 185.225 76.3502 185.225C75.9862 185.225 75.6622 185.305 75.3782 185.465C75.0982 185.625 74.8762 185.855 74.7122 186.155C74.5482 186.451 74.4662 186.801 74.4662 187.205C74.4662 187.609 74.5482 187.959 74.7122 188.255C74.8762 188.551 75.0982 188.781 75.3782 188.945C75.6622 189.105 75.9862 189.185 76.3502 189.185ZM81.3731 190.175V184.235H82.5191H82.5551L85.2191 188.087L84.6491 188.099L87.1811 184.235H88.3511V190.175H87.1511L87.1691 185.783L87.4151 185.891L85.2911 188.993H84.4391L82.2191 185.885L82.4651 185.777L82.4831 190.175H81.3731ZM90.1856 190.175V184.235H91.4636V188.243L94.6856 184.235H95.8376V190.175H94.5656V186.119L91.3136 190.175H90.1856ZM100.615 190.175V184.235H104.527V185.327H101.935V190.175H100.615ZM105.748 192.695V184.235H106.936V185.069C107.172 184.769 107.474 184.525 107.842 184.337C108.21 184.149 108.664 184.055 109.204 184.055C109.784 184.055 110.298 184.193 110.746 184.469C111.198 184.741 111.55 185.115 111.802 185.591C112.054 186.063 112.18 186.601 112.18 187.205C112.18 187.641 112.108 188.051 111.964 188.435C111.82 188.815 111.614 189.149 111.346 189.437C111.082 189.725 110.766 189.951 110.398 190.115C110.034 190.275 109.63 190.355 109.186 190.355C108.722 190.355 108.314 190.271 107.962 190.103C107.61 189.935 107.31 189.709 107.062 189.425V192.695H105.748ZM108.964 189.185C109.332 189.185 109.658 189.105 109.942 188.945C110.23 188.781 110.454 188.551 110.614 188.255C110.778 187.959 110.86 187.609 110.86 187.205C110.86 186.801 110.778 186.451 110.614 186.155C110.45 185.855 110.224 185.625 109.936 185.465C109.652 185.305 109.328 185.225 108.964 185.225C108.596 185.225 108.268 185.305 107.98 185.465C107.696 185.625 107.472 185.855 107.308 186.155C107.144 186.451 107.062 186.801 107.062 187.205C107.062 187.609 107.144 187.959 107.308 188.255C107.472 188.551 107.696 188.781 107.98 188.945C108.268 189.105 108.596 189.185 108.964 189.185ZM113.957 192.863C113.741 192.863 113.529 192.839 113.321 192.791C113.113 192.743 112.909 192.661 112.709 192.545L113.009 191.417C113.133 191.497 113.269 191.557 113.417 191.597C113.565 191.637 113.697 191.657 113.813 191.657C114.093 191.657 114.313 191.591 114.473 191.459C114.633 191.327 114.759 191.123 114.851 190.847L115.049 190.271L112.709 184.235H114.155L115.799 188.843L117.401 184.235H118.799L116.231 191.033C116.047 191.509 115.841 191.879 115.613 192.143C115.385 192.411 115.133 192.597 114.857 192.701C114.581 192.809 114.281 192.863 113.957 192.863ZM119.834 190.175V184.235H125.444V190.175H124.124V185.327H121.154V190.175H119.834ZM127.275 190.175V184.235H132.885V190.175H131.565V185.327H128.595V190.175H127.275ZM134.717 190.175V184.235H136.037V189.173H137.111C137.543 189.173 137.869 189.089 138.089 188.921C138.309 188.753 138.419 188.503 138.419 188.171C138.419 187.843 138.317 187.591 138.113 187.415C137.909 187.239 137.609 187.151 137.213 187.151H135.857V186.161H137.315C138.083 186.161 138.687 186.333 139.127 186.677C139.567 187.021 139.787 187.519 139.787 188.171C139.787 188.591 139.681 188.951 139.469 189.251C139.257 189.547 138.959 189.775 138.575 189.935C138.195 190.095 137.749 190.175 137.237 190.175H134.717ZM140.741 190.175V184.235H142.061V190.175H140.741ZM144.589 190.355C144.333 190.355 144.111 190.273 143.923 190.109C143.739 189.945 143.647 189.731 143.647 189.467C143.647 189.287 143.689 189.131 143.773 188.999C143.857 188.863 143.971 188.759 144.115 188.687C144.259 188.611 144.417 188.573 144.589 188.573C144.849 188.573 145.069 188.655 145.249 188.819C145.433 188.979 145.525 189.195 145.525 189.467C145.525 189.643 145.483 189.799 145.399 189.935C145.315 190.067 145.201 190.169 145.057 190.241C144.917 190.317 144.761 190.355 144.589 190.355Z" fill="#18181B"/>
</svg>
