<svg width="177" height="216" viewBox="0 0 177 216" fill="none" xmlns="http://www.w3.org/2000/svg">
<rect width="177" height="216" rx="6.49998" fill="#DB7453"/>
<path d="M86.5097 25.0014C87.2178 24.495 87.7587 22.993 88.6667 22.6755C90.2216 22.145 91.1972 23.2288 91.5705 23.1627C92.4134 22.9998 92.7113 20.7683 95.2671 21.7239C95.8287 21.9303 96.3335 22.5828 96.6409 22.6436C97.381 22.7754 98.1257 21.6011 99.6575 22.2106C101.189 22.8201 101.679 24.8903 101.86 26.3996C102.262 29.7922 101.681 33.7962 101.515 37.2328C103.19 36.5183 104.282 34.8617 106.293 34.749C108.069 34.6431 109.554 36.0597 109.549 37.8244C109.546 41.1729 104.266 45.5605 103.897 50.67C103.119 61.4321 110.584 65.4717 114.932 73.2817C115.43 74.1845 115.815 75.035 115.554 76.1123C108.375 80.651 95.4936 76.1955 89.9566 70.5589C89.5275 70.1265 86.5938 66.1389 86.3491 66.3264C83.3497 72.2609 75.1401 77.7042 68.5211 78.4895C66.9286 78.6737 58.7333 79.2398 59.1348 76.7414C62.1422 70.112 65.6887 63.3839 67.7263 56.3652C68.1181 54.9925 69.0964 51.7691 69.047 50.5201C68.9725 47.8962 62.0403 37.1585 66.6929 35.6232C67.7801 35.2589 68.859 35.5756 69.8057 36.1322C69.9887 32.7925 69.3193 25.3644 72.6543 23.4218C73.2831 23.0566 74.1319 23.102 74.5917 22.6582C75.9167 21.3702 75.3825 18.7038 78.8321 18.8421C80.7237 18.9134 80.5748 20.0291 81.3323 20.2855C81.6968 20.4002 82.4089 20.0326 83.0927 20.1383C85.3678 20.5044 86.2443 22.9943 86.4815 24.9883L86.5097 25.0014ZM85.2864 27.4259C84.0463 28.2808 85.4006 40.7469 84.3128 41.5836C83.3338 42.3339 82.984 39.8012 82.9135 39.2753C82.5067 36.2024 81.9766 30.2569 83.0779 27.4469C83.7386 25.7609 85.3406 25.9099 83.8556 23.5206C83.4769 22.9062 82.9245 22.0465 82.0931 22.612C80.1167 23.9602 81.2916 35.0003 81.2145 37.6701C81.1834 38.5324 81.1117 42.3692 80.1618 42.1878C79.2045 41.2562 79.0042 39.0945 78.868 37.7229C78.3639 32.6937 78.1886 26.5159 79.734 21.7342C79.297 21.0241 78.491 21.0192 77.9094 21.5776C75.1907 24.1834 77.1961 35.6029 76.9158 39.4317C76.6565 43.0236 75.281 42.5347 74.6783 39.4118C73.831 35.0176 73.8629 29.7787 74.1957 25.351C73.6789 25.2545 73.5059 25.5234 73.2104 25.8791C71.3275 28.0723 72.2501 39.0361 72.017 42.5718C71.2576 54.4865 66.4379 65.7941 61.3196 76.3737C70.0356 78.0019 80.8264 73.4302 84.7789 65.3429C88.9417 56.8328 90.1451 37.5555 87.5276 28.5571C87.2355 27.5651 86.1583 26.8176 85.286 27.412L85.2864 27.4259ZM95.6032 40.4156C95.4814 40.5302 94.5913 40.4999 94.4276 40.1155C93.6085 38.1797 94.1006 36.429 94.1049 34.6227C94.1095 33.3165 93.9325 31.9738 94.0343 30.6649C94.136 29.356 95.4263 24.8872 95.376 24.583C95.2901 24.0019 93.9927 23.3301 93.3668 23.7925C92.1961 24.6455 91.4637 30.1682 91.3686 31.7132C90.8486 40.3143 91.1556 49.1699 89.3406 57.669C89.0821 58.8434 87.2546 64.4528 87.4778 64.9745C93.5844 72.5678 103.327 78.0572 113.265 75.7465L113.399 74.5895C106.392 66.1325 97.4879 56.3956 103.466 44.7635C104.216 43.3111 107.637 38.9902 107.168 37.6419C106.198 36.2662 103.821 38.2093 102.9 39.0413C102.616 39.2995 100.837 41.2396 100.691 41.4799C100.092 42.4139 98.6831 47.1084 97.6482 47.36C96.1028 47.7374 97.2768 44.0638 97.5347 43.3618C97.9875 42.1819 99.3475 40.6566 99.5297 39.7344C99.8438 38.0722 99.6257 35.2857 99.7546 33.4619C99.9721 30.3574 100.964 27.1336 99.5183 24.1597C97.4916 23.2447 96.6704 26.1301 96.3381 27.6401C95.9205 29.5693 96.159 39.9274 95.6028 40.4017L95.6032 40.4156ZM89.8325 24.5875C86.6075 25.999 88.7927 27.6042 89.3175 29.9374L90.1847 26.7172L89.819 24.6018L89.8325 24.5875ZM69.756 45.1508C69.9217 43.6455 70.3566 40.3681 69.8603 39.0345C69.6049 38.361 66.8065 36.6898 67.2115 38.7207L69.756 45.1508Z" fill="#18181B"/>
<path d="M64.661 30.29C64.2306 30.7885 58.6855 26.3331 58.8506 25.3003C59.1004 23.8204 61.7639 26.1207 62.2199 26.5246C62.7898 27.0225 65.293 29.5496 64.6471 30.2904L64.661 30.29Z" fill="#18181B"/>
<path d="M65.4061 48.317L66.1827 48.7535C66.5842 50.1732 61.7584 53.4363 61.2696 51.8802C61.4921 49.9287 63.8582 49.0974 65.3922 48.3174L65.4061 48.317Z" fill="#18181B"/>
<path d="M114.16 48.5588C112.752 49.3768 108.896 47.1521 109.896 45.6649C110.789 44.3335 114.765 46.8882 114.16 48.5588Z" fill="#18181B"/>
<path d="M111.098 22.9832C111.292 23.9225 110.973 23.9593 110.374 24.4071C109.013 25.4044 106.843 25.7856 105.2 26.1518C104.228 25.1929 108.231 23.2869 109.018 23.1256C109.709 22.981 110.404 22.989 111.098 22.9832Z" fill="#18181B"/>
<path d="M62.5601 38.3526L62.0593 39.3116C61.4385 39.4682 57.044 37.8562 56.5431 37.3425C56.1426 36.937 56.1236 36.7569 56.1772 36.1997C58.504 35.9391 60.3524 37.9151 62.5601 38.3526Z" fill="#18181B"/>
<path d="M63.7813 45.9736L58.1689 47.4667L58.1743 46.1883C59.5832 45.8982 63.9587 43.4121 63.7813 45.9736Z" fill="#18181B"/>
<path d="M116.501 37.1545C115.361 37.1452 114.213 37.3306 113.083 37.1821C112.805 37.1483 111.32 36.7181 111.484 36.1437C112.127 34.8056 116.866 34.8517 116.501 37.1684L116.501 37.1545Z" fill="#18181B"/>
<path d="M85.2914 27.4259C86.1638 26.8315 87.2548 27.5786 87.5331 28.571C90.1505 37.5695 88.9333 56.8471 84.7844 65.3568C80.6355 73.8665 70.0276 78.0301 61.3251 76.3876C66.4437 65.8219 71.2635 54.5143 72.0224 42.5857C72.2555 39.0501 71.3325 28.0723 73.2158 25.893C73.5118 25.5512 73.6844 25.2684 74.2012 25.3649C73.8823 29.7922 73.8369 35.0454 74.6837 39.4257C75.2861 42.5348 76.6619 43.0376 76.9212 39.4456C77.2015 35.6168 75.1962 24.1973 77.9149 21.5915C78.5103 21.0327 79.3024 21.038 79.7394 21.7481C78.194 26.5298 78.3694 32.7076 78.8734 37.7368C79.0096 39.1084 79.2099 41.2702 80.1673 42.2017C81.1037 42.3974 81.1889 38.5463 81.22 37.684C81.297 35.0142 80.1222 23.9741 82.0985 22.6259C82.93 22.0604 83.4824 22.9201 83.8611 23.5345C85.3461 25.9238 83.7301 25.7752 83.0833 27.4608C81.9821 30.2709 82.5264 36.2298 82.9189 39.2892C82.9894 39.8152 83.3392 42.3478 84.3183 41.5975C85.3921 40.7612 84.0379 28.2951 85.2918 27.4398L85.2914 27.4259Z" fill="white"/>
<path d="M95.6083 40.4155C96.1506 39.9416 95.926 29.5832 96.3437 27.6539C96.6621 26.1444 97.4967 23.2446 99.5238 24.1735C100.956 27.1479 99.9777 30.3712 99.7601 33.4758C99.6309 35.2856 99.8493 38.086 99.5353 39.7483C99.353 40.6705 97.9931 42.1957 97.5403 43.3757C97.2684 44.0781 96.0945 47.7516 97.6538 47.3739C98.6887 47.1222 100.098 42.4277 100.696 41.4937C100.856 41.253 102.621 39.3133 102.906 39.0552C103.841 38.2228 106.217 36.2796 107.173 37.6558C107.642 39.0041 104.222 43.3249 103.471 44.7773C97.4935 56.4095 106.398 66.1464 113.404 74.6034L113.271 75.7604C103.333 78.071 93.576 72.582 87.4833 64.9883C87.2605 64.4806 89.102 58.8707 89.3461 57.6828C91.1615 49.1977 90.8542 40.3282 91.3741 31.727C91.4692 30.1821 92.2016 24.6593 93.3723 23.8063C93.9983 23.3439 95.3099 24.0292 95.3816 24.5968C95.4319 24.901 94.1435 29.4392 94.0398 30.6787C93.936 31.9182 94.1147 33.3165 94.1105 34.6365C94.1062 36.4428 93.614 38.1935 94.4331 40.1293C94.5965 40.4998 95.4865 40.5301 95.6087 40.4294L95.6083 40.4155Z" fill="white"/>
<path d="M69.7542 45.1505L67.2097 38.7204C66.8047 36.6895 69.6035 38.3746 69.8585 39.0342C70.3544 40.354 69.9199 43.6453 69.7542 45.1505Z" fill="white"/>
<path d="M89.8286 24.5874L90.1943 26.7028L89.327 29.923C88.8027 27.6037 86.6032 25.985 89.842 24.5731L89.8286 24.5874Z" fill="white"/>
<path d="M46.6638 104.675V94.8747H55.1758V104.675H52.8518V96.9957H48.9878V104.675H46.6638ZM62.112 104.885C61.3606 104.885 60.6653 104.756 60.026 104.5C59.3913 104.238 58.8383 103.877 58.367 103.415C57.8956 102.953 57.5293 102.411 57.268 101.791C57.0113 101.17 56.883 100.498 56.883 99.7747C56.883 99.0467 57.0113 98.3723 57.268 97.7517C57.5293 97.131 57.8956 96.5897 58.367 96.1277C58.8383 95.6657 59.3913 95.3063 60.026 95.0497C60.6653 94.793 61.3606 94.6647 62.112 94.6647C62.868 94.6647 63.5633 94.7953 64.198 95.0567C64.8326 95.318 65.3856 95.682 65.857 96.1487C66.3283 96.6153 66.6923 97.159 66.949 97.7797C67.2103 98.3957 67.341 99.0607 67.341 99.7747C67.341 100.498 67.2103 101.17 66.949 101.791C66.6923 102.411 66.3283 102.953 65.857 103.415C65.3856 103.877 64.8326 104.238 64.198 104.5C63.5633 104.756 62.868 104.885 62.112 104.885ZM62.112 102.701C62.518 102.701 62.889 102.633 63.225 102.498C63.5656 102.362 63.862 102.166 64.114 101.91C64.366 101.653 64.5596 101.345 64.695 100.986C64.835 100.622 64.905 100.218 64.905 99.7747C64.905 99.1773 64.7836 98.6593 64.541 98.2207C64.303 97.782 63.9716 97.4437 63.547 97.2057C63.127 96.963 62.6486 96.8417 62.112 96.8417C61.7106 96.8417 61.3396 96.9117 60.999 97.0517C60.6583 97.187 60.362 97.383 60.11 97.6397C59.8626 97.8963 59.669 98.2043 59.529 98.5637C59.389 98.923 59.319 99.3267 59.319 99.7747C59.319 100.367 59.4403 100.883 59.683 101.322C59.9256 101.76 60.257 102.101 60.677 102.344C61.1016 102.582 61.58 102.701 62.112 102.701ZM69.0447 104.675V94.8747H71.2777L75.0017 101.056L74.0777 101.063L77.6197 94.8747H79.8457V104.675H77.5917L77.6337 97.8427L78.0467 97.9897L75.2187 102.827H73.6717L70.7317 97.9897L71.1307 97.8427L71.1727 104.675H69.0447ZM86.776 104.885C86.0247 104.885 85.3294 104.756 84.69 104.5C84.0554 104.238 83.5024 103.877 83.031 103.415C82.5597 102.953 82.1934 102.411 81.932 101.791C81.6754 101.17 81.547 100.498 81.547 99.7747C81.547 99.0467 81.6754 98.3723 81.932 97.7517C82.1934 97.131 82.5597 96.5897 83.031 96.1277C83.5024 95.6657 84.0554 95.3063 84.69 95.0497C85.3294 94.793 86.0247 94.6647 86.776 94.6647C87.532 94.6647 88.2274 94.7953 88.862 95.0567C89.4967 95.318 90.0497 95.682 90.521 96.1487C90.9924 96.6153 91.3564 97.159 91.613 97.7797C91.8744 98.3957 92.005 99.0607 92.005 99.7747C92.005 100.498 91.8744 101.17 91.613 101.791C91.3564 102.411 90.9924 102.953 90.521 103.415C90.0497 103.877 89.4967 104.238 88.862 104.5C88.2274 104.756 87.532 104.885 86.776 104.885ZM86.776 102.701C87.182 102.701 87.553 102.633 87.889 102.498C88.2297 102.362 88.526 102.166 88.778 101.91C89.03 101.653 89.2237 101.345 89.359 100.986C89.499 100.622 89.569 100.218 89.569 99.7747C89.569 99.1773 89.4477 98.6593 89.205 98.2207C88.967 97.782 88.6357 97.4437 88.211 97.2057C87.791 96.963 87.3127 96.8417 86.776 96.8417C86.3747 96.8417 86.0037 96.9117 85.663 97.0517C85.3224 97.187 85.026 97.383 84.774 97.6397C84.5267 97.8963 84.333 98.2043 84.193 98.5637C84.053 98.923 83.983 99.3267 83.983 99.7747C83.983 100.367 84.1044 100.883 84.347 101.322C84.5897 101.76 84.921 102.101 85.341 102.344C85.7657 102.582 86.244 102.701 86.776 102.701ZM93.7088 104.675V94.8747H99.7078V96.9957H96.0328V104.675H93.7088ZM99.3977 104.675L103.059 94.8747H105.754L109.45 104.675H106.832L106.139 102.687H102.625L101.946 104.675H99.3977ZM103.15 100.748H105.6L104.368 97.3597L103.15 100.748ZM110.648 104.675V94.8747H117.536V96.8907H112.972V98.7107H116.801V100.573H112.972V102.638H117.592V104.675H110.648ZM119.535 104.675V94.8747H121.768L125.492 101.056L124.568 101.063L128.11 94.8747H130.336V104.675H128.082L128.124 97.8427L128.537 97.9897L125.709 102.827H124.162L121.222 97.9897L121.621 97.8427L121.663 104.675H119.535ZM14.7222 122.864L13.9032 120.75C14.5238 120.638 15.0652 120.46 15.5272 120.218C15.9938 119.97 16.4068 119.634 16.7662 119.21C17.1255 118.785 17.4592 118.246 17.7672 117.593L20.0002 112.875H22.6952L19.8182 118.601C19.4588 119.324 19.0925 119.94 18.7192 120.449C18.3505 120.957 17.9608 121.38 17.5502 121.716C17.1442 122.047 16.7078 122.304 16.2412 122.486C15.7745 122.668 15.2682 122.794 14.7222 122.864ZM17.3402 119.952L13.5672 112.875H16.3812L18.9152 117.999L17.3402 119.952ZM23.7224 122.675V112.875H32.2344V122.675H29.9104V114.996H26.0464V122.675H23.7224ZM34.5506 122.675V112.875H38.4776C39.2102 112.875 39.8589 113.003 40.4236 113.26C40.9882 113.512 41.4316 113.88 41.7536 114.366C42.0802 114.851 42.2436 115.434 42.2436 116.116C42.2436 116.806 42.0942 117.392 41.7956 117.873C41.4969 118.353 41.0629 118.72 40.4936 118.972C39.9242 119.224 39.2336 119.35 38.4216 119.35H36.8746V122.675H34.5506ZM36.8746 117.404H38.3656C38.8556 117.404 39.2359 117.308 39.5066 117.117C39.7819 116.921 39.9196 116.599 39.9196 116.151C39.9196 115.703 39.7772 115.378 39.4926 115.178C39.2126 114.972 38.8416 114.87 38.3796 114.87H36.8746V117.404ZM42.2219 122.675L45.8829 112.875H48.5779L52.2739 122.675H49.6559L48.9629 120.687H45.4489L44.7699 122.675H42.2219ZM45.9739 118.748H48.4239L47.1919 115.36L45.9739 118.748ZM53.4724 122.675V112.875H57.2664C58.2651 112.875 59.0631 113.085 59.6604 113.505C60.2578 113.92 60.5564 114.538 60.5564 115.36C60.5564 115.658 60.4958 115.934 60.3744 116.186C60.2531 116.438 60.0874 116.662 59.8774 116.858C59.6721 117.049 59.4411 117.203 59.1844 117.32C59.7118 117.506 60.1364 117.817 60.4584 118.251C60.7851 118.685 60.9484 119.2 60.9484 119.798C60.9484 120.381 60.8014 120.887 60.5074 121.317C60.2181 121.746 59.8051 122.08 59.2684 122.318C58.7318 122.556 58.0948 122.675 57.3574 122.675H53.4724ZM55.7964 120.96H57.0214C57.5254 120.96 57.9034 120.857 58.1554 120.652C58.4074 120.446 58.5334 120.138 58.5334 119.728C58.5334 119.336 58.4121 119.032 58.1694 118.818C57.9314 118.598 57.5744 118.489 57.0984 118.489H55.7964V120.96ZM55.7964 116.893H56.9514C57.2314 116.893 57.4718 116.846 57.6724 116.753C57.8778 116.659 58.0341 116.524 58.1414 116.347C58.2534 116.169 58.3094 115.957 58.3094 115.71C58.3094 115.35 58.1881 115.073 57.9454 114.877C57.7074 114.681 57.3644 114.583 56.9164 114.583H55.7964V116.893ZM62.4856 122.864L61.7296 120.743C62.0423 120.645 62.3083 120.535 62.5276 120.414C62.7516 120.288 62.9359 120.122 63.0806 119.917C63.2253 119.707 63.3373 119.429 63.4166 119.084C63.5006 118.738 63.5566 118.3 63.5846 117.768C63.6173 117.231 63.6336 116.571 63.6336 115.787V112.875H71.0186V122.675H68.6946V114.996H65.8316V115.682C65.8316 116.685 65.7989 117.558 65.7336 118.3C65.6729 119.042 65.5679 119.676 65.4186 120.204C65.2693 120.731 65.0663 121.17 64.8096 121.52C64.5529 121.87 64.2333 122.152 63.8506 122.367C63.4726 122.581 63.0176 122.747 62.4856 122.864ZM72.505 122.675L75.137 118.699C74.4837 118.479 73.9703 118.139 73.597 117.677C73.2283 117.215 73.044 116.652 73.044 115.99C73.044 115.308 73.198 114.737 73.506 114.275C73.814 113.813 74.2503 113.465 74.815 113.232C75.3797 112.994 76.04 112.875 76.796 112.875H80.632V122.675H78.308V119.07H77.419L75.165 122.675H72.505ZM76.894 117.208H78.308V114.786H76.929C76.453 114.786 76.0773 114.881 75.802 115.073C75.5267 115.259 75.389 115.563 75.389 115.983C75.389 116.403 75.5197 116.713 75.781 116.914C76.0423 117.11 76.4133 117.208 76.894 117.208ZM84.6573 122.675V114.996H82.0463V112.875H89.6063V114.996H86.9953V122.675H84.6573ZM91.0291 122.675V112.875H93.3531V116.2H94.9561C95.6841 116.2 96.3304 116.328 96.8951 116.585C97.4644 116.837 97.9101 117.205 98.2321 117.691C98.5587 118.176 98.7221 118.759 98.7221 119.441C98.7221 119.954 98.6381 120.411 98.4701 120.813C98.3021 121.214 98.0524 121.555 97.7211 121.835C97.3944 122.11 96.9954 122.32 96.5241 122.465C96.0527 122.605 95.5114 122.675 94.9001 122.675H91.0291ZM93.3531 120.729H94.8441C95.3341 120.729 95.7144 120.633 95.9851 120.442C96.2604 120.246 96.3981 119.924 96.3981 119.476C96.3981 119.028 96.2557 118.703 95.9711 118.503C95.6911 118.297 95.3201 118.195 94.8581 118.195H93.3531V120.729ZM103.457 122.675V112.875H105.76V119L109.729 112.875H112.039V122.675H109.736V116.473L105.753 122.675H103.457ZM117.58 122.675V112.875H121.507C122.24 112.875 122.888 113.003 123.453 113.26C124.018 113.512 124.461 113.88 124.783 114.366C125.11 114.851 125.273 115.434 125.273 116.116C125.273 116.806 125.124 117.392 124.825 117.873C124.526 118.353 124.092 118.72 123.523 118.972C122.954 119.224 122.263 119.35 121.451 119.35H119.904V122.675H117.58ZM119.904 117.404H121.395C121.885 117.404 122.265 117.308 122.536 117.117C122.811 116.921 122.949 116.599 122.949 116.151C122.949 115.703 122.807 115.378 122.522 115.178C122.242 114.972 121.871 114.87 121.409 114.87H119.904V117.404ZM125.251 122.675L128.912 112.875H131.607L135.303 122.675H132.685L131.992 120.687H128.478L127.799 122.675H125.251ZM129.003 118.748H131.453L130.221 115.36L129.003 118.748ZM140.764 122.885C139.752 122.885 138.858 122.677 138.083 122.262C137.309 121.846 136.704 121.258 136.27 120.498C135.836 119.737 135.619 118.839 135.619 117.803C135.619 117.047 135.745 116.356 135.997 115.731C136.254 115.101 136.613 114.557 137.075 114.1C137.542 113.642 138.09 113.29 138.72 113.043C139.355 112.791 140.048 112.665 140.799 112.665C141.616 112.665 142.302 112.767 142.857 112.973C143.413 113.178 143.914 113.47 144.362 113.848L143.2 115.759C142.93 115.479 142.603 115.271 142.22 115.136C141.838 114.996 141.415 114.926 140.953 114.926C140.496 114.926 140.088 114.993 139.728 115.129C139.374 115.259 139.07 115.448 138.818 115.696C138.571 115.943 138.382 116.242 138.251 116.592C138.121 116.942 138.055 117.334 138.055 117.768C138.055 118.365 138.172 118.876 138.405 119.301C138.643 119.725 138.982 120.052 139.42 120.281C139.859 120.505 140.384 120.617 140.995 120.617C141.434 120.617 141.868 120.551 142.297 120.421C142.731 120.285 143.142 120.068 143.529 119.77L144.593 121.723C144.141 122.073 143.599 122.355 142.969 122.57C142.339 122.78 141.604 122.885 140.764 122.885ZM147.726 122.675V114.996H145.115V112.875H152.675V114.996H150.064V122.675H147.726ZM154.097 122.675V112.875H156.4V119L160.369 112.875H162.679V122.675H160.376V116.473L156.393 122.675H154.097Z" fill="#18181B"/>
<path d="M31.3909 145.175V136.775H32.6929L36.1189 142.349L35.5969 142.355L38.8969 136.775H40.1749V145.175H38.8609L38.8789 138.563L39.1369 138.653L36.2809 143.363H35.2969L32.3869 138.653L32.6029 138.563L32.6209 145.175H31.3909ZM42.1856 145.175V139.235H43.5056V144.173H44.5796C45.0116 144.173 45.3376 144.089 45.5576 143.921C45.7776 143.753 45.8876 143.503 45.8876 143.171C45.8876 142.843 45.7856 142.591 45.5816 142.415C45.3776 142.239 45.0776 142.151 44.6816 142.151H43.3256V141.161H44.7836C45.5516 141.161 46.1556 141.333 46.5956 141.677C47.0356 142.021 47.2556 142.519 47.2556 143.171C47.2556 143.591 47.1496 143.951 46.9376 144.251C46.7256 144.547 46.4276 144.775 46.0436 144.935C45.6636 145.095 45.2176 145.175 44.7056 145.175H42.1856ZM48.2096 145.175V139.235H49.5296V145.175H48.2096ZM54.3028 145.175V139.235H55.6228V141.527H58.5988V139.235H59.9188V145.175H58.5988V142.619H55.6228V145.175H54.3028ZM64.4679 145.355C63.8279 145.355 63.2659 145.225 62.7819 144.965C62.2979 144.701 61.9199 144.333 61.6479 143.861C61.3799 143.389 61.2459 142.841 61.2459 142.217C61.2459 141.761 61.3239 141.341 61.4799 140.957C61.6359 140.569 61.8559 140.233 62.1399 139.949C62.4239 139.665 62.7559 139.445 63.1359 139.289C63.5199 139.133 63.9379 139.055 64.3899 139.055C64.8819 139.055 65.3199 139.143 65.7039 139.319C66.0879 139.491 66.4059 139.733 66.6579 140.045C66.9139 140.357 67.0939 140.723 67.1979 141.143C67.3059 141.559 67.3239 142.011 67.2519 142.499H62.5119C62.5039 142.855 62.5819 143.167 62.7459 143.435C62.9099 143.699 63.1439 143.905 63.4479 144.053C63.7559 144.201 64.1179 144.275 64.5339 144.275C64.8699 144.275 65.1939 144.225 65.5059 144.125C65.8219 144.021 66.1079 143.869 66.3639 143.669L66.8739 144.617C66.6819 144.773 66.4499 144.907 66.1779 145.019C65.9059 145.127 65.6219 145.209 65.3259 145.265C65.0299 145.325 64.7439 145.355 64.4679 145.355ZM62.5899 141.527H65.9559C65.9439 141.079 65.7999 140.727 65.5239 140.471C65.2519 140.215 64.8639 140.087 64.3599 140.087C63.8719 140.087 63.4659 140.215 63.1419 140.471C62.8219 140.727 62.6379 141.079 62.5899 141.527ZM71.5645 145.175V139.235H77.1745V145.175H75.8545V140.327H72.8845V145.175H71.5645ZM79.0059 147.695V139.235H80.1939V140.069C80.4299 139.769 80.7319 139.525 81.0999 139.337C81.4679 139.149 81.9219 139.055 82.4619 139.055C83.0419 139.055 83.5559 139.193 84.0039 139.469C84.4559 139.741 84.8079 140.115 85.0599 140.591C85.3119 141.063 85.4379 141.601 85.4379 142.205C85.4379 142.641 85.3659 143.051 85.2219 143.435C85.0779 143.815 84.8719 144.149 84.6039 144.437C84.3399 144.725 84.0239 144.951 83.6559 145.115C83.2919 145.275 82.8879 145.355 82.4439 145.355C81.9799 145.355 81.5719 145.271 81.2199 145.103C80.8679 144.935 80.5679 144.709 80.3199 144.425V147.695H79.0059ZM82.2219 144.185C82.5899 144.185 82.9159 144.105 83.1999 143.945C83.4879 143.781 83.7119 143.551 83.8719 143.255C84.0359 142.959 84.1179 142.609 84.1179 142.205C84.1179 141.801 84.0359 141.451 83.8719 141.155C83.7079 140.855 83.4819 140.625 83.1939 140.465C82.9099 140.305 82.5859 140.225 82.2219 140.225C81.8539 140.225 81.5259 140.305 81.2379 140.465C80.9539 140.625 80.7299 140.855 80.5659 141.155C80.4019 141.451 80.3199 141.801 80.3199 142.205C80.3199 142.609 80.4019 142.959 80.5659 143.255C80.7299 143.551 80.9539 143.781 81.2379 143.945C81.5259 144.105 81.8539 144.185 82.2219 144.185ZM89.5283 145.355C88.9083 145.355 88.3543 145.213 87.8663 144.929C87.3823 144.641 87.0023 144.259 86.7263 143.783C86.4503 143.303 86.3123 142.777 86.3123 142.205C86.3123 141.781 86.3903 141.381 86.5463 141.005C86.7063 140.625 86.9303 140.289 87.2183 139.997C87.5103 139.705 87.8523 139.475 88.2443 139.307C88.6363 139.139 89.0663 139.055 89.5343 139.055C90.1543 139.055 90.7063 139.199 91.1903 139.487C91.6783 139.771 92.0603 140.153 92.3363 140.633C92.6123 141.109 92.7503 141.633 92.7503 142.205C92.7503 142.625 92.6703 143.025 92.5103 143.405C92.3543 143.785 92.1323 144.121 91.8443 144.413C91.5563 144.705 91.2163 144.935 90.8243 145.103C90.4323 145.271 90.0003 145.355 89.5283 145.355ZM89.5283 144.185C89.8963 144.185 90.2223 144.105 90.5063 143.945C90.7943 143.781 91.0203 143.551 91.1843 143.255C91.3483 142.959 91.4303 142.609 91.4303 142.205C91.4303 141.801 91.3483 141.451 91.1843 141.155C91.0203 140.855 90.7943 140.625 90.5063 140.465C90.2223 140.305 89.8963 140.225 89.5283 140.225C89.1603 140.225 88.8323 140.305 88.5443 140.465C88.2603 140.625 88.0363 140.855 87.8723 141.155C87.7123 141.451 87.6323 141.801 87.6323 142.205C87.6323 142.609 87.7143 142.959 87.8783 143.255C88.0423 143.551 88.2663 143.781 88.5503 143.945C88.8383 144.105 89.1643 144.185 89.5283 144.185ZM96.8588 145.355C96.2348 145.355 95.6788 145.219 95.1908 144.947C94.7028 144.671 94.3188 144.297 94.0388 143.825C93.7628 143.349 93.6248 142.809 93.6248 142.205C93.6248 141.749 93.7068 141.331 93.8708 140.951C94.0348 140.567 94.2668 140.233 94.5668 139.949C94.8668 139.665 95.2188 139.445 95.6228 139.289C96.0308 139.133 96.4728 139.055 96.9488 139.055C97.3488 139.055 97.7188 139.109 98.0588 139.217C98.4028 139.321 98.7188 139.483 99.0068 139.703L98.3708 140.711C98.1868 140.547 97.9748 140.425 97.7348 140.345C97.4988 140.265 97.2468 140.225 96.9788 140.225C96.5628 140.225 96.2048 140.303 95.9048 140.459C95.6048 140.615 95.3708 140.841 95.2028 141.137C95.0388 141.429 94.9568 141.783 94.9568 142.199C94.9568 142.819 95.1368 143.305 95.4968 143.657C95.8608 144.009 96.3548 144.185 96.9788 144.185C97.2748 144.185 97.5548 144.131 97.8188 144.023C98.0828 143.911 98.3028 143.765 98.4788 143.585L99.1088 144.587C98.7928 144.827 98.4408 145.015 98.0528 145.151C97.6648 145.287 97.2668 145.355 96.8588 145.355ZM101.648 145.175V140.327H99.6983V139.235H104.924V140.327H102.968V145.175H101.648ZM108.841 145.355C108.221 145.355 107.667 145.213 107.179 144.929C106.695 144.641 106.315 144.259 106.039 143.783C105.763 143.303 105.625 142.777 105.625 142.205C105.625 141.781 105.703 141.381 105.859 141.005C106.019 140.625 106.243 140.289 106.531 139.997C106.823 139.705 107.165 139.475 107.557 139.307C107.949 139.139 108.379 139.055 108.847 139.055C109.467 139.055 110.019 139.199 110.503 139.487C110.991 139.771 111.373 140.153 111.649 140.633C111.925 141.109 112.063 141.633 112.063 142.205C112.063 142.625 111.983 143.025 111.823 143.405C111.667 143.785 111.445 144.121 111.157 144.413C110.869 144.705 110.529 144.935 110.137 145.103C109.745 145.271 109.313 145.355 108.841 145.355ZM108.841 144.185C109.209 144.185 109.535 144.105 109.819 143.945C110.107 143.781 110.333 143.551 110.497 143.255C110.661 142.959 110.743 142.609 110.743 142.205C110.743 141.801 110.661 141.451 110.497 141.155C110.333 140.855 110.107 140.625 109.819 140.465C109.535 140.305 109.209 140.225 108.841 140.225C108.473 140.225 108.145 140.305 107.857 140.465C107.573 140.625 107.349 140.855 107.185 141.155C107.025 141.451 106.945 141.801 106.945 142.205C106.945 142.609 107.027 142.959 107.191 143.255C107.355 143.551 107.579 143.781 107.863 143.945C108.151 144.105 108.477 144.185 108.841 144.185ZM120.644 145.175V140.327H118.244V141.113C118.244 141.653 118.212 142.141 118.148 142.577C118.084 143.013 117.97 143.397 117.806 143.729C117.642 144.057 117.412 144.329 117.116 144.545C116.824 144.761 116.45 144.919 115.994 145.019L115.67 144.125C116.05 144.033 116.336 143.861 116.528 143.609C116.72 143.357 116.848 143.025 116.912 142.613C116.98 142.197 117.014 141.697 117.014 141.113V139.235H121.964V145.175H120.644ZM115.67 146.975V144.125L116.486 144.209L116.69 144.083H123.158V146.975H121.952V145.175H116.876V146.975H115.67ZM126.743 145.355C126.151 145.355 125.627 145.219 125.171 144.947C124.719 144.671 124.363 144.297 124.103 143.825C123.847 143.349 123.719 142.809 123.719 142.205C123.719 141.753 123.793 141.335 123.941 140.951C124.089 140.567 124.297 140.233 124.565 139.949C124.833 139.665 125.153 139.445 125.525 139.289C125.897 139.133 126.303 139.055 126.743 139.055C127.327 139.055 127.815 139.179 128.207 139.427C128.603 139.675 128.905 139.995 129.113 140.387L128.927 140.669V139.235H130.103V145.175H128.927V143.741L129.113 144.023C128.905 144.415 128.603 144.735 128.207 144.983C127.815 145.231 127.327 145.355 126.743 145.355ZM126.917 144.185C127.277 144.185 127.599 144.105 127.883 143.945C128.167 143.781 128.389 143.551 128.549 143.255C128.713 142.959 128.795 142.609 128.795 142.205C128.795 141.801 128.713 141.451 128.549 141.155C128.389 140.855 128.167 140.625 127.883 140.465C127.599 140.305 127.277 140.225 126.917 140.225C126.553 140.225 126.229 140.305 125.945 140.465C125.665 140.625 125.443 140.855 125.279 141.155C125.115 141.451 125.033 141.801 125.033 142.205C125.033 142.609 125.115 142.959 125.279 143.255C125.443 143.551 125.665 143.781 125.945 143.945C126.229 144.105 126.553 144.185 126.917 144.185ZM134.652 145.355C134.012 145.355 133.45 145.225 132.966 144.965C132.482 144.701 132.104 144.333 131.832 143.861C131.564 143.389 131.43 142.841 131.43 142.217C131.43 141.761 131.508 141.341 131.664 140.957C131.82 140.569 132.04 140.233 132.324 139.949C132.608 139.665 132.94 139.445 133.32 139.289C133.704 139.133 134.122 139.055 134.574 139.055C135.066 139.055 135.504 139.143 135.888 139.319C136.272 139.491 136.59 139.733 136.842 140.045C137.098 140.357 137.278 140.723 137.382 141.143C137.49 141.559 137.508 142.011 137.436 142.499H132.696C132.688 142.855 132.766 143.167 132.93 143.435C133.094 143.699 133.328 143.905 133.632 144.053C133.94 144.201 134.302 144.275 134.718 144.275C135.054 144.275 135.378 144.225 135.69 144.125C136.006 144.021 136.292 143.869 136.548 143.669L137.058 144.617C136.866 144.773 136.634 144.907 136.362 145.019C136.09 145.127 135.806 145.209 135.51 145.265C135.214 145.325 134.928 145.355 134.652 145.355ZM132.774 141.527H136.14C136.128 141.079 135.984 140.727 135.708 140.471C135.436 140.215 135.048 140.087 134.544 140.087C134.056 140.087 133.65 140.215 133.326 140.471C133.006 140.727 132.822 141.079 132.774 141.527ZM138.807 145.175V139.235H139.953H139.989L142.653 143.087L142.083 143.099L144.615 139.235H145.785V145.175H144.585L144.603 140.783L144.849 140.891L142.725 143.993H141.873L139.653 140.885L139.899 140.777L139.917 145.175H138.807ZM31.3297 160.175V155.327H28.9297V156.113C28.9297 156.653 28.8977 157.141 28.8337 157.577C28.7697 158.013 28.6557 158.397 28.4917 158.729C28.3277 159.057 28.0977 159.329 27.8017 159.545C27.5097 159.761 27.1357 159.919 26.6797 160.019L26.3557 159.125C26.7357 159.033 27.0217 158.861 27.2137 158.609C27.4057 158.357 27.5337 158.025 27.5977 157.613C27.6657 157.197 27.6997 156.697 27.6997 156.113V154.235H32.6497V160.175H31.3297ZM26.3557 161.975V159.125L27.1717 159.209L27.3757 159.083H33.8437V161.975H32.6377V160.175H27.5617V161.975H26.3557ZM37.6261 160.355C36.9861 160.355 36.4241 160.225 35.9401 159.965C35.4561 159.701 35.0781 159.333 34.8061 158.861C34.5381 158.389 34.4041 157.841 34.4041 157.217C34.4041 156.761 34.4821 156.341 34.6381 155.957C34.7941 155.569 35.0141 155.233 35.2981 154.949C35.5821 154.665 35.9141 154.445 36.2941 154.289C36.6781 154.133 37.0961 154.055 37.5481 154.055C38.0401 154.055 38.4781 154.143 38.8621 154.319C39.2461 154.491 39.5641 154.733 39.8161 155.045C40.0721 155.357 40.2521 155.723 40.3561 156.143C40.4641 156.559 40.4821 157.011 40.4101 157.499H35.6701C35.6621 157.855 35.7401 158.167 35.9041 158.435C36.0681 158.699 36.3021 158.905 36.6061 159.053C36.9141 159.201 37.2761 159.275 37.6921 159.275C38.0281 159.275 38.3521 159.225 38.6641 159.125C38.9801 159.021 39.2661 158.869 39.5221 158.669L40.0321 159.617C39.8401 159.773 39.6081 159.907 39.3361 160.019C39.0641 160.127 38.7801 160.209 38.4841 160.265C38.1881 160.325 37.9021 160.355 37.6261 160.355ZM35.7481 156.527H39.1141C39.1021 156.079 38.9581 155.727 38.6821 155.471C38.4101 155.215 38.0221 155.087 37.5181 155.087C37.0301 155.087 36.6241 155.215 36.3001 155.471C35.9801 155.727 35.7961 156.079 35.7481 156.527ZM41.7813 160.175V154.235H43.1013V156.527H46.0773V154.235H47.3973V160.175H46.0773V157.619H43.1013V160.175H41.7813ZM49.2345 160.175V154.235H50.5545V159.173H51.6885C52.1205 159.173 52.4465 159.089 52.6665 158.921C52.8865 158.753 52.9965 158.503 52.9965 158.171C52.9965 157.843 52.8945 157.591 52.6905 157.415C52.4865 157.239 52.1865 157.151 51.7905 157.151H50.3745V156.161H51.8925C52.6605 156.161 53.2645 156.333 53.7045 156.677C54.1445 157.021 54.3645 157.519 54.3645 158.171C54.3645 158.591 54.2585 158.951 54.0465 159.251C53.8345 159.547 53.5365 159.775 53.1525 159.935C52.7725 160.095 52.3265 160.175 51.8145 160.175H49.2345ZM55.7501 160.175V154.235H59.6621V155.327H57.0701V160.175H55.7501ZM60.8829 160.175V154.235H62.1609V158.243L65.3829 154.235H66.5349V160.175H65.2629V156.119L62.0109 160.175H60.8829ZM68.3172 161.987L67.8552 161.375C68.1552 161.231 68.4192 161.057 68.6472 160.853C68.8792 160.653 69.0372 160.455 69.1212 160.259C68.9372 160.271 68.7712 160.243 68.6232 160.175C68.4752 160.111 68.3572 160.017 68.2692 159.893C68.1812 159.765 68.1372 159.615 68.1372 159.443C68.1372 159.187 68.2212 158.979 68.3892 158.819C68.5612 158.655 68.7772 158.573 69.0372 158.573C69.3372 158.573 69.5772 158.673 69.7572 158.873C69.9412 159.069 70.0332 159.339 70.0332 159.683C70.0332 159.947 69.9692 160.213 69.8412 160.481C69.7132 160.753 69.5212 161.015 69.2652 161.267C69.0132 161.523 68.6972 161.763 68.3172 161.987ZM74.5352 160.175V154.235H75.8552V156.527H78.8312V154.235H80.1512V160.175H78.8312V157.619H75.8552V160.175H74.5352ZM84.6944 160.355C84.0744 160.355 83.5204 160.213 83.0324 159.929C82.5484 159.641 82.1684 159.259 81.8924 158.783C81.6164 158.303 81.4784 157.777 81.4784 157.205C81.4784 156.781 81.5564 156.381 81.7124 156.005C81.8724 155.625 82.0964 155.289 82.3844 154.997C82.6764 154.705 83.0184 154.475 83.4104 154.307C83.8024 154.139 84.2324 154.055 84.7004 154.055C85.3204 154.055 85.8724 154.199 86.3564 154.487C86.8444 154.771 87.2264 155.153 87.5024 155.633C87.7784 156.109 87.9164 156.633 87.9164 157.205C87.9164 157.625 87.8364 158.025 87.6764 158.405C87.5204 158.785 87.2984 159.121 87.0104 159.413C86.7224 159.705 86.3824 159.935 85.9904 160.103C85.5984 160.271 85.1664 160.355 84.6944 160.355ZM84.6944 159.185C85.0624 159.185 85.3884 159.105 85.6724 158.945C85.9604 158.781 86.1864 158.551 86.3504 158.255C86.5144 157.959 86.5964 157.609 86.5964 157.205C86.5964 156.801 86.5144 156.451 86.3504 156.155C86.1864 155.855 85.9604 155.625 85.6724 155.465C85.3884 155.305 85.0624 155.225 84.6944 155.225C84.3264 155.225 83.9984 155.305 83.7104 155.465C83.4264 155.625 83.2024 155.855 83.0384 156.155C82.8784 156.451 82.7984 156.801 82.7984 157.205C82.7984 157.609 82.8804 157.959 83.0444 158.255C83.2084 158.551 83.4324 158.781 83.7164 158.945C84.0044 159.105 84.3304 159.185 84.6944 159.185ZM92.1837 160.175V154.235H93.4617V158.243L96.6837 154.235H97.8357V160.175H96.5637V156.119L93.3117 160.175H92.1837ZM105.127 160.355C104.535 160.355 104.011 160.219 103.555 159.947C103.103 159.671 102.747 159.297 102.487 158.825C102.231 158.349 102.103 157.809 102.103 157.205C102.103 156.753 102.177 156.335 102.325 155.951C102.473 155.567 102.681 155.233 102.949 154.949C103.217 154.665 103.537 154.445 103.909 154.289C104.281 154.133 104.687 154.055 105.127 154.055C105.711 154.055 106.199 154.179 106.591 154.427C106.987 154.675 107.289 154.995 107.497 155.387L107.311 155.669V154.235H108.487V160.175H107.311V158.741L107.497 159.023C107.289 159.415 106.987 159.735 106.591 159.983C106.199 160.231 105.711 160.355 105.127 160.355ZM105.301 159.185C105.661 159.185 105.983 159.105 106.267 158.945C106.551 158.781 106.773 158.551 106.933 158.255C107.097 157.959 107.179 157.609 107.179 157.205C107.179 156.801 107.097 156.451 106.933 156.155C106.773 155.855 106.551 155.625 106.267 155.465C105.983 155.305 105.661 155.225 105.301 155.225C104.937 155.225 104.613 155.305 104.329 155.465C104.049 155.625 103.827 155.855 103.663 156.155C103.499 156.451 103.417 156.801 103.417 157.205C103.417 157.609 103.499 157.959 103.663 158.255C103.827 158.551 104.049 158.781 104.329 158.945C104.613 159.105 104.937 159.185 105.301 159.185ZM114.272 160.175L112.304 157.019L114.134 154.235H115.544L113.726 156.959L115.85 160.175H114.272ZM110.324 160.175V154.235H111.644V156.527H113.432V157.619H111.644V160.175H110.324ZM118.342 160.175V155.327H116.392V154.235H121.618V155.327H119.662V160.175H118.342ZM122.828 160.175V154.235H124.106V158.243L127.328 154.235H128.48V160.175H127.208V156.119L123.956 160.175H122.828ZM130.316 160.175V154.235H133.148C133.82 154.235 134.358 154.363 134.762 154.619C135.166 154.875 135.368 155.259 135.368 155.771C135.368 156.011 135.31 156.225 135.194 156.413C135.078 156.597 134.918 156.751 134.714 156.875C134.51 156.999 134.272 157.089 134 157.145L133.976 156.851C134.5 156.923 134.906 157.097 135.194 157.373C135.482 157.649 135.626 157.999 135.626 158.423C135.626 158.783 135.532 159.095 135.344 159.359C135.156 159.619 134.886 159.821 134.534 159.965C134.182 160.105 133.76 160.175 133.268 160.175H130.316ZM131.594 159.197H133.088C133.484 159.197 133.788 159.131 134 158.999C134.216 158.867 134.324 158.669 134.324 158.405C134.324 158.145 134.218 157.951 134.006 157.823C133.794 157.691 133.488 157.625 133.088 157.625H131.42V156.683H132.95C133.322 156.683 133.61 156.627 133.814 156.515C134.018 156.399 134.12 156.211 134.12 155.951C134.12 155.691 134.018 155.503 133.814 155.387C133.61 155.267 133.322 155.207 132.95 155.207H131.594V159.197ZM137.113 160.175V154.235H138.433V156.527H141.409V154.235H142.729V160.175H141.409V157.619H138.433V160.175H137.113ZM147.272 160.355C146.652 160.355 146.098 160.213 145.61 159.929C145.126 159.641 144.746 159.259 144.47 158.783C144.194 158.303 144.056 157.777 144.056 157.205C144.056 156.781 144.134 156.381 144.29 156.005C144.45 155.625 144.674 155.289 144.962 154.997C145.254 154.705 145.596 154.475 145.988 154.307C146.38 154.139 146.81 154.055 147.278 154.055C147.898 154.055 148.45 154.199 148.934 154.487C149.422 154.771 149.804 155.153 150.08 155.633C150.356 156.109 150.494 156.633 150.494 157.205C150.494 157.625 150.414 158.025 150.254 158.405C150.098 158.785 149.876 159.121 149.588 159.413C149.3 159.705 148.96 159.935 148.568 160.103C148.176 160.271 147.744 160.355 147.272 160.355ZM147.272 159.185C147.64 159.185 147.966 159.105 148.25 158.945C148.538 158.781 148.764 158.551 148.928 158.255C149.092 157.959 149.174 157.609 149.174 157.205C149.174 156.801 149.092 156.451 148.928 156.155C148.764 155.855 148.538 155.625 148.25 155.465C147.966 155.305 147.64 155.225 147.272 155.225C146.904 155.225 146.576 155.305 146.288 155.465C146.004 155.625 145.78 155.855 145.616 156.155C145.456 156.451 145.376 156.801 145.376 157.205C145.376 157.609 145.458 157.959 145.622 158.255C145.786 158.551 146.01 158.781 146.294 158.945C146.582 159.105 146.908 159.185 147.272 159.185ZM50.8399 175.175V169.235H53.6719C54.3439 169.235 54.8819 169.363 55.2859 169.619C55.6899 169.875 55.8919 170.259 55.8919 170.771C55.8919 171.011 55.8339 171.225 55.7179 171.413C55.6019 171.597 55.4419 171.751 55.2379 171.875C55.0339 171.999 54.7959 172.089 54.5239 172.145L54.4999 171.851C55.0239 171.923 55.4299 172.097 55.7179 172.373C56.0059 172.649 56.1499 172.999 56.1499 173.423C56.1499 173.783 56.0559 174.095 55.8679 174.359C55.6799 174.619 55.4099 174.821 55.0579 174.965C54.7059 175.105 54.2839 175.175 53.7919 175.175H50.8399ZM52.1179 174.197H53.6119C54.0079 174.197 54.3119 174.131 54.5239 173.999C54.7399 173.867 54.8479 173.669 54.8479 173.405C54.8479 173.145 54.7419 172.951 54.5299 172.823C54.3179 172.691 54.0119 172.625 53.6119 172.625H51.9439V171.683H53.4739C53.8459 171.683 54.1339 171.627 54.3379 171.515C54.5419 171.399 54.6439 171.211 54.6439 170.951C54.6439 170.691 54.5419 170.503 54.3379 170.387C54.1339 170.267 53.8459 170.207 53.4739 170.207H52.1179V174.197ZM61.5848 175.175L59.6168 172.019L61.4468 169.235H62.8568L61.0388 171.959L63.1628 175.175H61.5848ZM57.6368 175.175V169.235H58.9568V171.527H60.7448V172.619H58.9568V175.175H57.6368ZM64.1122 175.277L63.6502 174.089C64.0582 173.985 64.3562 173.821 64.5442 173.597C64.7362 173.373 64.8562 173.061 64.9042 172.661C64.9562 172.261 64.9822 171.745 64.9822 171.113V169.235H69.8122V175.175H68.4922V170.327H66.2122V171.113C66.2122 171.749 66.1822 172.303 66.1222 172.775C66.0662 173.247 65.9622 173.649 65.8102 173.981C65.6582 174.313 65.4442 174.585 65.1682 174.797C64.8962 175.005 64.5442 175.165 64.1122 175.277ZM71.6524 175.175V169.235H72.9724L72.9664 171.527H74.9764V172.619H72.9664L72.9724 175.175H71.6524ZM77.4664 175.355C76.8424 175.355 76.2884 175.213 75.8044 174.929C75.3204 174.641 74.9384 174.259 74.6584 173.783C74.3824 173.303 74.2444 172.777 74.2444 172.205C74.2444 171.781 74.3244 171.381 74.4844 171.005C74.6444 170.625 74.8684 170.289 75.1564 169.997C75.4444 169.705 75.7844 169.475 76.1764 169.307C76.5684 169.139 76.9984 169.055 77.4664 169.055C78.0904 169.055 78.6444 169.199 79.1284 169.487C79.6124 169.771 79.9924 170.153 80.2684 170.633C80.5484 171.109 80.6884 171.633 80.6884 172.205C80.6884 172.625 80.6084 173.025 80.4484 173.405C80.2884 173.785 80.0644 174.121 79.7764 174.413C79.4884 174.705 79.1484 174.935 78.7564 175.103C78.3644 175.271 77.9344 175.355 77.4664 175.355ZM77.4664 174.185C77.8344 174.185 78.1604 174.105 78.4444 173.945C78.7284 173.781 78.9524 173.551 79.1164 173.255C79.2804 172.959 79.3624 172.609 79.3624 172.205C79.3624 171.801 79.2804 171.451 79.1164 171.155C78.9524 170.855 78.7284 170.625 78.4444 170.465C78.1604 170.305 77.8344 170.225 77.4664 170.225C77.0984 170.225 76.7704 170.305 76.4824 170.465C76.1984 170.625 75.9744 170.855 75.8104 171.155C75.6504 171.451 75.5704 171.801 75.5704 172.205C75.5704 172.609 75.6504 172.959 75.8104 173.255C75.9744 173.551 76.1984 173.781 76.4824 173.945C76.7704 174.105 77.0984 174.185 77.4664 174.185ZM85.615 175.175V172.853C85.335 172.925 85.069 172.979 84.817 173.015C84.569 173.051 84.307 173.069 84.031 173.069C83.499 173.069 83.051 172.987 82.687 172.823C82.323 172.659 82.049 172.411 81.865 172.079C81.681 171.747 81.589 171.329 81.589 170.825V169.235H82.909V170.639C82.909 171.063 83.011 171.385 83.215 171.605C83.419 171.825 83.767 171.935 84.259 171.935C84.543 171.935 84.791 171.923 85.003 171.899C85.219 171.871 85.423 171.837 85.615 171.797V169.235H86.935V175.175H85.615ZM91.2875 175.355C90.6955 175.355 90.1715 175.219 89.7155 174.947C89.2635 174.671 88.9075 174.297 88.6475 173.825C88.3915 173.349 88.2635 172.809 88.2635 172.205C88.2635 171.753 88.3375 171.335 88.4855 170.951C88.6335 170.567 88.8415 170.233 89.1095 169.949C89.3775 169.665 89.6975 169.445 90.0695 169.289C90.4415 169.133 90.8475 169.055 91.2875 169.055C91.8715 169.055 92.3595 169.179 92.7515 169.427C93.1475 169.675 93.4495 169.995 93.6575 170.387L93.4715 170.669V169.235H94.6475V175.175H93.4715V173.741L93.6575 174.023C93.4495 174.415 93.1475 174.735 92.7515 174.983C92.3595 175.231 91.8715 175.355 91.2875 175.355ZM91.4615 174.185C91.8215 174.185 92.1435 174.105 92.4275 173.945C92.7115 173.781 92.9335 173.551 93.0935 173.255C93.2575 172.959 93.3395 172.609 93.3395 172.205C93.3395 171.801 93.2575 171.451 93.0935 171.155C92.9335 170.855 92.7115 170.625 92.4275 170.465C92.1435 170.305 91.8215 170.225 91.4615 170.225C91.0975 170.225 90.7735 170.305 90.4895 170.465C90.2095 170.625 89.9875 170.855 89.8235 171.155C89.6595 171.451 89.5775 171.801 89.5775 172.205C89.5775 172.609 89.6595 172.959 89.8235 173.255C89.9875 173.551 90.2095 173.781 90.4895 173.945C90.7735 174.105 91.0975 174.185 91.4615 174.185ZM99.1965 175.355C98.5565 175.355 97.9945 175.225 97.5105 174.965C97.0265 174.701 96.6485 174.333 96.3765 173.861C96.1085 173.389 95.9745 172.841 95.9745 172.217C95.9745 171.761 96.0525 171.341 96.2085 170.957C96.3645 170.569 96.5845 170.233 96.8685 169.949C97.1525 169.665 97.4845 169.445 97.8645 169.289C98.2485 169.133 98.6665 169.055 99.1185 169.055C99.6105 169.055 100.048 169.143 100.432 169.319C100.816 169.491 101.134 169.733 101.386 170.045C101.642 170.357 101.822 170.723 101.926 171.143C102.034 171.559 102.052 172.011 101.98 172.499H97.2405C97.2325 172.855 97.3105 173.167 97.4745 173.435C97.6385 173.699 97.8725 173.905 98.1765 174.053C98.4845 174.201 98.8465 174.275 99.2625 174.275C99.5985 174.275 99.9225 174.225 100.234 174.125C100.55 174.021 100.836 173.869 101.092 173.669L101.602 174.617C101.41 174.773 101.178 174.907 100.906 175.019C100.634 175.127 100.35 175.209 100.054 175.265C99.7585 175.325 99.4725 175.355 99.1965 175.355ZM97.3185 171.527H100.684C100.672 171.079 100.528 170.727 100.252 170.471C99.9805 170.215 99.5925 170.087 99.0885 170.087C98.6005 170.087 98.1945 170.215 97.8705 170.471C97.5505 170.727 97.3665 171.079 97.3185 171.527ZM103.352 175.175V169.235H104.498H104.534L107.198 173.087L106.628 173.099L109.16 169.235H110.33V175.175H109.13L109.148 170.783L109.394 170.891L107.27 173.993H106.418L104.198 170.885L104.444 170.777L104.462 175.175H103.352ZM114.888 175.355C114.264 175.355 113.708 175.219 113.22 174.947C112.732 174.671 112.348 174.297 112.068 173.825C111.792 173.349 111.654 172.809 111.654 172.205C111.654 171.749 111.736 171.331 111.9 170.951C112.064 170.567 112.296 170.233 112.596 169.949C112.896 169.665 113.248 169.445 113.652 169.289C114.06 169.133 114.502 169.055 114.978 169.055C115.378 169.055 115.748 169.109 116.088 169.217C116.432 169.321 116.748 169.483 117.036 169.703L116.4 170.711C116.216 170.547 116.004 170.425 115.764 170.345C115.528 170.265 115.276 170.225 115.008 170.225C114.592 170.225 114.234 170.303 113.934 170.459C113.634 170.615 113.4 170.841 113.232 171.137C113.068 171.429 112.986 171.783 112.986 172.199C112.986 172.819 113.166 173.305 113.526 173.657C113.89 174.009 114.384 174.185 115.008 174.185C115.304 174.185 115.584 174.131 115.848 174.023C116.112 173.911 116.332 173.765 116.508 173.585L117.138 174.587C116.822 174.827 116.47 175.015 116.082 175.151C115.694 175.287 115.296 175.355 114.888 175.355ZM117.938 175.175L120.218 172.133L120.506 172.985C120.014 172.989 119.594 172.917 119.246 172.769C118.898 172.617 118.632 172.405 118.448 172.133C118.268 171.857 118.178 171.531 118.178 171.155C118.178 170.751 118.28 170.407 118.484 170.123C118.688 169.835 118.976 169.615 119.348 169.463C119.72 169.311 120.156 169.235 120.656 169.235H123.218V175.175H121.946V170.237H120.788C120.364 170.237 120.042 170.311 119.822 170.459C119.606 170.607 119.498 170.829 119.498 171.125C119.498 171.413 119.598 171.637 119.798 171.797C120.002 171.953 120.296 172.031 120.68 172.031H122.114V172.991H121.07L119.444 175.175H117.938ZM28.7559 190.175V184.235H31.5879C32.2599 184.235 32.7979 184.363 33.2019 184.619C33.6059 184.875 33.8079 185.259 33.8079 185.771C33.8079 186.011 33.7499 186.225 33.6339 186.413C33.5179 186.597 33.3579 186.751 33.1539 186.875C32.9499 186.999 32.7119 187.089 32.4399 187.145L32.4159 186.851C32.9399 186.923 33.3459 187.097 33.6339 187.373C33.9219 187.649 34.0659 187.999 34.0659 188.423C34.0659 188.783 33.9719 189.095 33.7839 189.359C33.5959 189.619 33.3259 189.821 32.9739 189.965C32.6219 190.105 32.1999 190.175 31.7079 190.175H28.7559ZM30.0339 189.197H31.5279C31.9239 189.197 32.2279 189.131 32.4399 188.999C32.6559 188.867 32.7639 188.669 32.7639 188.405C32.7639 188.145 32.6579 187.951 32.4459 187.823C32.2339 187.691 31.9279 187.625 31.5279 187.625H29.8599V186.683H31.3899C31.7619 186.683 32.0499 186.627 32.2539 186.515C32.4579 186.399 32.5599 186.211 32.5599 185.951C32.5599 185.691 32.4579 185.503 32.2539 185.387C32.0499 185.267 31.7619 185.207 31.3899 185.207H30.0339V189.197ZM38.4942 192.695V184.235H39.6822V185.069C39.9182 184.769 40.2202 184.525 40.5882 184.337C40.9562 184.149 41.4102 184.055 41.9502 184.055C42.5302 184.055 43.0442 184.193 43.4922 184.469C43.9442 184.741 44.2962 185.115 44.5482 185.591C44.8002 186.063 44.9262 186.601 44.9262 187.205C44.9262 187.641 44.8542 188.051 44.7102 188.435C44.5662 188.815 44.3602 189.149 44.0922 189.437C43.8282 189.725 43.5122 189.951 43.1442 190.115C42.7802 190.275 42.3762 190.355 41.9322 190.355C41.4682 190.355 41.0602 190.271 40.7082 190.103C40.3562 189.935 40.0562 189.709 39.8082 189.425V192.695H38.4942ZM41.7102 189.185C42.0782 189.185 42.4042 189.105 42.6882 188.945C42.9762 188.781 43.2002 188.551 43.3602 188.255C43.5242 187.959 43.6062 187.609 43.6062 187.205C43.6062 186.801 43.5242 186.451 43.3602 186.155C43.1962 185.855 42.9702 185.625 42.6822 185.465C42.3982 185.305 42.0742 185.225 41.7102 185.225C41.3422 185.225 41.0142 185.305 40.7262 185.465C40.4422 185.625 40.2182 185.855 40.0542 186.155C39.8902 186.451 39.8082 186.801 39.8082 187.205C39.8082 187.609 39.8902 187.959 40.0542 188.255C40.2182 188.551 40.4422 188.781 40.7262 188.945C41.0142 189.105 41.3422 189.185 41.7102 189.185ZM48.8246 190.355C48.2326 190.355 47.7086 190.219 47.2526 189.947C46.8006 189.671 46.4446 189.297 46.1846 188.825C45.9286 188.349 45.8006 187.809 45.8006 187.205C45.8006 186.753 45.8746 186.335 46.0226 185.951C46.1706 185.567 46.3786 185.233 46.6466 184.949C46.9146 184.665 47.2346 184.445 47.6066 184.289C47.9786 184.133 48.3846 184.055 48.8246 184.055C49.4086 184.055 49.8966 184.179 50.2886 184.427C50.6846 184.675 50.9866 184.995 51.1946 185.387L51.0086 185.669V184.235H52.1846V190.175H51.0086V188.741L51.1946 189.023C50.9866 189.415 50.6846 189.735 50.2886 189.983C49.8966 190.231 49.4086 190.355 48.8246 190.355ZM48.9986 189.185C49.3586 189.185 49.6806 189.105 49.9646 188.945C50.2486 188.781 50.4706 188.551 50.6306 188.255C50.7946 187.959 50.8766 187.609 50.8766 187.205C50.8766 186.801 50.7946 186.451 50.6306 186.155C50.4706 185.855 50.2486 185.625 49.9646 185.465C49.6806 185.305 49.3586 185.225 48.9986 185.225C48.6346 185.225 48.3106 185.305 48.0266 185.465C47.7466 185.625 47.5246 185.855 47.3606 186.155C47.1966 186.451 47.1146 186.801 47.1146 187.205C47.1146 187.609 47.1966 187.959 47.3606 188.255C47.5246 188.551 47.7466 188.781 48.0266 188.945C48.3106 189.105 48.6346 189.185 48.9986 189.185ZM56.0256 190.319C55.6936 190.319 55.3736 190.293 55.0656 190.241C54.7576 190.193 54.4676 190.117 54.1956 190.013C53.9236 189.905 53.6776 189.763 53.4576 189.587L54.0336 188.693C54.2856 188.905 54.5836 189.059 54.9276 189.155C55.2716 189.247 55.6216 189.293 55.9776 189.293C56.4616 189.293 56.8436 189.223 57.1236 189.083C57.4036 188.939 57.5436 188.703 57.5436 188.375C57.5436 188.087 57.3956 187.881 57.0996 187.757C56.8076 187.633 56.3816 187.571 55.8216 187.571H54.7296V186.575H55.7856C56.2816 186.575 56.6636 186.519 56.9316 186.407C57.1996 186.291 57.3336 186.095 57.3336 185.819C57.3336 185.655 57.2756 185.519 57.1596 185.411C57.0476 185.303 56.8876 185.221 56.6796 185.165C56.4756 185.109 56.2356 185.081 55.9596 185.081C55.6196 185.081 55.2916 185.131 54.9756 185.231C54.6596 185.331 54.3836 185.485 54.1476 185.693L53.6556 184.811C53.9596 184.559 54.3276 184.367 54.7596 184.235C55.1916 184.099 55.6276 184.031 56.0676 184.031C56.5796 184.031 57.0196 184.095 57.3876 184.223C57.7556 184.351 58.0396 184.535 58.2396 184.775C58.4396 185.015 58.5396 185.305 58.5396 185.645C58.5396 185.949 58.4416 186.213 58.2456 186.437C58.0536 186.661 57.7736 186.823 57.4056 186.923C57.8536 187.023 58.1936 187.199 58.4256 187.451C58.6616 187.703 58.7796 188.019 58.7796 188.399C58.7796 188.799 58.6656 189.143 58.4376 189.431C58.2136 189.715 57.8936 189.935 57.4776 190.091C57.0656 190.243 56.5816 190.319 56.0256 190.319ZM60.2208 190.175V184.235H63.0528C63.7248 184.235 64.2628 184.363 64.6668 184.619C65.0708 184.875 65.2728 185.259 65.2728 185.771C65.2728 186.011 65.2148 186.225 65.0988 186.413C64.9828 186.597 64.8228 186.751 64.6188 186.875C64.4148 186.999 64.1768 187.089 63.9048 187.145L63.8808 186.851C64.4048 186.923 64.8108 187.097 65.0988 187.373C65.3868 187.649 65.5308 187.999 65.5308 188.423C65.5308 188.783 65.4368 189.095 65.2488 189.359C65.0608 189.619 64.7908 189.821 64.4388 189.965C64.0868 190.105 63.6648 190.175 63.1728 190.175H60.2208ZM61.4988 189.197H62.9928C63.3888 189.197 63.6928 189.131 63.9048 188.999C64.1208 188.867 64.2288 188.669 64.2288 188.405C64.2288 188.145 64.1228 187.951 63.9108 187.823C63.6988 187.691 63.3928 187.625 62.9928 187.625H61.3248V186.683H62.8548C63.2268 186.683 63.5148 186.627 63.7188 186.515C63.9228 186.399 64.0248 186.211 64.0248 185.951C64.0248 185.691 63.9228 185.503 63.7188 185.387C63.5148 185.267 63.2268 185.207 62.8548 185.207H61.4988V189.197ZM67.0177 190.175V184.235H68.2957V188.243L71.5177 184.235H72.6697V190.175H71.3977V186.119L68.1457 190.175H67.0177ZM75.8319 190.175V185.327H73.8819V184.235H79.1079V185.327H77.1519V190.175H75.8319ZM80.3184 190.175V184.235H81.5964V188.243L84.8184 184.235H85.9704V190.175H84.6984V186.119L81.4464 190.175H80.3184ZM90.5187 190.355C89.8787 190.355 89.3167 190.225 88.8327 189.965C88.3487 189.701 87.9707 189.333 87.6987 188.861C87.4307 188.389 87.2967 187.841 87.2967 187.217C87.2967 186.761 87.3747 186.341 87.5307 185.957C87.6867 185.569 87.9067 185.233 88.1907 184.949C88.4747 184.665 88.8067 184.445 89.1867 184.289C89.5707 184.133 89.9887 184.055 90.4407 184.055C90.9327 184.055 91.3707 184.143 91.7547 184.319C92.1387 184.491 92.4567 184.733 92.7087 185.045C92.9647 185.357 93.1447 185.723 93.2487 186.143C93.3567 186.559 93.3747 187.011 93.3027 187.499H88.5627C88.5547 187.855 88.6327 188.167 88.7967 188.435C88.9607 188.699 89.1947 188.905 89.4987 189.053C89.8067 189.201 90.1687 189.275 90.5847 189.275C90.9207 189.275 91.2447 189.225 91.5567 189.125C91.8727 189.021 92.1587 188.869 92.4147 188.669L92.9247 189.617C92.7327 189.773 92.5007 189.907 92.2287 190.019C91.9567 190.127 91.6727 190.209 91.3767 190.265C91.0807 190.325 90.7947 190.355 90.5187 190.355ZM88.6407 186.527H92.0067C91.9947 186.079 91.8507 185.727 91.5747 185.471C91.3027 185.215 90.9147 185.087 90.4107 185.087C89.9227 185.087 89.5167 185.215 89.1927 185.471C88.8727 185.727 88.6887 186.079 88.6407 186.527ZM100.519 190.355C100.019 190.355 99.5673 190.269 99.1633 190.097C98.7593 189.925 98.4153 189.677 98.1313 189.353C97.8473 189.025 97.6293 188.627 97.4773 188.159C97.3293 187.687 97.2553 187.151 97.2553 186.551C97.2553 185.891 97.3053 185.299 97.4053 184.775C97.5093 184.251 97.6713 183.797 97.8913 183.413C98.1153 183.029 98.4093 182.713 98.7733 182.465C99.1413 182.217 99.5873 182.039 100.111 181.931L102.955 181.355L103.171 182.501L100.405 183.035C99.9413 183.131 99.5773 183.285 99.3133 183.497C99.0493 183.709 98.8553 183.979 98.7313 184.307C98.6073 184.635 98.5253 185.021 98.4853 185.465C98.7373 185.125 99.0513 184.853 99.4273 184.649C99.8033 184.445 100.241 184.343 100.741 184.343C101.305 184.343 101.803 184.477 102.235 184.745C102.671 185.009 103.011 185.363 103.255 185.807C103.499 186.251 103.621 186.743 103.621 187.283C103.621 187.703 103.547 188.099 103.399 188.471C103.255 188.843 103.045 189.171 102.769 189.455C102.493 189.735 102.165 189.955 101.785 190.115C101.405 190.275 100.983 190.355 100.519 190.355ZM100.489 189.185C100.837 189.185 101.147 189.109 101.419 188.957C101.695 188.801 101.911 188.583 102.067 188.303C102.223 188.019 102.301 187.683 102.301 187.295C102.301 186.907 102.223 186.573 102.067 186.293C101.911 186.009 101.695 185.791 101.419 185.639C101.147 185.483 100.837 185.405 100.489 185.405C100.141 185.405 99.8293 185.483 99.5533 185.639C99.2813 185.791 99.0673 186.009 98.9113 186.293C98.7553 186.573 98.6773 186.907 98.6773 187.295C98.6773 187.683 98.7553 188.019 98.9113 188.303C99.0673 188.583 99.2813 188.801 99.5533 188.957C99.8293 189.109 100.141 189.185 100.489 189.185ZM105.01 190.175V184.235H106.288V188.243L109.51 184.235H110.662V190.175H109.39V186.119L106.138 190.175H105.01ZM114.502 190.319C114.17 190.319 113.85 190.293 113.542 190.241C113.234 190.193 112.944 190.117 112.672 190.013C112.4 189.905 112.154 189.763 111.934 189.587L112.51 188.693C112.762 188.905 113.06 189.059 113.404 189.155C113.748 189.247 114.098 189.293 114.454 189.293C114.938 189.293 115.32 189.223 115.6 189.083C115.88 188.939 116.02 188.703 116.02 188.375C116.02 188.087 115.872 187.881 115.576 187.757C115.284 187.633 114.858 187.571 114.298 187.571H113.206V186.575H114.262C114.758 186.575 115.14 186.519 115.408 186.407C115.676 186.291 115.81 186.095 115.81 185.819C115.81 185.655 115.752 185.519 115.636 185.411C115.524 185.303 115.364 185.221 115.156 185.165C114.952 185.109 114.712 185.081 114.436 185.081C114.096 185.081 113.768 185.131 113.452 185.231C113.136 185.331 112.86 185.485 112.624 185.693L112.132 184.811C112.436 184.559 112.804 184.367 113.236 184.235C113.668 184.099 114.104 184.031 114.544 184.031C115.056 184.031 115.496 184.095 115.864 184.223C116.232 184.351 116.516 184.535 116.716 184.775C116.916 185.015 117.016 185.305 117.016 185.645C117.016 185.949 116.918 186.213 116.722 186.437C116.53 186.661 116.25 186.823 115.882 186.923C116.33 187.023 116.67 187.199 116.902 187.451C117.138 187.703 117.256 188.019 117.256 188.399C117.256 188.799 117.142 189.143 116.914 189.431C116.69 189.715 116.37 189.935 115.954 190.091C115.542 190.243 115.058 190.319 114.502 190.319ZM118.697 190.175V184.235H120.017V186.527H122.993V184.235H124.313V190.175H122.993V187.619H120.017V190.175H118.697ZM128.862 190.355C128.222 190.355 127.66 190.225 127.176 189.965C126.692 189.701 126.314 189.333 126.042 188.861C125.774 188.389 125.64 187.841 125.64 187.217C125.64 186.761 125.718 186.341 125.874 185.957C126.03 185.569 126.25 185.233 126.534 184.949C126.818 184.665 127.15 184.445 127.53 184.289C127.914 184.133 128.332 184.055 128.784 184.055C129.276 184.055 129.714 184.143 130.098 184.319C130.482 184.491 130.8 184.733 131.052 185.045C131.308 185.357 131.488 185.723 131.592 186.143C131.7 186.559 131.718 187.011 131.646 187.499H126.906C126.898 187.855 126.976 188.167 127.14 188.435C127.304 188.699 127.538 188.905 127.842 189.053C128.15 189.201 128.512 189.275 128.928 189.275C129.264 189.275 129.588 189.225 129.9 189.125C130.216 189.021 130.502 188.869 130.758 188.669L131.268 189.617C131.076 189.773 130.844 189.907 130.572 190.019C130.3 190.127 130.016 190.209 129.72 190.265C129.424 190.325 129.138 190.355 128.862 190.355ZM126.984 186.527H130.35C130.338 186.079 130.194 185.727 129.918 185.471C129.646 185.215 129.258 185.087 128.754 185.087C128.266 185.087 127.86 185.215 127.536 185.471C127.216 185.727 127.032 186.079 126.984 186.527ZM135.8 190.355C135.176 190.355 134.62 190.219 134.132 189.947C133.644 189.671 133.26 189.297 132.98 188.825C132.704 188.349 132.566 187.809 132.566 187.205C132.566 186.749 132.648 186.331 132.812 185.951C132.976 185.567 133.208 185.233 133.508 184.949C133.808 184.665 134.16 184.445 134.564 184.289C134.972 184.133 135.414 184.055 135.89 184.055C136.29 184.055 136.66 184.109 137 184.217C137.344 184.321 137.66 184.483 137.948 184.703L137.312 185.711C137.128 185.547 136.916 185.425 136.676 185.345C136.44 185.265 136.188 185.225 135.92 185.225C135.504 185.225 135.146 185.303 134.846 185.459C134.546 185.615 134.312 185.841 134.144 186.137C133.98 186.429 133.898 186.783 133.898 187.199C133.898 187.819 134.078 188.305 134.438 188.657C134.802 189.009 135.296 189.185 135.92 189.185C136.216 189.185 136.496 189.131 136.76 189.023C137.024 188.911 137.244 188.765 137.42 188.585L138.05 189.587C137.734 189.827 137.382 190.015 136.994 190.151C136.606 190.287 136.208 190.355 135.8 190.355ZM141.661 190.355C141.069 190.355 140.545 190.219 140.089 189.947C139.637 189.671 139.281 189.297 139.021 188.825C138.765 188.349 138.637 187.809 138.637 187.205C138.637 186.753 138.711 186.335 138.859 185.951C139.007 185.567 139.215 185.233 139.483 184.949C139.751 184.665 140.071 184.445 140.443 184.289C140.815 184.133 141.221 184.055 141.661 184.055C142.245 184.055 142.733 184.179 143.125 184.427C143.521 184.675 143.823 184.995 144.031 185.387L143.845 185.669V184.235H145.021V190.175H143.845V188.741L144.031 189.023C143.823 189.415 143.521 189.735 143.125 189.983C142.733 190.231 142.245 190.355 141.661 190.355ZM141.835 189.185C142.195 189.185 142.517 189.105 142.801 188.945C143.085 188.781 143.307 188.551 143.467 188.255C143.631 187.959 143.713 187.609 143.713 187.205C143.713 186.801 143.631 186.451 143.467 186.155C143.307 185.855 143.085 185.625 142.801 185.465C142.517 185.305 142.195 185.225 141.835 185.225C141.471 185.225 141.147 185.305 140.863 185.465C140.583 185.625 140.361 185.855 140.197 186.155C140.033 186.451 139.951 186.801 139.951 187.205C139.951 187.609 140.033 187.959 140.197 188.255C140.361 188.551 140.583 188.781 140.863 188.945C141.147 189.105 141.471 189.185 141.835 189.185ZM147.553 190.355C147.297 190.355 147.075 190.273 146.887 190.109C146.703 189.945 146.611 189.731 146.611 189.467C146.611 189.287 146.653 189.131 146.737 188.999C146.821 188.863 146.935 188.759 147.079 188.687C147.223 188.611 147.381 188.573 147.553 188.573C147.813 188.573 148.033 188.655 148.213 188.819C148.397 188.979 148.489 189.195 148.489 189.467C148.489 189.643 148.447 189.799 148.363 189.935C148.279 190.067 148.165 190.169 148.021 190.241C147.881 190.317 147.725 190.355 147.553 190.355Z" fill="#18181B"/>
</svg>
