<svg width="177" height="216" viewBox="0 0 177 216" fill="none" xmlns="http://www.w3.org/2000/svg">
<rect width="177" height="216" rx="6.49998" fill="#DB7453"/>
<g clip-path="url(#clip0_552_390)">
<path d="M92.0647 34.631C95.8187 32.8252 99.6131 33.1503 100.785 37.7028C101.314 37.9996 103.421 35.7081 106.034 37.3085C106.743 37.7469 106.683 39.0248 107.66 39.1604C110.398 33.0932 119.341 28.1335 117.332 39.3055C115.782 47.9341 109.479 61.9998 104.653 69.4124C89.1409 93.1838 67.8417 77.0641 63.9002 54.9376C62.9413 49.5845 62.7071 36.7702 69.7395 35.5885C74.4534 34.8023 75.8847 40.0787 77.3641 43.4192C79.2797 37.8654 81.4679 32.1661 84.2364 26.9799C85.5077 24.6061 90.94 14.6268 94.3635 17.4564C97.5308 20.0774 93.5094 31.4304 92.054 34.6125L92.0647 34.631ZM102.904 50.0527C102.862 48.9815 104.374 44.536 104.765 43.0658C104.808 42.9057 104.75 40.0219 104.683 39.8637C104.495 39.2835 104.052 39.3059 103.5 39.3303C100.108 39.4864 94.8836 48.508 94.5924 51.7665C95.3359 53.0714 101.249 47.2576 100.889 50.6539C100.548 53.8677 91.4913 57.4408 92.4037 51.5574C91.4412 51.4257 90.7439 52.1129 89.7437 52.2985C83.1236 53.5121 84.3326 46.6321 85.8819 42.5709C86.5518 40.8163 88.7108 38.4452 89.0375 37.3943C89.2304 36.7286 89.0623 35.7796 89.3725 34.849C90.879 30.2463 93.2866 25.0107 92.386 20.1408C86.3105 26.3322 82.7931 35.7929 79.8769 43.9328C79.3767 45.3428 78.7193 46.9916 78.2889 48.3735C77.7849 50.0319 78.6353 52.2227 76.2039 51.4034C73.9248 50.6558 75.6337 48.5701 75.4673 46.7954C75.0753 42.8249 70.8373 33.5738 67.3417 41.1385C61.042 54.784 76.1032 86.7169 94.2358 76.3957C103.328 71.2263 113.501 48.0123 115.113 37.9815C115.259 37.0228 115.032 36.1204 115.112 35.1753C111.523 36.7132 108.918 41.4598 107.338 44.936C106.77 46.1878 105.923 49.7191 105.246 50.5053C104.61 51.2555 102.96 50.9561 102.93 50.075L102.904 50.0527ZM96.0456 36.1282C92.1736 35.8604 88.0998 43.0215 87.4467 46.2927C87.2452 47.2834 87.1224 48.8564 87.9336 49.5558C88.543 49.8429 92.8743 48.035 93.2419 47.6497C93.6541 47.2139 94.5751 44.8092 95.1851 43.8649C95.8853 42.7575 98.3052 40.0507 98.5592 39.448C99.1506 38.0467 97.6367 36.2403 96.0456 36.1282Z" fill="#18181B"/>
<path d="M102.905 50.0524C102.936 50.9335 104.586 51.2329 105.222 50.4827C105.899 49.6965 106.732 46.1614 107.313 44.9134C108.905 41.4557 111.499 36.6907 115.088 35.1527C115.022 36.1017 115.249 37.0041 115.088 37.959C113.491 47.9936 103.318 71.2076 94.2115 76.3731C76.0973 86.6837 61.0323 54.7653 67.3359 41.1052C70.8314 33.5406 75.0695 42.7917 75.4615 46.7622C75.6424 48.5408 73.9189 50.6226 76.198 51.3701C78.6333 52.1749 77.7829 49.9841 78.2831 48.3402C78.7135 46.9583 79.367 45.3241 79.8711 43.8995C82.7834 35.7742 86.3047 26.2989 92.3802 20.1076C93.2808 24.9775 90.8838 30.2315 89.3667 34.8158C89.0565 35.7464 89.2391 36.6992 89.0317 37.361C88.7195 38.4159 86.546 40.7831 85.8761 42.5376C84.3268 46.5989 83.1323 53.4827 89.7378 52.2652C90.738 52.0797 91.45 51.3964 92.3978 51.5242C91.4893 57.393 100.542 53.8344 100.884 50.6206C101.243 47.2243 95.3262 53.0527 94.5866 51.7332C94.8778 48.4748 100.087 39.4493 103.494 39.2971C104.046 39.2727 104.478 39.2318 104.677 39.8305C104.744 39.9886 104.802 42.8724 104.759 43.0326C104.368 44.5027 102.857 48.9482 102.898 50.0195L102.905 50.0524ZM80.0838 52.4055C79.7695 52.4153 79.2971 52.7259 79.2913 53.0985C81.4436 54.732 83.8793 65.015 84.8788 65.8269C85.8783 66.6389 86.9608 65.8516 86.9023 64.6669C86.8223 62.9775 82.592 53.6973 81.2423 52.8544C80.8803 52.6333 80.5223 52.3976 80.0838 52.4055Z" fill="white"/>
<path d="M96.0453 36.129C97.6509 36.2451 99.1503 38.0476 98.5588 39.4489C98.3048 40.0515 95.8811 42.773 95.1848 43.8657C94.5748 44.81 93.6644 47.2332 93.2415 47.6506C92.8778 48.0213 88.5281 49.8399 87.9333 49.5567C87.122 48.8573 87.2449 47.2843 87.4464 46.2935C88.0849 43.0185 92.1733 35.8612 96.0453 36.129Z" fill="white"/>
<path d="M80.0797 52.4054C80.5183 52.3975 80.8947 52.6225 81.2382 52.8544C82.5841 53.7118 86.8183 62.9774 86.8982 64.6668C86.9567 65.8515 85.8345 66.6126 84.8748 65.8268C83.9151 65.0411 81.4395 54.7319 79.2873 53.0984C79.293 52.7258 79.7654 52.4152 80.0797 52.4054Z" fill="#18181B"/>
</g>
<path d="M26.4841 104.675V94.8747H30.2781C31.2768 94.8747 32.0748 95.0847 32.6721 95.5047C33.2695 95.92 33.5681 96.5383 33.5681 97.3597C33.5681 97.6583 33.5075 97.9337 33.3861 98.1857C33.2648 98.4377 33.0991 98.6617 32.8891 98.8577C32.6838 99.049 32.4528 99.203 32.1961 99.3197C32.7235 99.5063 33.1481 99.8167 33.4701 100.251C33.7968 100.685 33.9601 101.2 33.9601 101.798C33.9601 102.381 33.8131 102.887 33.5191 103.317C33.2298 103.746 32.8168 104.08 32.2801 104.318C31.7435 104.556 31.1065 104.675 30.3691 104.675H26.4841ZM28.8081 102.96H30.0331C30.5371 102.96 30.9151 102.857 31.1671 102.652C31.4191 102.446 31.5451 102.138 31.5451 101.728C31.5451 101.336 31.4238 101.032 31.1811 100.818C30.9431 100.598 30.5861 100.489 30.1101 100.489H28.8081V102.96ZM28.8081 98.8927H29.9631C30.2431 98.8927 30.4835 98.846 30.6841 98.7527C30.8895 98.6593 31.0458 98.524 31.1531 98.3467C31.2651 98.1693 31.3211 97.957 31.3211 97.7097C31.3211 97.3503 31.1998 97.0727 30.9571 96.8767C30.7191 96.6807 30.3761 96.5827 29.9281 96.5827H28.8081V98.8927ZM41.726 104.675L37.785 99.6067L41.348 94.8747H44.246L40.62 99.5997L44.715 104.675H41.726ZM35.699 104.675V94.8747H38.023V98.5077H39.871V100.629H38.023V104.675H35.699ZM45.8196 104.864L45.0636 102.743C45.3762 102.645 45.6422 102.535 45.8616 102.414C46.0856 102.288 46.2699 102.122 46.4146 101.917C46.5592 101.707 46.6712 101.429 46.7506 101.084C46.8346 100.738 46.8906 100.3 46.9186 99.7677C46.9512 99.231 46.9676 98.5707 46.9676 97.7867V94.8747H54.3526V104.675H52.0286V96.9957H49.1656V97.6817C49.1656 98.685 49.1329 99.5577 49.0676 100.3C49.0069 101.042 48.9019 101.676 48.7526 102.204C48.6032 102.731 48.4002 103.17 48.1436 103.52C47.8869 103.87 47.5672 104.152 47.1846 104.367C46.8066 104.581 46.3516 104.747 45.8196 104.864ZM55.552 104.675L59.213 94.8747H61.908L65.604 104.675H62.986L62.293 102.687H58.779L58.1 104.675H55.552ZM59.304 100.748H61.754L60.522 97.3597L59.304 100.748ZM73.1429 104.675V96.9957H70.1539V97.6817C70.1539 98.8017 70.0932 99.77 69.9719 100.587C69.8505 101.399 69.6569 102.08 69.3909 102.631C69.1295 103.177 68.7819 103.613 68.3479 103.94C67.9139 104.266 67.3795 104.502 66.7449 104.647L65.9539 102.694C66.3599 102.605 66.6912 102.467 66.9479 102.281C67.2092 102.094 67.4122 101.819 67.5569 101.455C67.7062 101.091 67.8089 100.605 67.8649 99.9987C67.9255 99.3873 67.9559 98.615 67.9559 97.6817V94.8747H75.4669V104.675H73.1429ZM65.9539 107.139V102.694L67.2629 102.743L67.9909 102.554H77.0489V107.139H74.8439V104.675H68.1589V107.139H65.9539ZM78.533 104.675V94.8747H80.857V98.1997H82.39C83.118 98.1997 83.7643 98.328 84.329 98.5847C84.8983 98.8367 85.344 99.2053 85.666 99.6907C85.9926 100.176 86.156 100.759 86.156 101.441C86.156 101.954 86.072 102.411 85.904 102.813C85.736 103.214 85.4863 103.555 85.155 103.835C84.8283 104.11 84.4293 104.32 83.958 104.465C83.4866 104.605 82.9453 104.675 82.334 104.675H78.533ZM80.857 102.729H82.278C82.768 102.729 83.1483 102.633 83.419 102.442C83.6943 102.246 83.832 101.924 83.832 101.476C83.832 101.028 83.6896 100.703 83.405 100.503C83.125 100.297 82.754 100.195 82.292 100.195H80.857V102.729ZM87.451 104.675V94.8747H89.775V104.675H87.451ZM92.0818 104.675V94.8747H95.8758C96.8745 94.8747 97.6725 95.0847 98.2698 95.5047C98.8671 95.92 99.1658 96.5383 99.1658 97.3597C99.1658 97.6583 99.1051 97.9337 98.9838 98.1857C98.8625 98.4377 98.6968 98.6617 98.4868 98.8577C98.2815 99.049 98.0505 99.203 97.7938 99.3197C98.3211 99.5063 98.7458 99.8167 99.0678 100.251C99.3945 100.685 99.5578 101.2 99.5578 101.798C99.5578 102.381 99.4108 102.887 99.1168 103.317C98.8275 103.746 98.4145 104.08 97.8778 104.318C97.3411 104.556 96.7041 104.675 95.9668 104.675H92.0818ZM94.4058 102.96H95.6308C96.1348 102.96 96.5128 102.857 96.7648 102.652C97.0168 102.446 97.1428 102.138 97.1428 101.728C97.1428 101.336 97.0215 101.032 96.7788 100.818C96.5408 100.598 96.1838 100.489 95.7078 100.489H94.4058V102.96ZM94.4058 98.8927H95.5608C95.8408 98.8927 96.0811 98.846 96.2818 98.7527C96.4871 98.6593 96.6435 98.524 96.7508 98.3467C96.8628 98.1693 96.9188 97.957 96.9188 97.7097C96.9188 97.3503 96.7975 97.0727 96.5548 96.8767C96.3168 96.6807 95.9738 96.5827 95.5258 96.5827H94.4058V98.8927ZM100.191 104.675L103.852 94.8747H106.547L110.243 104.675H107.625L106.932 102.687H103.418L102.739 104.675H100.191ZM103.943 100.748H106.393L105.161 97.3597L103.943 100.748ZM111.441 104.675V94.8747H118.329V96.8907H113.765V98.7107H117.594V100.573H113.765V102.638H118.385V104.675H111.441ZM120.328 104.675V94.8747H122.561L126.285 101.056L125.361 101.063L128.903 94.8747H131.129V104.675H128.875L128.917 97.8427L129.33 97.9897L126.502 102.827H124.955L122.015 97.9897L122.414 97.8427L122.456 104.675H120.328ZM137.975 104.885C136.963 104.885 136.069 104.677 135.294 104.262C134.52 103.846 133.915 103.258 133.481 102.498C133.047 101.737 132.83 100.839 132.83 99.8027C132.83 99.0467 132.956 98.356 133.208 97.7307C133.465 97.1007 133.824 96.557 134.286 96.0997C134.753 95.6423 135.301 95.29 135.931 95.0427C136.566 94.7907 137.259 94.6647 138.01 94.6647C138.827 94.6647 139.513 94.7673 140.068 94.9727C140.624 95.178 141.125 95.4697 141.573 95.8477L140.411 97.7587C140.141 97.4787 139.814 97.271 139.431 97.1357C139.049 96.9957 138.626 96.9257 138.164 96.9257C137.707 96.9257 137.299 96.9933 136.939 97.1287C136.585 97.2593 136.281 97.4483 136.029 97.6957C135.782 97.943 135.593 98.2417 135.462 98.5917C135.332 98.9417 135.266 99.3337 135.266 99.7677C135.266 100.365 135.383 100.876 135.616 101.301C135.854 101.725 136.193 102.052 136.631 102.281C137.07 102.505 137.595 102.617 138.206 102.617C138.645 102.617 139.079 102.551 139.508 102.421C139.942 102.285 140.353 102.068 140.74 101.77L141.804 103.723C141.352 104.073 140.81 104.355 140.18 104.57C139.55 104.78 138.815 104.885 137.975 104.885ZM142.396 104.675L145.028 100.699C144.374 100.479 143.861 100.139 143.488 99.6767C143.119 99.2147 142.935 98.6523 142.935 97.9897C142.935 97.3083 143.089 96.7367 143.397 96.2747C143.705 95.8127 144.141 95.465 144.706 95.2317C145.27 94.9937 145.931 94.8747 146.687 94.8747H150.523V104.675H148.199V101.07H147.31L145.056 104.675H142.396ZM146.785 99.2077H148.199V96.7857H146.82C146.344 96.7857 145.968 96.8813 145.693 97.0727C145.417 97.2593 145.28 97.5627 145.28 97.9827C145.28 98.4027 145.41 98.713 145.672 98.9137C145.933 99.1097 146.304 99.2077 146.785 99.2077ZM30.8797 122.675V112.875H34.6737C35.6723 112.875 36.4703 113.085 37.0677 113.505C37.665 113.92 37.9637 114.538 37.9637 115.36C37.9637 115.658 37.903 115.934 37.7817 116.186C37.6603 116.438 37.4947 116.662 37.2847 116.858C37.0793 117.049 36.8483 117.203 36.5917 117.32C37.119 117.506 37.5437 117.817 37.8657 118.251C38.1923 118.685 38.3557 119.2 38.3557 119.798C38.3557 120.381 38.2087 120.887 37.9147 121.317C37.6253 121.746 37.2123 122.08 36.6757 122.318C36.139 122.556 35.502 122.675 34.7647 122.675H30.8797ZM33.2037 120.96H34.4287C34.9327 120.96 35.3107 120.857 35.5627 120.652C35.8147 120.446 35.9407 120.138 35.9407 119.728C35.9407 119.336 35.8193 119.032 35.5767 118.818C35.3387 118.598 34.9817 118.489 34.5057 118.489H33.2037V120.96ZM33.2037 116.893H34.3587C34.6387 116.893 34.879 116.846 35.0797 116.753C35.285 116.659 35.4413 116.524 35.5487 116.347C35.6607 116.169 35.7167 115.957 35.7167 115.71C35.7167 115.35 35.5953 115.073 35.3527 114.877C35.1147 114.681 34.7717 114.583 34.3237 114.583H33.2037V116.893ZM49.3481 122.675L45.4071 117.607L48.9701 112.875H51.8681L48.2421 117.6L52.3371 122.675H49.3481ZM43.3211 122.675V112.875H45.6451V116.508H47.4931V118.629H45.6451V122.675H43.3211ZM53.5886 122.675V112.875H57.5156C58.2483 112.875 58.897 113.003 59.4616 113.26C60.0263 113.512 60.4696 113.88 60.7916 114.366C61.1183 114.851 61.2816 115.434 61.2816 116.116C61.2816 116.806 61.1323 117.392 60.8336 117.873C60.535 118.353 60.101 118.72 59.5316 118.972C58.9623 119.224 58.2716 119.35 57.4596 119.35H55.9126V122.675H53.5886ZM55.9126 117.404H57.4036C57.8936 117.404 58.274 117.308 58.5446 117.117C58.82 116.921 58.9576 116.599 58.9576 116.151C58.9576 115.703 58.8153 115.378 58.5306 115.178C58.2506 114.972 57.8796 114.87 57.4176 114.87H55.9126V117.404ZM63.1958 122.864L62.3768 120.75C62.9975 120.638 63.5388 120.46 64.0008 120.218C64.4675 119.97 64.8805 119.634 65.2398 119.21C65.5991 118.785 65.9328 118.246 66.2408 117.593L68.4738 112.875H71.1688L68.2918 118.601C67.9325 119.324 67.5661 119.94 67.1928 120.449C66.8241 120.957 66.4345 121.38 66.0238 121.716C65.6178 122.047 65.1815 122.304 64.7148 122.486C64.2481 122.668 63.7418 122.794 63.1958 122.864ZM65.8138 119.952L62.0408 112.875H64.8548L67.3888 117.999L65.8138 119.952ZM74.0548 122.675V114.996H71.4438V112.875H79.0038V114.996H76.3928V122.675H74.0548ZM80.4265 122.675V112.875H82.7505V116.2H84.2835C85.0115 116.2 85.6579 116.328 86.2225 116.585C86.7919 116.837 87.2375 117.205 87.5595 117.691C87.8862 118.176 88.0495 118.759 88.0495 119.441C88.0495 119.954 87.9655 120.411 87.7975 120.813C87.6295 121.214 87.3799 121.555 87.0485 121.835C86.7219 122.11 86.3229 122.32 85.8515 122.465C85.3802 122.605 84.8389 122.675 84.2275 122.675H80.4265ZM82.7505 120.729H84.1715C84.6615 120.729 85.0419 120.633 85.3125 120.442C85.5879 120.246 85.7255 119.924 85.7255 119.476C85.7255 119.028 85.5832 118.703 85.2985 118.503C85.0185 118.297 84.6475 118.195 84.1855 118.195H82.7505V120.729ZM89.3445 122.675V112.875H91.6685V122.675H89.3445ZM93.9754 122.675V112.875H100.863V114.891H96.2994V116.711H100.128V118.573H96.2994V120.638H100.919V122.675H93.9754ZM106.089 122.675V112.875H108.392V119L112.361 112.875H114.671V122.675H112.368V116.473L108.385 122.675H106.089ZM123.257 122.675V114.996H120.268V115.682C120.268 116.802 120.207 117.77 120.086 118.587C119.965 119.399 119.771 120.08 119.505 120.631C119.244 121.177 118.896 121.613 118.462 121.94C118.028 122.266 117.494 122.502 116.859 122.647L116.068 120.694C116.474 120.605 116.805 120.467 117.062 120.281C117.323 120.094 117.526 119.819 117.671 119.455C117.82 119.091 117.923 118.605 117.979 117.999C118.04 117.387 118.07 116.615 118.07 115.682V112.875H125.581V122.675H123.257ZM116.068 125.139V120.694L117.377 120.743L118.105 120.554H127.163V125.139H124.958V122.675H118.273V125.139H116.068ZM128.647 122.675V112.875H135.535V114.891H130.971V116.711H134.8V118.573H130.971V120.638H135.591V122.675H128.647ZM137.534 122.675V112.875H139.837V119L143.806 112.875H146.116V122.675H143.813V116.473L139.83 122.675H137.534Z" fill="#18181B"/>
<path d="M30.8577 145.175V136.775H32.1597L35.5857 142.349L35.0637 142.355L38.3637 136.775H39.6417V145.175H38.3277L38.3457 138.563L38.6037 138.653L35.7477 143.363H34.7637L31.8537 138.653L32.0697 138.563L32.0877 145.175H30.8577ZM41.6524 145.175V139.235H42.9724V144.173H44.0464C44.4784 144.173 44.8044 144.089 45.0244 143.921C45.2444 143.753 45.3544 143.503 45.3544 143.171C45.3544 142.843 45.2524 142.591 45.0484 142.415C44.8444 142.239 44.5444 142.151 44.1484 142.151H42.7924V141.161H44.2504C45.0184 141.161 45.6224 141.333 46.0624 141.677C46.5024 142.021 46.7224 142.519 46.7224 143.171C46.7224 143.591 46.6164 143.951 46.4044 144.251C46.1924 144.547 45.8944 144.775 45.5104 144.935C45.1304 145.095 44.6844 145.175 44.1724 145.175H41.6524ZM47.6764 145.175V139.235H48.9964V145.175H47.6764ZM53.7696 145.175V139.235H59.3796V145.175H58.0596V140.327H55.0896V145.175H53.7696ZM63.917 145.355C63.297 145.355 62.743 145.213 62.255 144.929C61.771 144.641 61.391 144.259 61.115 143.783C60.839 143.303 60.701 142.777 60.701 142.205C60.701 141.781 60.779 141.381 60.935 141.005C61.095 140.625 61.319 140.289 61.607 139.997C61.899 139.705 62.241 139.475 62.633 139.307C63.025 139.139 63.455 139.055 63.923 139.055C64.543 139.055 65.095 139.199 65.579 139.487C66.067 139.771 66.449 140.153 66.725 140.633C67.001 141.109 67.139 141.633 67.139 142.205C67.139 142.625 67.059 143.025 66.899 143.405C66.743 143.785 66.521 144.121 66.233 144.413C65.945 144.705 65.605 144.935 65.213 145.103C64.821 145.271 64.389 145.355 63.917 145.355ZM63.917 144.185C64.285 144.185 64.611 144.105 64.895 143.945C65.183 143.781 65.409 143.551 65.573 143.255C65.737 142.959 65.819 142.609 65.819 142.205C65.819 141.801 65.737 141.451 65.573 141.155C65.409 140.855 65.183 140.625 64.895 140.465C64.611 140.305 64.285 140.225 63.917 140.225C63.549 140.225 63.221 140.305 62.933 140.465C62.649 140.625 62.425 140.855 62.261 141.155C62.101 141.451 62.021 141.801 62.021 142.205C62.021 142.609 62.103 142.959 62.267 143.255C62.431 143.551 62.655 143.781 62.939 143.945C63.227 144.105 63.553 144.185 63.917 144.185ZM72.4129 145.175L70.4449 142.019L72.2749 139.235H73.6849L71.8669 141.959L73.9909 145.175H72.4129ZM68.4649 145.175V139.235H69.7849V141.527H71.5729V142.619H69.7849V145.175H68.4649ZM75.6663 147.863C75.4503 147.863 75.2383 147.839 75.0303 147.791C74.8223 147.743 74.6183 147.661 74.4183 147.545L74.7183 146.417C74.8423 146.497 74.9783 146.557 75.1263 146.597C75.2743 146.637 75.4063 146.657 75.5223 146.657C75.8023 146.657 76.0223 146.591 76.1823 146.459C76.3423 146.327 76.4683 146.123 76.5603 145.847L76.7583 145.271L74.4183 139.235H75.8643L77.5083 143.843L79.1103 139.235H80.5083L77.9403 146.033C77.7563 146.509 77.5503 146.879 77.3223 147.143C77.0943 147.411 76.8423 147.597 76.5663 147.701C76.2903 147.809 75.9903 147.863 75.6663 147.863ZM81.543 145.175V139.235H87.153V145.175H85.833V140.327H82.863V145.175H81.543ZM91.4985 145.355C90.9065 145.355 90.3825 145.219 89.9265 144.947C89.4745 144.671 89.1185 144.297 88.8585 143.825C88.6025 143.349 88.4745 142.809 88.4745 142.205C88.4745 141.753 88.5485 141.335 88.6965 140.951C88.8445 140.567 89.0525 140.233 89.3205 139.949C89.5885 139.665 89.9085 139.445 90.2805 139.289C90.6525 139.133 91.0585 139.055 91.4985 139.055C92.0825 139.055 92.5705 139.179 92.9625 139.427C93.3585 139.675 93.6605 139.995 93.8685 140.387L93.6825 140.669V139.235H94.8585V145.175H93.6825V143.741L93.8685 144.023C93.6605 144.415 93.3585 144.735 92.9625 144.983C92.5705 145.231 92.0825 145.355 91.4985 145.355ZM91.6725 144.185C92.0325 144.185 92.3545 144.105 92.6385 143.945C92.9225 143.781 93.1445 143.551 93.3045 143.255C93.4685 142.959 93.5505 142.609 93.5505 142.205C93.5505 141.801 93.4685 141.451 93.3045 141.155C93.1445 140.855 92.9225 140.625 92.6385 140.465C92.3545 140.305 92.0325 140.225 91.6725 140.225C91.3085 140.225 90.9845 140.305 90.7005 140.465C90.4205 140.625 90.1985 140.855 90.0345 141.155C89.8705 141.451 89.7885 141.801 89.7885 142.205C89.7885 142.609 89.8705 142.959 90.0345 143.255C90.1985 143.551 90.4205 143.781 90.7005 143.945C90.9845 144.105 91.3085 144.185 91.6725 144.185ZM99.4074 145.355C98.7674 145.355 98.2054 145.225 97.7214 144.965C97.2374 144.701 96.8594 144.333 96.5874 143.861C96.3194 143.389 96.1854 142.841 96.1854 142.217C96.1854 141.761 96.2634 141.341 96.4194 140.957C96.5754 140.569 96.7954 140.233 97.0794 139.949C97.3634 139.665 97.6954 139.445 98.0754 139.289C98.4594 139.133 98.8774 139.055 99.3294 139.055C99.8214 139.055 100.259 139.143 100.643 139.319C101.027 139.491 101.345 139.733 101.597 140.045C101.853 140.357 102.033 140.723 102.137 141.143C102.245 141.559 102.263 142.011 102.191 142.499H97.4514C97.4434 142.855 97.5214 143.167 97.6854 143.435C97.8494 143.699 98.0834 143.905 98.3874 144.053C98.6954 144.201 99.0574 144.275 99.4734 144.275C99.8094 144.275 100.133 144.225 100.445 144.125C100.761 144.021 101.047 143.869 101.303 143.669L101.813 144.617C101.621 144.773 101.389 144.907 101.117 145.019C100.845 145.127 100.561 145.209 100.265 145.265C99.9694 145.325 99.6834 145.355 99.4074 145.355ZM97.5294 141.527H100.895C100.883 141.079 100.739 140.727 100.463 140.471C100.191 140.215 99.8034 140.087 99.2994 140.087C98.8114 140.087 98.4054 140.215 98.0814 140.471C97.7614 140.727 97.5774 141.079 97.5294 141.527ZM103.563 145.175V139.235H104.709H104.745L107.409 143.087L106.839 143.099L109.371 139.235H110.541V145.175H109.341L109.359 140.783L109.605 140.891L107.481 143.993H106.629L104.409 140.885L104.655 140.777L104.673 145.175H103.563ZM119.63 145.175V140.327H117.23V141.113C117.23 141.653 117.198 142.141 117.134 142.577C117.07 143.013 116.956 143.397 116.792 143.729C116.628 144.057 116.398 144.329 116.102 144.545C115.81 144.761 115.436 144.919 114.98 145.019L114.656 144.125C115.036 144.033 115.322 143.861 115.514 143.609C115.706 143.357 115.834 143.025 115.898 142.613C115.966 142.197 116 141.697 116 141.113V139.235H120.95V145.175H119.63ZM114.656 146.975V144.125L115.472 144.209L115.676 144.083H122.144V146.975H120.938V145.175H115.862V146.975H114.656ZM125.921 145.355C125.301 145.355 124.747 145.213 124.259 144.929C123.775 144.641 123.395 144.259 123.119 143.783C122.843 143.303 122.705 142.777 122.705 142.205C122.705 141.781 122.783 141.381 122.939 141.005C123.099 140.625 123.323 140.289 123.611 139.997C123.903 139.705 124.245 139.475 124.637 139.307C125.029 139.139 125.459 139.055 125.927 139.055C126.547 139.055 127.099 139.199 127.583 139.487C128.071 139.771 128.453 140.153 128.729 140.633C129.005 141.109 129.143 141.633 129.143 142.205C129.143 142.625 129.063 143.025 128.903 143.405C128.747 143.785 128.525 144.121 128.237 144.413C127.949 144.705 127.609 144.935 127.217 145.103C126.825 145.271 126.393 145.355 125.921 145.355ZM125.921 144.185C126.289 144.185 126.615 144.105 126.899 143.945C127.187 143.781 127.413 143.551 127.577 143.255C127.741 142.959 127.823 142.609 127.823 142.205C127.823 141.801 127.741 141.451 127.577 141.155C127.413 140.855 127.187 140.625 126.899 140.465C126.615 140.305 126.289 140.225 125.921 140.225C125.553 140.225 125.225 140.305 124.937 140.465C124.653 140.625 124.429 140.855 124.265 141.155C124.105 141.451 124.025 141.801 124.025 142.205C124.025 142.609 124.107 142.959 124.271 143.255C124.435 143.551 124.659 143.781 124.943 143.945C125.231 144.105 125.557 144.185 125.921 144.185ZM130.253 145.277L129.791 144.089C130.199 143.985 130.497 143.821 130.685 143.597C130.877 143.373 130.997 143.061 131.045 142.661C131.097 142.261 131.123 141.745 131.123 141.113V139.235H135.953V145.175H134.633V140.327H132.353V141.113C132.353 141.749 132.323 142.303 132.263 142.775C132.207 143.247 132.103 143.649 131.951 143.981C131.799 144.313 131.585 144.585 131.309 144.797C131.037 145.005 130.685 145.165 130.253 145.277ZM137.793 145.175V139.235H139.113L139.107 141.527H141.117V142.619H139.107L139.113 145.175H137.793ZM143.607 145.355C142.983 145.355 142.429 145.213 141.945 144.929C141.461 144.641 141.079 144.259 140.799 143.783C140.523 143.303 140.385 142.777 140.385 142.205C140.385 141.781 140.465 141.381 140.625 141.005C140.785 140.625 141.009 140.289 141.297 139.997C141.585 139.705 141.925 139.475 142.317 139.307C142.709 139.139 143.139 139.055 143.607 139.055C144.231 139.055 144.785 139.199 145.269 139.487C145.753 139.771 146.133 140.153 146.409 140.633C146.689 141.109 146.829 141.633 146.829 142.205C146.829 142.625 146.749 143.025 146.589 143.405C146.429 143.785 146.205 144.121 145.917 144.413C145.629 144.705 145.289 144.935 144.897 145.103C144.505 145.271 144.075 145.355 143.607 145.355ZM143.607 144.185C143.975 144.185 144.301 144.105 144.585 143.945C144.869 143.781 145.093 143.551 145.257 143.255C145.421 142.959 145.503 142.609 145.503 142.205C145.503 141.801 145.421 141.451 145.257 141.155C145.093 140.855 144.869 140.625 144.585 140.465C144.301 140.305 143.975 140.225 143.607 140.225C143.239 140.225 142.911 140.305 142.623 140.465C142.339 140.625 142.115 140.855 141.951 141.155C141.791 141.451 141.711 141.801 141.711 142.205C141.711 142.609 141.791 142.959 141.951 143.255C142.115 143.551 142.339 143.781 142.623 143.945C142.911 144.105 143.239 144.185 143.607 144.185ZM38.3126 160.175V154.235H41.1446C41.8166 154.235 42.3546 154.363 42.7586 154.619C43.1626 154.875 43.3646 155.259 43.3646 155.771C43.3646 156.011 43.3066 156.225 43.1906 156.413C43.0746 156.597 42.9146 156.751 42.7106 156.875C42.5066 156.999 42.2686 157.089 41.9966 157.145L41.9726 156.851C42.4966 156.923 42.9026 157.097 43.1906 157.373C43.4786 157.649 43.6226 157.999 43.6226 158.423C43.6226 158.783 43.5286 159.095 43.3406 159.359C43.1526 159.619 42.8826 159.821 42.5306 159.965C42.1786 160.105 41.7566 160.175 41.2646 160.175H38.3126ZM39.5906 159.197H41.0846C41.4806 159.197 41.7846 159.131 41.9966 158.999C42.2126 158.867 42.3206 158.669 42.3206 158.405C42.3206 158.145 42.2146 157.951 42.0026 157.823C41.7906 157.691 41.4846 157.625 41.0846 157.625H39.4166V156.683H40.9466C41.3186 156.683 41.6066 156.627 41.8106 156.515C42.0146 156.399 42.1166 156.211 42.1166 155.951C42.1166 155.691 42.0146 155.503 41.8106 155.387C41.6066 155.267 41.3186 155.207 40.9466 155.207H39.5906V159.197ZM48.0509 160.175V154.235H53.6609V160.175H52.3409V155.327H49.3709V160.175H48.0509ZM58.2043 160.355C57.5643 160.355 57.0023 160.225 56.5183 159.965C56.0343 159.701 55.6563 159.333 55.3843 158.861C55.1163 158.389 54.9823 157.841 54.9823 157.217C54.9823 156.761 55.0603 156.341 55.2163 155.957C55.3723 155.569 55.5923 155.233 55.8763 154.949C56.1603 154.665 56.4923 154.445 56.8723 154.289C57.2563 154.133 57.6743 154.055 58.1263 154.055C58.6183 154.055 59.0563 154.143 59.4403 154.319C59.8243 154.491 60.1423 154.733 60.3943 155.045C60.6503 155.357 60.8303 155.723 60.9343 156.143C61.0423 156.559 61.0603 157.011 60.9883 157.499H56.2483C56.2403 157.855 56.3183 158.167 56.4823 158.435C56.6463 158.699 56.8803 158.905 57.1843 159.053C57.4923 159.201 57.8543 159.275 58.2703 159.275C58.6063 159.275 58.9303 159.225 59.2423 159.125C59.5583 159.021 59.8443 158.869 60.1003 158.669L60.6103 159.617C60.4183 159.773 60.1863 159.907 59.9143 160.019C59.6423 160.127 59.3583 160.209 59.0623 160.265C58.7663 160.325 58.4803 160.355 58.2043 160.355ZM56.3263 156.527H59.6923C59.6803 156.079 59.5363 155.727 59.2603 155.471C58.9883 155.215 58.6003 155.087 58.0963 155.087C57.6083 155.087 57.2023 155.215 56.8783 155.471C56.5583 155.727 56.3743 156.079 56.3263 156.527ZM62.3595 162.695V154.235H63.5475V155.069C63.7835 154.769 64.0855 154.525 64.4535 154.337C64.8215 154.149 65.2755 154.055 65.8155 154.055C66.3955 154.055 66.9095 154.193 67.3575 154.469C67.8095 154.741 68.1615 155.115 68.4135 155.591C68.6655 156.063 68.7915 156.601 68.7915 157.205C68.7915 157.641 68.7195 158.051 68.5755 158.435C68.4315 158.815 68.2255 159.149 67.9575 159.437C67.6935 159.725 67.3775 159.951 67.0095 160.115C66.6455 160.275 66.2415 160.355 65.7975 160.355C65.3335 160.355 64.9255 160.271 64.5735 160.103C64.2215 159.935 63.9215 159.709 63.6735 159.425V162.695H62.3595ZM65.5755 159.185C65.9435 159.185 66.2695 159.105 66.5535 158.945C66.8415 158.781 67.0655 158.551 67.2255 158.255C67.3895 157.959 67.4715 157.609 67.4715 157.205C67.4715 156.801 67.3895 156.451 67.2255 156.155C67.0615 155.855 66.8355 155.625 66.5475 155.465C66.2635 155.305 65.9395 155.225 65.5755 155.225C65.2075 155.225 64.8795 155.305 64.5915 155.465C64.3075 155.625 64.0835 155.855 63.9195 156.155C63.7555 156.451 63.6735 156.801 63.6735 157.205C63.6735 157.609 63.7555 157.959 63.9195 158.255C64.0835 158.551 64.3075 158.781 64.5915 158.945C64.8795 159.105 65.2075 159.185 65.5755 159.185ZM72.8999 160.355C72.2759 160.355 71.7199 160.219 71.2319 159.947C70.7439 159.671 70.3599 159.297 70.0799 158.825C69.8039 158.349 69.6659 157.809 69.6659 157.205C69.6659 156.749 69.7479 156.331 69.9119 155.951C70.0759 155.567 70.3079 155.233 70.6079 154.949C70.9079 154.665 71.2599 154.445 71.6639 154.289C72.0719 154.133 72.5139 154.055 72.9899 154.055C73.3899 154.055 73.7599 154.109 74.0999 154.217C74.4439 154.321 74.7599 154.483 75.0479 154.703L74.4119 155.711C74.2279 155.547 74.0159 155.425 73.7759 155.345C73.5399 155.265 73.2879 155.225 73.0199 155.225C72.6039 155.225 72.2459 155.303 71.9459 155.459C71.6459 155.615 71.4119 155.841 71.2439 156.137C71.0799 156.429 70.9979 156.783 70.9979 157.199C70.9979 157.819 71.1779 158.305 71.5379 158.657C71.9019 159.009 72.3959 159.185 73.0199 159.185C73.3159 159.185 73.5959 159.131 73.8599 159.023C74.1239 158.911 74.3439 158.765 74.5199 158.585L75.1499 159.587C74.8339 159.827 74.4819 160.015 74.0939 160.151C73.7059 160.287 73.3079 160.355 72.8999 160.355ZM76.3634 160.175V154.235H81.9734V160.175H80.6534V155.327H77.6834V160.175H76.3634ZM86.5168 160.355C85.8768 160.355 85.3148 160.225 84.8308 159.965C84.3468 159.701 83.9688 159.333 83.6968 158.861C83.4288 158.389 83.2948 157.841 83.2948 157.217C83.2948 156.761 83.3728 156.341 83.5288 155.957C83.6848 155.569 83.9048 155.233 84.1888 154.949C84.4728 154.665 84.8048 154.445 85.1848 154.289C85.5688 154.133 85.9868 154.055 86.4388 154.055C86.9308 154.055 87.3688 154.143 87.7528 154.319C88.1368 154.491 88.4548 154.733 88.7068 155.045C88.9628 155.357 89.1428 155.723 89.2468 156.143C89.3548 156.559 89.3728 157.011 89.3008 157.499H84.5608C84.5528 157.855 84.6308 158.167 84.7948 158.435C84.9588 158.699 85.1928 158.905 85.4968 159.053C85.8048 159.201 86.1668 159.275 86.5828 159.275C86.9188 159.275 87.2428 159.225 87.5548 159.125C87.8708 159.021 88.1568 158.869 88.4128 158.669L88.9228 159.617C88.7308 159.773 88.4988 159.907 88.2268 160.019C87.9548 160.127 87.6708 160.209 87.3748 160.265C87.0788 160.325 86.7928 160.355 86.5168 160.355ZM84.6388 156.527H88.0048C87.9928 156.079 87.8488 155.727 87.5728 155.471C87.3008 155.215 86.9128 155.087 86.4088 155.087C85.9208 155.087 85.5148 155.215 85.1908 155.471C84.8708 155.727 84.6868 156.079 84.6388 156.527ZM94.62 160.175L92.652 157.019L94.482 154.235H95.892L94.074 156.959L96.198 160.175H94.62ZM90.672 160.175V154.235H91.992V156.527H93.78V157.619H91.992V160.175H90.672ZM98.6894 160.175V155.327H96.7394V154.235H101.965V155.327H100.009V160.175H98.6894ZM103.176 160.175V154.235H104.454V158.243L107.676 154.235H108.828V160.175H107.556V156.119L104.304 160.175H103.176ZM110.664 160.175V154.235H113.496C114.168 154.235 114.706 154.363 115.11 154.619C115.514 154.875 115.716 155.259 115.716 155.771C115.716 156.011 115.658 156.225 115.542 156.413C115.426 156.597 115.266 156.751 115.062 156.875C114.858 156.999 114.62 157.089 114.348 157.145L114.324 156.851C114.848 156.923 115.254 157.097 115.542 157.373C115.83 157.649 115.974 157.999 115.974 158.423C115.974 158.783 115.88 159.095 115.692 159.359C115.504 159.619 115.234 159.821 114.882 159.965C114.53 160.105 114.108 160.175 113.616 160.175H110.664ZM111.942 159.197H113.436C113.832 159.197 114.136 159.131 114.348 158.999C114.564 158.867 114.672 158.669 114.672 158.405C114.672 158.145 114.566 157.951 114.354 157.823C114.142 157.691 113.836 157.625 113.436 157.625H111.768V156.683H113.298C113.67 156.683 113.958 156.627 114.162 156.515C114.366 156.399 114.468 156.211 114.468 155.951C114.468 155.691 114.366 155.503 114.162 155.387C113.958 155.267 113.67 155.207 113.298 155.207H111.942V159.197ZM117.461 160.175V154.235H118.781V156.527H121.757V154.235H123.077V160.175H121.757V157.619H118.781V160.175H117.461ZM124.914 160.175V154.235H126.234V159.173H127.308C127.74 159.173 128.066 159.089 128.286 158.921C128.506 158.753 128.616 158.503 128.616 158.171C128.616 157.843 128.514 157.591 128.31 157.415C128.106 157.239 127.806 157.151 127.41 157.151H126.054V156.161H127.512C128.28 156.161 128.884 156.333 129.324 156.677C129.764 157.021 129.984 157.519 129.984 158.171C129.984 158.591 129.878 158.951 129.666 159.251C129.454 159.547 129.156 159.775 128.772 159.935C128.392 160.095 127.946 160.175 127.434 160.175H124.914ZM130.938 160.175V154.235H132.258V160.175H130.938ZM133.352 160.181L135.5 157.193L133.478 154.235H135.14L136.406 156.245L137.63 154.235H139.25L137.288 157.157L139.418 160.175H137.726L136.358 158.087L134.972 160.163L133.352 160.181ZM24.9861 175.355C24.4861 175.355 24.0341 175.269 23.6301 175.097C23.2261 174.925 22.8821 174.677 22.5981 174.353C22.3141 174.025 22.0961 173.627 21.9441 173.159C21.7961 172.687 21.7221 172.151 21.7221 171.551C21.7221 170.891 21.7721 170.299 21.8721 169.775C21.9761 169.251 22.1381 168.797 22.3581 168.413C22.5821 168.029 22.8761 167.713 23.2401 167.465C23.6081 167.217 24.0541 167.039 24.5781 166.931L27.4221 166.355L27.6381 167.501L24.8721 168.035C24.4081 168.131 24.0441 168.285 23.7801 168.497C23.5161 168.709 23.3221 168.979 23.1981 169.307C23.0741 169.635 22.9921 170.021 22.9521 170.465C23.2041 170.125 23.5181 169.853 23.8941 169.649C24.2701 169.445 24.7081 169.343 25.2081 169.343C25.7721 169.343 26.2701 169.477 26.7021 169.745C27.1381 170.009 27.4781 170.363 27.7221 170.807C27.9661 171.251 28.0881 171.743 28.0881 172.283C28.0881 172.703 28.0141 173.099 27.8661 173.471C27.7221 173.843 27.5121 174.171 27.2361 174.455C26.9601 174.735 26.6321 174.955 26.2521 175.115C25.8721 175.275 25.4501 175.355 24.9861 175.355ZM24.9561 174.185C25.3041 174.185 25.6141 174.109 25.8861 173.957C26.1621 173.801 26.3781 173.583 26.5341 173.303C26.6901 173.019 26.7681 172.683 26.7681 172.295C26.7681 171.907 26.6901 171.573 26.5341 171.293C26.3781 171.009 26.1621 170.791 25.8861 170.639C25.6141 170.483 25.3041 170.405 24.9561 170.405C24.6081 170.405 24.2961 170.483 24.0201 170.639C23.7481 170.791 23.5341 171.009 23.3781 171.293C23.2221 171.573 23.1441 171.907 23.1441 172.295C23.1441 172.683 23.2221 173.019 23.3781 173.303C23.5341 173.583 23.7481 173.801 24.0201 173.957C24.2961 174.109 24.6081 174.185 24.9561 174.185ZM29.4766 175.175V169.235H30.7546V173.243L33.9766 169.235H35.1286V175.175H33.8566V171.119L30.6046 175.175H29.4766ZM38.9689 175.319C38.6369 175.319 38.3169 175.293 38.0089 175.241C37.7009 175.193 37.4109 175.117 37.1389 175.013C36.8669 174.905 36.6209 174.763 36.4009 174.587L36.9769 173.693C37.2289 173.905 37.5269 174.059 37.8709 174.155C38.2149 174.247 38.5649 174.293 38.9209 174.293C39.4049 174.293 39.7869 174.223 40.0669 174.083C40.3469 173.939 40.4869 173.703 40.4869 173.375C40.4869 173.087 40.3389 172.881 40.0429 172.757C39.7509 172.633 39.3249 172.571 38.7649 172.571H37.6729V171.575H38.7289C39.2249 171.575 39.6069 171.519 39.8749 171.407C40.1429 171.291 40.2769 171.095 40.2769 170.819C40.2769 170.655 40.2189 170.519 40.1029 170.411C39.9909 170.303 39.8309 170.221 39.6229 170.165C39.4189 170.109 39.1789 170.081 38.9029 170.081C38.5629 170.081 38.2349 170.131 37.9189 170.231C37.6029 170.331 37.3269 170.485 37.0909 170.693L36.5989 169.811C36.9029 169.559 37.2709 169.367 37.7029 169.235C38.1349 169.099 38.5709 169.031 39.0109 169.031C39.5229 169.031 39.9629 169.095 40.3309 169.223C40.6989 169.351 40.9829 169.535 41.1829 169.775C41.3829 170.015 41.4829 170.305 41.4829 170.645C41.4829 170.949 41.3849 171.213 41.1889 171.437C40.9969 171.661 40.7169 171.823 40.3489 171.923C40.7969 172.023 41.1369 172.199 41.3689 172.451C41.6049 172.703 41.7229 173.019 41.7229 173.399C41.7229 173.799 41.6089 174.143 41.3809 174.431C41.1569 174.715 40.8369 174.935 40.4209 175.091C40.0089 175.243 39.5249 175.319 38.9689 175.319ZM43.1641 175.175V169.235H44.4841V171.527H47.4601V169.235H48.7801V175.175H47.4601V172.619H44.4841V175.175H43.1641ZM53.3293 175.355C52.6893 175.355 52.1273 175.225 51.6433 174.965C51.1593 174.701 50.7813 174.333 50.5093 173.861C50.2413 173.389 50.1073 172.841 50.1073 172.217C50.1073 171.761 50.1853 171.341 50.3413 170.957C50.4973 170.569 50.7173 170.233 51.0013 169.949C51.2853 169.665 51.6173 169.445 51.9973 169.289C52.3813 169.133 52.7993 169.055 53.2513 169.055C53.7433 169.055 54.1813 169.143 54.5653 169.319C54.9493 169.491 55.2673 169.733 55.5193 170.045C55.7753 170.357 55.9553 170.723 56.0593 171.143C56.1673 171.559 56.1853 172.011 56.1133 172.499H51.3733C51.3653 172.855 51.4433 173.167 51.6073 173.435C51.7713 173.699 52.0053 173.905 52.3093 174.053C52.6173 174.201 52.9793 174.275 53.3953 174.275C53.7313 174.275 54.0553 174.225 54.3673 174.125C54.6833 174.021 54.9693 173.869 55.2253 173.669L55.7353 174.617C55.5433 174.773 55.3113 174.907 55.0393 175.019C54.7673 175.127 54.4833 175.209 54.1873 175.265C53.8913 175.325 53.6053 175.355 53.3293 175.355ZM51.4513 171.527H54.8173C54.8053 171.079 54.6613 170.727 54.3853 170.471C54.1133 170.215 53.7253 170.087 53.2213 170.087C52.7333 170.087 52.3273 170.215 52.0033 170.471C51.6833 170.727 51.4993 171.079 51.4513 171.527ZM60.267 175.355C59.643 175.355 59.087 175.219 58.599 174.947C58.111 174.671 57.727 174.297 57.447 173.825C57.171 173.349 57.033 172.809 57.033 172.205C57.033 171.749 57.115 171.331 57.279 170.951C57.443 170.567 57.675 170.233 57.975 169.949C58.275 169.665 58.627 169.445 59.031 169.289C59.439 169.133 59.881 169.055 60.357 169.055C60.757 169.055 61.127 169.109 61.467 169.217C61.811 169.321 62.127 169.483 62.415 169.703L61.779 170.711C61.595 170.547 61.383 170.425 61.143 170.345C60.907 170.265 60.655 170.225 60.387 170.225C59.971 170.225 59.613 170.303 59.313 170.459C59.013 170.615 58.779 170.841 58.611 171.137C58.447 171.429 58.365 171.783 58.365 172.199C58.365 172.819 58.545 173.305 58.905 173.657C59.269 174.009 59.763 174.185 60.387 174.185C60.683 174.185 60.963 174.131 61.227 174.023C61.491 173.911 61.711 173.765 61.887 173.585L62.517 174.587C62.201 174.827 61.849 175.015 61.461 175.151C61.073 175.287 60.675 175.355 60.267 175.355ZM66.1274 175.355C65.5354 175.355 65.0114 175.219 64.5554 174.947C64.1034 174.671 63.7474 174.297 63.4874 173.825C63.2314 173.349 63.1034 172.809 63.1034 172.205C63.1034 171.753 63.1774 171.335 63.3254 170.951C63.4734 170.567 63.6814 170.233 63.9494 169.949C64.2174 169.665 64.5374 169.445 64.9094 169.289C65.2814 169.133 65.6874 169.055 66.1274 169.055C66.7114 169.055 67.1994 169.179 67.5914 169.427C67.9874 169.675 68.2894 169.995 68.4974 170.387L68.3114 170.669V169.235H69.4874V175.175H68.3114V173.741L68.4974 174.023C68.2894 174.415 67.9874 174.735 67.5914 174.983C67.1994 175.231 66.7114 175.355 66.1274 175.355ZM66.3014 174.185C66.6614 174.185 66.9834 174.105 67.2674 173.945C67.5514 173.781 67.7734 173.551 67.9334 173.255C68.0974 172.959 68.1794 172.609 68.1794 172.205C68.1794 171.801 68.0974 171.451 67.9334 171.155C67.7734 170.855 67.5514 170.625 67.2674 170.465C66.9834 170.305 66.6614 170.225 66.3014 170.225C65.9374 170.225 65.6134 170.305 65.3294 170.465C65.0494 170.625 64.8274 170.855 64.6634 171.155C64.4994 171.451 64.4174 171.801 64.4174 172.205C64.4174 172.609 64.4994 172.959 64.6634 173.255C64.8274 173.551 65.0494 173.781 65.3294 173.945C65.6134 174.105 65.9374 174.185 66.3014 174.185ZM70.5863 175.181L72.7343 172.193L70.7123 169.235H72.3743L73.6403 171.245L74.8643 169.235H76.4843L74.5223 172.157L76.6523 175.175H74.9603L73.5923 173.087L72.2063 175.163L70.5863 175.181ZM80.6993 175.175V169.235H81.9773V173.243L85.1993 169.235H86.3513V175.175H85.0793V171.119L81.8273 175.175H80.6993ZM87.9716 175.277L87.5096 174.089C87.9176 173.985 88.2156 173.821 88.4036 173.597C88.5956 173.373 88.7156 173.061 88.7636 172.661C88.8156 172.261 88.8416 171.745 88.8416 171.113V169.235H93.6716V175.175H92.3516V170.327H90.0716V171.113C90.0716 171.749 90.0416 172.303 89.9816 172.775C89.9256 173.247 89.8216 173.649 89.6696 173.981C89.5176 174.313 89.3036 174.585 89.0276 174.797C88.7556 175.005 88.4036 175.165 87.9716 175.277ZM95.5118 175.175V169.235H96.7898V173.243L100.012 169.235H101.164V175.175H99.8918V171.119L96.6398 175.175H95.5118ZM108.665 175.355C108.041 175.355 107.485 175.219 106.997 174.947C106.509 174.671 106.125 174.297 105.845 173.825C105.569 173.349 105.431 172.809 105.431 172.205C105.431 171.749 105.513 171.331 105.677 170.951C105.841 170.567 106.073 170.233 106.373 169.949C106.673 169.665 107.025 169.445 107.429 169.289C107.837 169.133 108.279 169.055 108.755 169.055C109.155 169.055 109.525 169.109 109.865 169.217C110.209 169.321 110.525 169.483 110.813 169.703L110.177 170.711C109.993 170.547 109.781 170.425 109.541 170.345C109.305 170.265 109.053 170.225 108.785 170.225C108.369 170.225 108.011 170.303 107.711 170.459C107.411 170.615 107.177 170.841 107.009 171.137C106.845 171.429 106.763 171.783 106.763 172.199C106.763 172.819 106.943 173.305 107.303 173.657C107.667 174.009 108.161 174.185 108.785 174.185C109.081 174.185 109.361 174.131 109.625 174.023C109.889 173.911 110.109 173.765 110.285 173.585L110.915 174.587C110.599 174.827 110.247 175.015 109.859 175.151C109.471 175.287 109.073 175.355 108.665 175.355ZM114.718 175.355C114.098 175.355 113.544 175.213 113.056 174.929C112.572 174.641 112.192 174.259 111.916 173.783C111.64 173.303 111.502 172.777 111.502 172.205C111.502 171.781 111.58 171.381 111.736 171.005C111.896 170.625 112.12 170.289 112.408 169.997C112.7 169.705 113.042 169.475 113.434 169.307C113.826 169.139 114.256 169.055 114.724 169.055C115.344 169.055 115.896 169.199 116.38 169.487C116.868 169.771 117.25 170.153 117.526 170.633C117.802 171.109 117.94 171.633 117.94 172.205C117.94 172.625 117.86 173.025 117.7 173.405C117.544 173.785 117.322 174.121 117.034 174.413C116.746 174.705 116.406 174.935 116.014 175.103C115.622 175.271 115.19 175.355 114.718 175.355ZM114.718 174.185C115.086 174.185 115.412 174.105 115.696 173.945C115.984 173.781 116.21 173.551 116.374 173.255C116.538 172.959 116.62 172.609 116.62 172.205C116.62 171.801 116.538 171.451 116.374 171.155C116.21 170.855 115.984 170.625 115.696 170.465C115.412 170.305 115.086 170.225 114.718 170.225C114.35 170.225 114.022 170.305 113.734 170.465C113.45 170.625 113.226 170.855 113.062 171.155C112.902 171.451 112.822 171.801 112.822 172.205C112.822 172.609 112.904 172.959 113.068 173.255C113.232 173.551 113.456 173.781 113.74 173.945C114.028 174.105 114.354 174.185 114.718 174.185ZM121.27 175.319C120.938 175.319 120.618 175.293 120.31 175.241C120.002 175.193 119.712 175.117 119.44 175.013C119.168 174.905 118.922 174.763 118.702 174.587L119.278 173.693C119.53 173.905 119.828 174.059 120.172 174.155C120.516 174.247 120.866 174.293 121.222 174.293C121.706 174.293 122.088 174.223 122.368 174.083C122.648 173.939 122.788 173.703 122.788 173.375C122.788 173.087 122.64 172.881 122.344 172.757C122.052 172.633 121.626 172.571 121.066 172.571H119.974V171.575H121.03C121.526 171.575 121.908 171.519 122.176 171.407C122.444 171.291 122.578 171.095 122.578 170.819C122.578 170.655 122.52 170.519 122.404 170.411C122.292 170.303 122.132 170.221 121.924 170.165C121.72 170.109 121.48 170.081 121.204 170.081C120.864 170.081 120.536 170.131 120.22 170.231C119.904 170.331 119.628 170.485 119.392 170.693L118.9 169.811C119.204 169.559 119.572 169.367 120.004 169.235C120.436 169.099 120.872 169.031 121.312 169.031C121.824 169.031 122.264 169.095 122.632 169.223C123 169.351 123.284 169.535 123.484 169.775C123.684 170.015 123.784 170.305 123.784 170.645C123.784 170.949 123.686 171.213 123.49 171.437C123.298 171.661 123.018 171.823 122.65 171.923C123.098 172.023 123.438 172.199 123.67 172.451C123.906 172.703 124.024 173.019 124.024 173.399C124.024 173.799 123.91 174.143 123.682 174.431C123.458 174.715 123.138 174.935 122.722 175.091C122.31 175.243 121.826 175.319 121.27 175.319ZM129.779 175.175V170.327H127.379V171.113C127.379 171.653 127.347 172.141 127.283 172.577C127.219 173.013 127.105 173.397 126.941 173.729C126.777 174.057 126.547 174.329 126.251 174.545C125.959 174.761 125.585 174.919 125.129 175.019L124.805 174.125C125.185 174.033 125.471 173.861 125.663 173.609C125.855 173.357 125.983 173.025 126.047 172.613C126.115 172.197 126.149 171.697 126.149 171.113V169.235H131.099V175.175H129.779ZM124.805 176.975V174.125L125.621 174.209L125.825 174.083H132.293V176.975H131.087V175.175H126.011V176.975H124.805ZM135.877 175.355C135.285 175.355 134.761 175.219 134.305 174.947C133.853 174.671 133.497 174.297 133.237 173.825C132.981 173.349 132.853 172.809 132.853 172.205C132.853 171.753 132.927 171.335 133.075 170.951C133.223 170.567 133.431 170.233 133.699 169.949C133.967 169.665 134.287 169.445 134.659 169.289C135.031 169.133 135.437 169.055 135.877 169.055C136.461 169.055 136.949 169.179 137.341 169.427C137.737 169.675 138.039 169.995 138.247 170.387L138.061 170.669V169.235H139.237V175.175H138.061V173.741L138.247 174.023C138.039 174.415 137.737 174.735 137.341 174.983C136.949 175.231 136.461 175.355 135.877 175.355ZM136.051 174.185C136.411 174.185 136.733 174.105 137.017 173.945C137.301 173.781 137.523 173.551 137.683 173.255C137.847 172.959 137.929 172.609 137.929 172.205C137.929 171.801 137.847 171.451 137.683 171.155C137.523 170.855 137.301 170.625 137.017 170.465C136.733 170.305 136.411 170.225 136.051 170.225C135.687 170.225 135.363 170.305 135.079 170.465C134.799 170.625 134.577 170.855 134.413 171.155C134.249 171.451 134.167 171.801 134.167 172.205C134.167 172.609 134.249 172.959 134.413 173.255C134.577 173.551 134.799 173.781 135.079 173.945C135.363 174.105 135.687 174.185 136.051 174.185ZM143.786 175.355C143.146 175.355 142.584 175.225 142.1 174.965C141.616 174.701 141.238 174.333 140.966 173.861C140.698 173.389 140.564 172.841 140.564 172.217C140.564 171.761 140.642 171.341 140.798 170.957C140.954 170.569 141.174 170.233 141.458 169.949C141.742 169.665 142.074 169.445 142.454 169.289C142.838 169.133 143.256 169.055 143.708 169.055C144.2 169.055 144.638 169.143 145.022 169.319C145.406 169.491 145.724 169.733 145.976 170.045C146.232 170.357 146.412 170.723 146.516 171.143C146.624 171.559 146.642 172.011 146.57 172.499H141.83C141.822 172.855 141.9 173.167 142.064 173.435C142.228 173.699 142.462 173.905 142.766 174.053C143.074 174.201 143.436 174.275 143.852 174.275C144.188 174.275 144.512 174.225 144.824 174.125C145.14 174.021 145.426 173.869 145.682 173.669L146.192 174.617C146 174.773 145.768 174.907 145.496 175.019C145.224 175.127 144.94 175.209 144.644 175.265C144.348 175.325 144.062 175.355 143.786 175.355ZM141.908 171.527H145.274C145.262 171.079 145.118 170.727 144.842 170.471C144.57 170.215 144.182 170.087 143.678 170.087C143.19 170.087 142.784 170.215 142.46 170.471C142.14 170.727 141.956 171.079 141.908 171.527ZM142.382 168.185C142.162 168.185 141.968 168.109 141.8 167.957C141.636 167.805 141.554 167.611 141.554 167.375C141.554 167.215 141.592 167.073 141.668 166.949C141.744 166.825 141.844 166.729 141.968 166.661C142.096 166.593 142.234 166.559 142.382 166.559C142.598 166.559 142.788 166.635 142.952 166.787C143.12 166.939 143.204 167.135 143.204 167.375C143.204 167.535 143.166 167.677 143.09 167.801C143.014 167.921 142.912 168.015 142.784 168.083C142.66 168.151 142.526 168.185 142.382 168.185ZM144.98 168.185C144.76 168.185 144.566 168.109 144.398 167.957C144.234 167.805 144.152 167.611 144.152 167.375C144.152 167.215 144.19 167.073 144.266 166.949C144.342 166.825 144.442 166.729 144.566 166.661C144.694 166.593 144.832 166.559 144.98 166.559C145.196 166.559 145.386 166.635 145.55 166.787C145.718 166.939 145.802 167.135 145.802 167.375C145.802 167.535 145.764 167.677 145.688 167.801C145.612 167.921 145.51 168.015 145.382 168.083C145.258 168.151 145.124 168.185 144.98 168.185ZM147.941 175.175V169.235H149.087H149.123L151.787 173.087L151.217 173.099L153.749 169.235H154.919V175.175H153.719L153.737 170.783L153.983 170.891L151.859 173.993H151.007L148.787 170.885L149.033 170.777L149.051 175.175H147.941ZM45.7364 190.175V184.235H51.3464V190.175H50.0264V185.327H47.0564V190.175H45.7364ZM53.1778 192.695V184.235H54.3658V185.069C54.6018 184.769 54.9038 184.525 55.2718 184.337C55.6398 184.149 56.0938 184.055 56.6338 184.055C57.2138 184.055 57.7278 184.193 58.1758 184.469C58.6278 184.741 58.9798 185.115 59.2318 185.591C59.4838 186.063 59.6098 186.601 59.6098 187.205C59.6098 187.641 59.5378 188.051 59.3938 188.435C59.2498 188.815 59.0438 189.149 58.7758 189.437C58.5118 189.725 58.1958 189.951 57.8278 190.115C57.4638 190.275 57.0598 190.355 56.6158 190.355C56.1518 190.355 55.7438 190.271 55.3918 190.103C55.0398 189.935 54.7398 189.709 54.4918 189.425V192.695H53.1778ZM56.3938 189.185C56.7618 189.185 57.0878 189.105 57.3718 188.945C57.6598 188.781 57.8838 188.551 58.0438 188.255C58.2078 187.959 58.2898 187.609 58.2898 187.205C58.2898 186.801 58.2078 186.451 58.0438 186.155C57.8798 185.855 57.6538 185.625 57.3658 185.465C57.0818 185.305 56.7578 185.225 56.3938 185.225C56.0258 185.225 55.6978 185.305 55.4098 185.465C55.1258 185.625 54.9018 185.855 54.7378 186.155C54.5738 186.451 54.4918 186.801 54.4918 187.205C54.4918 187.609 54.5738 187.959 54.7378 188.255C54.9018 188.551 55.1258 188.781 55.4098 188.945C55.6978 189.105 56.0258 189.185 56.3938 189.185ZM63.7002 190.355C63.0802 190.355 62.5262 190.213 62.0382 189.929C61.5542 189.641 61.1742 189.259 60.8982 188.783C60.6222 188.303 60.4842 187.777 60.4842 187.205C60.4842 186.781 60.5622 186.381 60.7182 186.005C60.8782 185.625 61.1022 185.289 61.3902 184.997C61.6822 184.705 62.0242 184.475 62.4162 184.307C62.8082 184.139 63.2382 184.055 63.7062 184.055C64.3262 184.055 64.8782 184.199 65.3622 184.487C65.8502 184.771 66.2322 185.153 66.5082 185.633C66.7842 186.109 66.9222 186.633 66.9222 187.205C66.9222 187.625 66.8422 188.025 66.6822 188.405C66.5262 188.785 66.3042 189.121 66.0162 189.413C65.7282 189.705 65.3882 189.935 64.9962 190.103C64.6042 190.271 64.1722 190.355 63.7002 190.355ZM63.7002 189.185C64.0682 189.185 64.3942 189.105 64.6782 188.945C64.9662 188.781 65.1922 188.551 65.3562 188.255C65.5202 187.959 65.6022 187.609 65.6022 187.205C65.6022 186.801 65.5202 186.451 65.3562 186.155C65.1922 185.855 64.9662 185.625 64.6782 185.465C64.3942 185.305 64.0682 185.225 63.7002 185.225C63.3322 185.225 63.0042 185.305 62.7162 185.465C62.4322 185.625 62.2082 185.855 62.0442 186.155C61.8842 186.451 61.8042 186.801 61.8042 187.205C61.8042 187.609 61.8862 187.959 62.0502 188.255C62.2142 188.551 62.4382 188.781 62.7222 188.945C63.0102 189.105 63.3362 189.185 63.7002 189.185ZM71.0187 190.355C70.3787 190.355 69.8167 190.225 69.3327 189.965C68.8487 189.701 68.4707 189.333 68.1987 188.861C67.9307 188.389 67.7967 187.841 67.7967 187.217C67.7967 186.761 67.8747 186.341 68.0307 185.957C68.1867 185.569 68.4067 185.233 68.6907 184.949C68.9747 184.665 69.3067 184.445 69.6867 184.289C70.0707 184.133 70.4887 184.055 70.9407 184.055C71.4327 184.055 71.8707 184.143 72.2547 184.319C72.6387 184.491 72.9567 184.733 73.2087 185.045C73.4647 185.357 73.6447 185.723 73.7487 186.143C73.8567 186.559 73.8747 187.011 73.8027 187.499H69.0627C69.0547 187.855 69.1327 188.167 69.2967 188.435C69.4607 188.699 69.6947 188.905 69.9987 189.053C70.3067 189.201 70.6687 189.275 71.0847 189.275C71.4207 189.275 71.7447 189.225 72.0567 189.125C72.3727 189.021 72.6587 188.869 72.9147 188.669L73.4247 189.617C73.2327 189.773 73.0007 189.907 72.7287 190.019C72.4567 190.127 72.1727 190.209 71.8767 190.265C71.5807 190.325 71.2947 190.355 71.0187 190.355ZM69.1407 186.527H72.5067C72.4947 186.079 72.3507 185.727 72.0747 185.471C71.8027 185.215 71.4147 185.087 70.9107 185.087C70.4227 185.087 70.0167 185.215 69.6927 185.471C69.3727 185.727 69.1887 186.079 69.1407 186.527ZM79.1219 190.175L77.1539 187.019L78.9839 184.235H80.3939L78.5759 186.959L80.6999 190.175H79.1219ZM75.1739 190.175V184.235H76.4939V186.527H78.2819V187.619H76.4939V190.175H75.1739ZM83.1913 190.175V185.327H81.2413V184.235H86.4673V185.327H84.5113V190.175H83.1913ZM87.6778 190.175V184.235H88.9978V189.173H90.0718C90.5038 189.173 90.8298 189.089 91.0498 188.921C91.2698 188.753 91.3798 188.503 91.3798 188.171C91.3798 187.843 91.2778 187.591 91.0738 187.415C90.8698 187.239 90.5698 187.151 90.1738 187.151H88.8178V186.161H90.2758C91.0438 186.161 91.6478 186.333 92.0878 186.677C92.5278 187.021 92.7478 187.519 92.7478 188.171C92.7478 188.591 92.6418 188.951 92.4298 189.251C92.2178 189.547 91.9198 189.775 91.5358 189.935C91.1558 190.095 90.7098 190.175 90.1978 190.175H87.6778ZM93.7018 190.175V184.235H95.0218V190.175H93.7018ZM102.519 190.355C101.895 190.355 101.339 190.219 100.851 189.947C100.363 189.671 99.979 189.297 99.699 188.825C99.423 188.349 99.285 187.809 99.285 187.205C99.285 186.749 99.367 186.331 99.531 185.951C99.695 185.567 99.927 185.233 100.227 184.949C100.527 184.665 100.879 184.445 101.283 184.289C101.691 184.133 102.133 184.055 102.609 184.055C103.009 184.055 103.379 184.109 103.719 184.217C104.063 184.321 104.379 184.483 104.667 184.703L104.031 185.711C103.847 185.547 103.635 185.425 103.395 185.345C103.159 185.265 102.907 185.225 102.639 185.225C102.223 185.225 101.865 185.303 101.565 185.459C101.265 185.615 101.031 185.841 100.863 186.137C100.699 186.429 100.617 186.783 100.617 187.199C100.617 187.819 100.797 188.305 101.157 188.657C101.521 189.009 102.015 189.185 102.639 189.185C102.935 189.185 103.215 189.131 103.479 189.023C103.743 188.911 103.963 188.765 104.139 188.585L104.769 189.587C104.453 189.827 104.101 190.015 103.713 190.151C103.325 190.287 102.927 190.355 102.519 190.355ZM108.379 190.355C107.787 190.355 107.263 190.219 106.807 189.947C106.355 189.671 105.999 189.297 105.739 188.825C105.483 188.349 105.355 187.809 105.355 187.205C105.355 186.753 105.429 186.335 105.577 185.951C105.725 185.567 105.933 185.233 106.201 184.949C106.469 184.665 106.789 184.445 107.161 184.289C107.533 184.133 107.939 184.055 108.379 184.055C108.963 184.055 109.451 184.179 109.843 184.427C110.239 184.675 110.541 184.995 110.749 185.387L110.563 185.669V184.235H111.739V190.175H110.563V188.741L110.749 189.023C110.541 189.415 110.239 189.735 109.843 189.983C109.451 190.231 108.963 190.355 108.379 190.355ZM108.553 189.185C108.913 189.185 109.235 189.105 109.519 188.945C109.803 188.781 110.025 188.551 110.185 188.255C110.349 187.959 110.431 187.609 110.431 187.205C110.431 186.801 110.349 186.451 110.185 186.155C110.025 185.855 109.803 185.625 109.519 185.465C109.235 185.305 108.913 185.225 108.553 185.225C108.189 185.225 107.865 185.305 107.581 185.465C107.301 185.625 107.079 185.855 106.915 186.155C106.751 186.451 106.669 186.801 106.669 187.205C106.669 187.609 106.751 187.959 106.915 188.255C107.079 188.551 107.301 188.781 107.581 188.945C107.865 189.105 108.189 189.185 108.553 189.185ZM113.576 190.175V184.235H114.722H114.758L117.422 188.087L116.852 188.099L119.384 184.235H120.554V190.175H119.354L119.372 185.783L119.618 185.891L117.494 188.993H116.642L114.422 185.885L114.668 185.777L114.686 190.175H113.576ZM122.389 190.175V184.235H123.667V188.243L126.889 184.235H128.041V190.175H126.769V186.119L123.517 190.175H122.389ZM130.573 190.355C130.317 190.355 130.095 190.273 129.907 190.109C129.723 189.945 129.631 189.731 129.631 189.467C129.631 189.287 129.673 189.131 129.757 188.999C129.841 188.863 129.955 188.759 130.099 188.687C130.243 188.611 130.401 188.573 130.573 188.573C130.833 188.573 131.053 188.655 131.233 188.819C131.417 188.979 131.509 189.195 131.509 189.467C131.509 189.643 131.467 189.799 131.383 189.935C131.299 190.067 131.185 190.169 131.041 190.241C130.901 190.317 130.745 190.355 130.573 190.355Z" fill="#18181B"/>
<defs>
<clipPath id="clip0_552_390">
<rect width="71.1748" height="71.1748" fill="white" transform="translate(52.9141 13)"/>
</clipPath>
</defs>
</svg>
